# Blender 4.1.1
# www.blender.org
mtllib enemy.mtl
o 立方体
v -0.012019 -0.317852 0.278631
v -0.252161 0.367206 0.431940
v -0.226659 -0.177028 -0.148352
v -0.251823 0.367746 -0.115257
v 0.054507 -0.317631 0.278562
v 0.295029 0.367746 0.431596
v 0.268532 -0.176385 -0.150003
v 0.295594 0.368648 -0.115831
v -0.292100 -0.219618 -0.003653
v -0.312174 -0.239716 0.158611
v -0.271594 -0.231519 0.307721
v -0.263801 -0.084910 0.453830
v -0.312174 0.093628 0.491955
v -0.292100 0.255915 0.471880
v -0.291999 0.407162 0.320691
v -0.311945 0.427337 0.158378
v -0.269966 0.454538 -0.029211
v -0.292707 0.255218 -0.156935
v -0.306838 0.094518 -0.181663
v -0.044422 -0.042950 -0.479484
v 0.183735 -0.219136 -0.155047
v 0.021399 -0.239350 -0.174966
v -0.140913 -0.219457 -0.154842
v -0.140439 0.407919 -0.155325
v 0.021995 0.428290 -0.175573
v 0.184355 0.408473 -0.155677
v 0.336602 0.256028 -0.157310
v 0.351175 0.095374 -0.181034
v 0.087988 -0.042242 -0.479349
v 0.314223 -0.231175 0.307666
v 0.354742 -0.239350 0.158378
v 0.334821 -0.219136 -0.003961
v 0.314079 0.454514 -0.029298
v 0.355339 0.428290 0.157770
v 0.335094 0.407919 0.320209
v 0.334821 0.256397 0.471572
v 0.354742 0.093993 0.491722
v 0.306626 -0.084453 0.453900
v -0.097764 -0.244585 0.444282
v 0.021170 -0.239716 0.491955
v 0.139947 -0.244601 0.444111
v 0.188255 0.425860 0.460560
v 0.021399 0.427337 0.491722
v -0.145374 0.425299 0.460909
v -0.377493 -0.079284 0.331515
v -0.406369 0.093638 0.340783
v -0.377425 0.266607 0.331446
v -0.406522 -0.092599 0.148512
v -0.437880 0.093686 0.158574
v -0.427366 0.255084 0.148632
v -0.382746 -0.219804 -0.364020
v -0.409061 0.091032 -0.024981
v -0.557088 0.088775 -0.098616
v -0.045936 -0.068008 -0.378675
v -0.160587 0.094287 -0.269384
v -0.061123 0.302252 -0.482589
v 0.021579 -0.087897 -0.269351
v 0.021775 0.094594 -0.301091
v 0.021931 0.277023 -0.269709
v 0.087239 -0.067362 -0.381391
v 0.204081 0.094855 -0.269786
v 0.104747 0.302895 -0.483424
v 0.425665 -0.218364 -0.362905
v 0.452572 0.091779 -0.025791
v 0.600270 0.090174 -0.099217
v 0.449288 -0.092223 0.147437
v 0.480861 0.094594 0.157995
v 0.471006 0.255702 0.147761
v 0.420083 -0.078843 0.331234
v 0.449124 0.094282 0.340373
v 0.420369 0.267396 0.330943
v 0.194116 -0.079175 0.557204
v 0.203454 0.093796 0.586048
v 0.194259 0.266835 0.557059
v 0.021206 0.093686 0.617660
v 0.021275 0.275975 0.586048
v -0.151734 -0.079284 0.557274
v -0.161002 0.093638 0.586149
v -0.151666 0.266607 0.557204
v -0.151666 -0.304934 -0.014336
v 0.021275 -0.333748 -0.023675
v 0.194259 -0.304706 -0.014481
v -0.161002 -0.333907 0.158605
v 0.021206 -0.365400 0.158574
v 0.203454 -0.333748 0.158504
v -0.151734 -0.305042 0.331515
v 0.021176 -0.333907 0.340783
v 0.194116 -0.304934 0.331446
v 0.118053 0.659510 -0.104166
v 0.021931 0.522389 -0.024343
v -0.074793 0.657776 -0.103178
v 0.200760 0.529609 0.153961
v 0.021775 0.553680 0.157995
v -0.157385 0.528755 0.154476
v 0.229132 0.633500 0.246840
v 0.021746 0.538534 0.330361
v -0.186425 0.634852 0.246047
v -0.097793 -0.214137 0.370449
v 0.021141 -0.209268 0.418121
v 0.139918 -0.214152 0.370277
v 0.194087 -0.048727 0.483371
v 0.203425 0.124245 0.512215
v 0.021147 -0.058092 0.512316
v 0.021177 0.124134 0.543826
v -0.151763 -0.048835 0.483440
v -0.161031 0.124086 0.512316
v -0.302137 0.174771 0.481917
v 0.344782 0.175195 0.481647
v 0.198856 0.180316 0.571554
v 0.112330 0.093741 0.601854
v 0.107767 0.271405 0.571554
v 0.021241 0.184830 0.601854
v -0.069898 0.093662 0.601905
v -0.065195 0.271291 0.571626
v -0.156334 0.180123 0.571677
v 0.279098 0.093895 0.538885
v 0.264540 0.261616 0.514316
v -0.221883 0.261261 0.514542
v -0.236588 0.093633 0.539052
v -0.229236 0.177447 0.526797
v 0.271819 0.177755 0.526600
v -0.067547 0.182477 0.586765
v 0.110049 0.182573 0.586704
v 0.198832 0.153239 0.427098
v 0.194234 0.239758 0.412604
v -0.065220 0.244215 0.427171
v -0.151691 0.239531 0.412749
v -0.156359 0.153046 0.427221
v 0.264515 0.234540 0.369860
v -0.221908 0.234185 0.370087
v 0.107743 0.244328 0.427098
v -0.229260 0.150370 0.382342
v 0.271795 0.150679 0.382145
v -0.067571 0.155400 0.442310
v 0.110024 0.155496 0.442248
vn -0.9708 -0.1724 0.1665
vn -0.9826 0.0745 0.1700
vn -0.9983 -0.0466 -0.0347
vn -0.9863 0.0547 -0.1556
vn -0.1518 -0.6937 0.7041
vn -0.7000 -0.3254 0.6357
vn -0.8367 0.1681 0.5212
vn -0.7500 0.4448 0.4895
vn -0.8205 0.5390 0.1902
vn -0.7863 0.6178 -0.0030
vn -0.4794 0.5116 -0.7131
vn -0.8289 0.1556 -0.5373
vn -0.5067 0.5209 -0.6869
vn 0.3846 -0.9180 -0.0963
vn -0.8244 -0.5403 -0.1689
vn -0.7779 -0.5792 0.2436
vn 0.8393 -0.0940 -0.5354
vn -0.1692 0.1672 -0.9713
vn -0.8522 -0.0888 -0.5157
vn 0.1666 0.1670 -0.9718
vn -0.3841 -0.6808 -0.6236
vn 0.8505 0.5073 0.1389
vn -0.5063 0.1745 -0.8445
vn -0.6556 0.6576 -0.3712
vn 0.5678 0.8136 -0.1251
vn -0.5708 0.8119 -0.1229
vn 0.6550 0.6582 -0.3711
vn 0.5086 0.1708 -0.8439
vn -0.8442 0.5207 0.1271
vn 0.3818 -0.6841 -0.6215
vn 0.1676 -0.5216 -0.8366
vn -0.1676 -0.5213 -0.8368
vn 0.9982 -0.0497 -0.0339
vn 0.9870 0.0507 -0.1527
vn 0.9706 -0.1735 0.1669
vn 0.9707 0.1705 0.1692
vn -0.3783 -0.9205 -0.0977
vn 0.5078 0.5191 -0.6875
vn 0.8288 0.1546 -0.5378
vn 0.4797 0.5134 -0.7116
vn 0.7861 0.6180 -0.0028
vn 0.8203 0.5386 0.1924
vn 0.7496 0.4441 0.4907
vn 0.8364 0.1673 0.5219
vn 0.7019 -0.3237 0.6344
vn 0.1521 -0.6938 0.7040
vn 0.7785 -0.5786 0.2430
vn 0.8235 -0.5417 -0.1685
vn 0.9641 0.2457 0.1010
vn 0.1699 0.1699 0.9707
vn -0.9639 0.2460 0.1018
vn 0.0390 -0.9821 0.1841
vn 0.6935 -0.7193 -0.0406
vn 0.5217 -0.1677 0.8365
vn 0.9997 0.0249 -0.0048
vn 0.4845 0.4671 0.7396
vn 0.1678 0.5213 0.8367
vn -0.1680 0.5163 0.8398
vn -0.4895 0.4448 0.7500
vn -0.5213 0.1680 0.8367
vn -0.5030 -0.3087 0.8073
vn -0.6938 -0.7190 -0.0411
vn -0.0654 -0.9225 -0.3804
vn -0.1873 0.9081 0.3746
vn -0.1678 -0.9708 -0.1717
vn 0.1719 -0.9706 -0.1685
vn -0.1678 -0.9709 0.1711
vn 0.1717 -0.9708 0.1678
vn -0.4899 -0.7510 -0.4426
vn -0.1675 -0.8365 -0.5217
vn 0.1682 -0.8364 -0.5217
vn 0.4143 -0.7633 -0.4957
vn 0.5217 -0.8364 -0.1682
vn 0.5397 -0.8252 0.1666
vn 0.0847 0.8948 -0.4384
vn 0.1754 -0.8356 0.5206
vn -0.1673 -0.8333 0.5269
vn 0.3064 0.7061 0.6384
vn -0.5195 -0.8337 0.1872
vn -0.5213 -0.8366 -0.1681
vn -0.5359 0.6727 0.5102
vn -0.1326 0.9769 -0.1678
vn 0.0710 0.6540 -0.7532
vn 0.3915 0.9167 0.0806
vn 0.4509 0.5836 -0.6754
vn -0.6321 -0.0080 -0.7748
vn -0.1698 0.8367 -0.5207
vn -0.6029 0.3117 -0.7344
vn -0.6896 0.7114 0.1352
vn -0.8301 0.2164 -0.5140
vn -0.6334 0.4900 0.5989
vn -0.1141 0.8182 0.5636
vn -0.0521 0.7212 0.6907
vn 0.5180 0.7281 0.4489
vn 0.5372 0.8260 0.1705
vn 0.5482 0.8363 -0.0037
vn 0.1716 -0.1679 0.9708
vn -0.1711 -0.1679 0.9708
vn -0.3035 -0.5039 0.8087
vn 0.3049 -0.5037 0.8083
vn 0.9985 0.0501 0.0203
vn 0.1881 0.9080 0.3744
vn 0.0660 -0.9224 -0.3804
vn -0.9985 0.0504 0.0212
vn -0.5213 0.1681 0.8366
vn 0.0053 0.9829 -0.1842
vn 0.5214 0.1679 0.8366
vn 0.5214 0.1678 0.8366
vn 0.5214 0.1678 0.8367
vn -0.1679 0.1715 0.9708
vn -0.1680 0.1685 0.9713
vn -0.1695 0.1700 0.9708
vn 0.1684 0.1684 0.9712
vn 0.1683 0.1716 0.9707
vn -0.0211 -0.9827 0.1842
vn -0.1695 0.1716 0.9705
vn -0.5213 0.1681 0.8367
vn 0.1699 0.1716 0.9704
vn -0.0371 -0.9822 0.1841
vn -0.0064 0.9829 -0.1842
vn 0.9962 -0.0851 0.0158
vn 0.0225 -0.9826 0.1842
vn -0.9963 -0.0841 0.0159
vn -0.0788 0.9798 -0.1836
vn -0.9997 0.0257 -0.0046
vn 0.0771 0.9800 -0.1837
vn -0.9708 -0.1711 0.1679
vn -0.9528 0.1729 0.2494
vn -0.9761 -0.1562 -0.1510
vn -0.3059 -0.7079 0.6366
vn -0.6336 -0.5290 0.5646
vn -0.8367 -0.1677 0.5213
vn -0.8367 0.1680 0.5213
vn -0.8368 0.1680 0.5212
vn -0.7500 0.4898 0.4445
vn -0.8367 0.5214 0.1676
vn -0.8236 0.5577 -0.1034
vn -0.6529 0.4601 -0.6017
vn 0.3176 -0.7205 -0.6164
vn -0.7490 0.4584 -0.4784
vn 0.4243 -0.8962 -0.1294
vn -0.6311 -0.7592 0.1591
vn -0.8347 -0.5236 0.1705
vn -0.1514 0.4763 -0.8661
vn 0.6655 -0.6653 -0.3385
vn 0.1472 0.4865 -0.8612
vn -0.6655 -0.6653 -0.3384
vn 0.2729 -0.9346 -0.2282
vn -0.3855 0.6603 -0.6445
vn -0.7774 -0.2288 -0.5859
vn -0.4413 0.4483 -0.7774
vn -0.1696 0.5208 -0.8367
vn 0.1662 0.5210 -0.8372
vn 0.4392 0.4470 -0.7793
vn 0.7772 -0.2303 -0.5856
vn 0.3870 0.6586 -0.6453
vn -0.2541 -0.9364 -0.2421
vn -0.4000 -0.8310 -0.3867
vn 0.3941 -0.8301 -0.3944
vn 0.9765 -0.1567 -0.1479
vn 0.3083 -0.7077 0.6357
vn 0.9706 -0.1717 0.1686
vn 0.9623 0.0755 0.2612
vn -0.4215 -0.8968 -0.1342
vn 0.7500 0.4559 -0.4793
vn -0.3157 -0.7188 -0.6194
vn 0.6582 0.4594 -0.5964
vn 0.8235 0.5579 -0.1034
vn 0.8367 0.5207 0.1696
vn 0.7497 0.4890 0.4460
vn 0.8364 0.1674 0.5219
vn 0.8366 -0.1679 0.5214
vn 0.6351 -0.5285 0.5633
vn 0.8346 -0.5237 0.1707
vn 0.6319 -0.7587 0.1583
vn 0.1716 0.1683 0.9707
vn 0.5310 -0.5898 0.6084
vn 0.6499 -0.2429 0.7202
vn 0.5038 -0.3070 0.8074
vn 0.4894 0.4443 0.7504
vn 0.4573 0.4613 0.7603
vn 0.1680 0.5160 0.8399
vn 0.1613 0.5191 0.8394
vn -0.1678 0.5215 0.8366
vn -0.1614 0.5193 0.8392
vn -0.4847 0.4677 0.7391
vn -0.4574 0.4618 0.7600
vn -0.5212 0.1681 0.8367
vn -0.6512 -0.2438 0.7187
vn -0.5213 -0.1677 0.8367
vn -0.5318 -0.5893 0.6082
vn -0.1708 -0.9708 -0.1687
vn 0.1685 -0.9706 -0.1719
vn -0.1711 -0.9709 0.1678
vn 0.1687 -0.9708 0.1708
vn -0.4150 -0.7628 -0.4958
vn -0.1672 -0.8364 -0.5220
vn 0.1681 -0.8364 -0.5217
vn 0.4903 -0.7510 -0.4424
vn 0.5202 -0.8334 0.1868
vn -0.3064 0.7051 0.6395
vn 0.1680 -0.8331 0.5269
vn -0.1745 -0.8357 0.5207
vn -0.0842 0.8944 -0.4392
vn -0.5394 -0.8254 0.1667
vn -0.5211 -0.8367 -0.1683
vn 0.1277 0.9775 -0.1676
vn 0.5319 0.6766 0.5093
vn -0.3880 0.9181 0.0806
vn -0.0740 0.6399 -0.7649
vn 0.6046 0.3102 -0.7336
vn 0.1660 0.8373 -0.5209
vn 0.6292 -0.0031 -0.7773
vn -0.4527 0.5783 -0.6787
vn -0.5486 0.8361 -0.0015
vn -0.5378 0.8260 0.1688
vn -0.5180 0.7291 0.4473
vn 0.0528 0.7199 0.6920
vn 0.1126 0.8181 0.5640
vn 0.6323 0.4917 0.5987
vn 0.8319 0.2259 -0.5068
vn 0.6907 0.7102 0.1361
vn 0.1685 -0.1710 0.9708
vn -0.1678 -0.1711 0.9708
vn -0.1634 -0.5925 0.7888
vn 0.1641 -0.5928 0.7885
vn 0.0052 0.9829 -0.1842
vn 0.5213 0.1678 0.8367
vn -0.1710 0.1684 0.9708
vn -0.1711 0.1700 0.9705
vn 0.5213 0.1679 0.8367
vn 0.1716 0.1699 0.9704
vt 0.311447 0.904184
vt 0.255354 0.818535
vt 0.331428 0.831831
vt 0.238624 0.889565
vt 0.199946 0.800242
vt 0.268038 0.748604
vt 0.345597 0.688898
vt 0.313091 0.978741
vt 0.391673 0.919382
vt 0.495037 0.999532
vt 0.220351 0.969419
vt 0.180958 0.957685
vt 0.168246 0.868390
vt 0.088980 0.908695
vt 0.143308 0.941131
vt 0.115495 0.765046
vt 0.144214 0.670740
vt 0.237839 0.736807
vt 0.244306 0.678969
vt 0.277632 0.692151
vt 0.344776 0.677306
vt 0.413374 0.704581
vt 0.401537 0.772012
vt 0.402297 0.847043
vt 0.354975 0.668651
vt 0.331360 0.622862
vt 0.381046 0.645485
vt 0.307315 0.664015
vt 0.281641 0.599178
vt 0.380406 0.610911
vt 0.347147 0.578805
vt 0.416176 0.688454
vt 0.203591 0.615483
vt 0.271349 0.633130
vt 0.248144 0.527995
vt 0.301820 0.569943
vt 0.319100 0.524788
vt 0.349086 0.540090
vt 0.380120 0.597925
vt 0.446251 0.628724
vt 0.436473 0.642000
vt 0.422022 0.663394
vt 0.382310 0.499119
vt 0.477984 0.487808
vt 0.390076 0.590002
vt 0.374463 0.426055
vt 0.419317 0.447743
vt 0.511189 0.425280
vt 0.392803 0.363610
vt 0.450753 0.391491
vt 0.486011 0.573210
vt 0.268900 0.458500
vt 0.356419 0.485502
vt 0.307455 0.397885
vt 0.360696 0.281813
vt 0.419386 0.301482
vt 0.452174 0.314311
vt 0.483517 0.330847
vt 0.554853 0.370714
vt 0.585034 0.470640
vt 0.753848 0.442560
vt 0.534152 0.523165
vt 0.762743 0.146310
vt 0.658388 0.140531
vt 0.665714 0.107040
vt 0.444589 0.200662
vt 0.496042 0.168989
vt 0.486561 0.209042
vt 0.674625 0.355650
vt 0.601001 0.284931
vt 0.697499 0.319786
vt 0.428692 0.265219
vt 0.454529 0.242211
vt 0.455509 0.244515
vt 0.503096 0.297275
vt 0.525604 0.259911
vt 0.584149 0.311054
vt 0.455635 0.238320
vt 0.345626 0.222939
vt 0.426338 0.233300
vt 0.368641 0.136940
vt 0.455662 0.158115
vt 0.387040 0.050835
vt 0.465401 0.075460
vt 0.467102 0.114554
vt 0.423523 0.004173
vt 0.488332 0.000778
vt 0.483239 0.044668
vt 0.531563 0.050863
vt 0.534157 0.000468
vt 0.581327 0.053815
vt 0.585615 0.001356
vt 0.696330 0.031532
vt 0.877266 0.159355
vt 0.526070 0.216803
vt 0.566094 0.191051
vt 0.553019 0.247608
vt 0.796986 0.610592
vt 0.799375 0.558735
vt 0.828633 0.602337
vt 0.601129 0.751442
vt 0.640346 0.647035
vt 0.675086 0.725351
vt 0.531250 0.624972
vt 0.567417 0.687378
vt 0.787334 0.700556
vt 0.674768 0.492623
vt 0.713498 0.606451
vt 0.552490 0.820230
vt 0.622063 0.817787
vt 0.538803 0.781723
vt 0.471815 0.660865
vt 0.502608 0.722996
vt 0.593452 0.576186
vt 0.754046 0.533795
vt 0.774856 0.572449
vt 0.877266 0.664014
vt 0.753883 0.784821
vt 0.690058 0.805977
vt 0.155080 0.438553
vt 0.240875 0.375788
vt 0.211165 0.448070
vt 0.091163 0.341727
vt 0.169659 0.358407
vt 0.245041 0.334407
vt 0.112712 0.297685
vt 0.191017 0.280059
vt 0.223860 0.523646
vt 0.283297 0.502426
vt 0.072249 0.512226
vt 0.148464 0.520767
vt 0.006352 0.429013
vt 0.099599 0.433547
vt 0.022652 0.243355
vt 0.123668 0.174661
vt 0.221091 0.183381
vt 0.306760 0.231883
vt 0.331841 0.339451
vt 0.634381 0.216643
vt 0.752543 0.187748
vt 0.719388 0.251642
vt 0.576583 0.106486
vt 0.591950 0.136952
vt 0.548969 0.145262
vt 0.534954 0.093678
vt 0.499533 0.085869
vt 0.500823 0.082615
vt 0.489141 0.248970
vt 0.468068 0.278293
vt 0.534599 0.180751
vt 0.509643 0.129095
vt 0.496949 0.081164
vt 0.458210 0.242736
vt 0.456389 0.244729
vt 0.499115 0.079434
vt 0.500106 0.079697
vt 0.458616 0.239602
vt 0.495974 0.085526
vt 0.094832 0.845745
vt 0.201959 0.659472
vt 0.227611 0.572048
vt 0.002393 0.499149
vt 0.000468 0.321608
vt 0.048732 0.173236
vt 0.777541 0.511156
s 0
usemtl マテリアル
f 45/1/1 49/2/1 48/3/1
f 46/4/2 50/5/2 49/2/2
f 48/3/3 52/6/3 51/7/3
f 50/5/4 52/6/4 49/2/4
f 12/8/5 11/9/5 1/10/5
f 13/11/6 45/1/6 12/8/6
f 107/12/7 47/13/7 46/4/7
f 2/14/8 47/13/8 14/15/8
f 47/13/9 16/16/9 50/5/9
f 50/5/10 17/17/10 53/18/10
f 17/17/11 18/19/11 53/18/11
f 52/6/12 18/19/12 19/20/12
f 51/7/13 19/20/13 20/21/13
f 51/7/14 3/22/14 9/23/14
f 48/3/15 9/23/15 10/24/15
f 45/1/16 10/24/16 11/9/16
f 54/25/17 58/26/17 57/27/17
f 55/28/18 59/29/18 58/26/18
f 58/26/19 60/30/19 57/27/19
f 59/29/20 61/31/20 58/26/20
f 3/22/21 54/25/21 23/32/21
f 20/21/22 55/28/22 54/25/22
f 18/19/23 55/28/23 19/20/23
f 18/19/24 24/33/24 56/34/24
f 24/33/25 59/29/25 56/34/25
f 59/29/26 26/35/26 62/36/26
f 26/35/27 27/37/27 62/36/27
f 61/31/28 27/37/28 28/38/28
f 61/31/29 29/39/29 60/30/29
f 60/30/30 7/40/30 21/41/30
f 57/27/31 21/41/31 22/42/31
f 23/32/32 57/27/32 22/42/32
f 64/43/33 66/44/33 63/45/33
f 64/43/34 68/46/34 67/47/34
f 67/47/35 69/48/35 66/44/35
f 67/47/36 71/49/36 70/50/36
f 7/40/37 63/45/37 32/51/37
f 28/38/38 63/45/38 29/39/38
f 27/37/39 64/43/39 28/38/39
f 27/37/40 33/52/40 65/53/40
f 33/52/41 68/46/41 65/53/41
f 34/54/42 71/49/42 68/46/42
f 71/49/43 6/55/43 36/56/43
f 71/49/44 36/56/44 108/57/44
f 69/48/45 37/58/45 38/59/45
f 30/60/46 38/59/46 5/61/46
f 31/62/47 69/48/47 30/60/47
f 32/51/48 66/44/48 31/62/48
f 39/63/49 105/64/49 77/65/49
f 111/66/50 112/67/50 123/68/50
f 41/69/51 101/70/51 100/71/51
f 117/72/52 125/73/52 129/74/52
f 38/59/53 41/69/53 5/61/53
f 116/75/54 73/76/54 72/77/54
f 123/68/55 131/78/55 111/66/55
f 42/79/56 74/80/56 117/72/56
f 43/81/57 76/82/57 111/66/57
f 44/83/58 79/84/58 114/85/58
f 2/86/59 14/87/59 118/88/59
f 120/89/60 14/87/60 107/90/60
f 119/91/61 13/92/61 12/93/61
f 39/63/62 12/93/62 1/94/62
f 110/95/63 104/96/63 102/97/63
f 39/98/64 99/99/64 98/100/64
f 80/101/65 84/102/65 83/103/65
f 82/104/66 84/102/66 81/105/66
f 84/102/67 86/106/67 83/103/67
f 84/102/68 88/107/68 87/108/68
f 3/109/69 80/101/69 9/110/69
f 23/111/70 81/105/70 80/101/70
f 21/112/71 81/105/71 22/113/71
f 7/40/72 82/104/72 21/112/72
f 32/51/73 85/114/73 82/104/73
f 85/114/74 30/60/74 88/107/74
f 88/107/75 5/61/75 41/115/75
f 87/108/76 41/115/76 40/116/76
f 87/108/77 39/98/77 86/106/77
f 86/106/78 1/117/78 11/118/78
f 83/103/79 11/118/79 10/119/79
f 9/110/80 83/103/80 10/119/80
f 90/120/81 92/121/81 89/122/81
f 90/120/82 94/123/82 93/124/82
f 93/124/83 95/125/83 92/121/83
f 93/124/84 97/126/84 96/127/84
f 26/128/85 33/52/85 8/129/85
f 26/128/86 90/120/86 89/122/86
f 24/130/87 90/120/87 25/131/87
f 24/130/88 17/132/88 91/133/88
f 17/132/89 94/123/89 91/133/89
f 94/123/90 15/134/90 97/126/90
f 15/134/91 44/135/91 97/126/91
f 96/127/92 44/135/92 43/136/92
f 96/127/93 42/137/93 95/125/93
f 35/138/94 42/137/94 6/55/94
f 92/121/95 35/138/95 34/54/95
f 33/52/96 92/121/96 34/54/96
f 101/70/97 104/96/97 103/139/97
f 104/96/98 105/64/98 103/139/98
f 103/139/99 98/140/99 99/141/99
f 100/71/100 103/139/100 99/141/100
f 78/142/101 105/64/101 106/143/101
f 41/115/102 99/99/102 40/116/102
f 113/144/103 106/143/103 104/96/103
f 73/76/104 101/70/104 72/77/104
f 119/91/60 107/90/60 13/92/60
f 115/145/105 119/91/105 78/142/105
f 115/145/106 134/146/106 128/147/106
f 116/75/107 109/148/107 73/76/107
f 108/57/108 116/75/108 37/58/108
f 36/56/109 121/149/109 108/57/109
f 113/144/110 115/145/110 78/142/110
f 112/67/111 113/144/111 75/150/111
f 112/67/112 114/85/112 122/151/112
f 110/95/113 112/67/113 75/150/113
f 109/148/114 110/95/114 73/76/114
f 74/80/115 131/78/115 125/73/115
f 134/146/116 127/152/116 128/147/116
f 129/74/109 124/153/109 133/154/109
f 128/147/117 130/155/117 132/156/117
f 125/73/118 135/157/118 124/153/118
f 118/88/119 127/152/119 79/84/119
f 109/148/120 135/157/120 123/68/120
f 120/89/121 130/155/121 118/88/121
f 79/84/122 126/158/122 114/85/122
f 121/149/123 129/74/123 133/154/123
f 121/149/124 124/153/124 109/148/124
f 122/151/125 126/158/125 134/146/125
f 120/89/126 128/147/126 132/156/126
f 45/1/127 46/4/127 49/2/127
f 46/4/128 47/13/128 50/5/128
f 48/3/129 49/2/129 52/6/129
f 50/5/130 53/18/130 52/6/130
f 12/8/131 45/1/131 11/9/131
f 13/11/132 46/4/132 45/1/132
f 46/4/133 13/11/133 107/12/133
f 107/12/134 14/15/134 47/13/134
f 2/14/135 15/159/135 47/13/135
f 47/13/136 15/159/136 16/16/136
f 50/5/137 16/16/137 17/17/137
f 17/17/138 4/160/138 18/19/138
f 52/6/139 53/18/139 18/19/139
f 51/7/140 52/6/140 19/20/140
f 51/7/141 20/21/141 3/22/141
f 48/3/142 51/7/142 9/23/142
f 45/1/143 48/3/143 10/24/143
f 54/25/144 55/28/144 58/26/144
f 55/28/145 56/34/145 59/29/145
f 58/26/146 61/31/146 60/30/146
f 59/29/147 62/36/147 61/31/147
f 3/22/148 20/21/148 54/25/148
f 20/21/149 19/20/149 55/28/149
f 18/19/150 56/34/150 55/28/150
f 18/19/151 4/160/151 24/33/151
f 24/33/152 25/161/152 59/29/152
f 59/29/153 25/161/153 26/35/153
f 26/35/154 8/129/154 27/37/154
f 61/31/155 62/36/155 27/37/155
f 61/31/156 28/38/156 29/39/156
f 60/30/157 29/39/157 7/40/157
f 57/27/158 60/30/158 21/41/158
f 23/32/159 54/25/159 57/27/159
f 64/43/160 67/47/160 66/44/160
f 64/43/161 65/53/161 68/46/161
f 67/47/162 70/50/162 69/48/162
f 67/47/163 68/46/163 71/49/163
f 7/40/164 29/39/164 63/45/164
f 28/38/165 64/43/165 63/45/165
f 27/37/166 65/53/166 64/43/166
f 27/37/167 8/129/167 33/52/167
f 33/52/168 34/54/168 68/46/168
f 34/54/169 35/138/169 71/49/169
f 71/49/170 35/138/170 6/55/170
f 37/58/44 70/50/44 108/57/44
f 70/50/171 71/49/171 108/57/171
f 69/48/172 70/50/172 37/58/172
f 30/60/173 69/48/173 38/59/173
f 31/62/174 66/44/174 69/48/174
f 32/51/175 63/45/175 66/44/175
f 39/63/49 98/140/49 105/64/49
f 111/66/176 76/82/176 112/67/176
f 41/69/51 72/77/51 101/70/51
f 117/72/52 74/80/52 125/73/52
f 38/59/177 72/77/177 41/69/177
f 72/77/178 38/59/178 116/75/178
f 38/59/179 37/58/179 116/75/179
f 123/68/55 135/157/55 131/78/55
f 117/72/180 36/56/180 6/55/180
f 6/55/181 42/79/181 117/72/181
f 111/66/182 74/80/182 42/79/182
f 42/79/183 43/81/183 111/66/183
f 114/85/184 76/82/184 43/81/184
f 43/81/185 44/83/185 114/85/185
f 118/88/186 79/84/186 44/83/186
f 44/83/187 2/86/187 118/88/187
f 120/89/188 118/88/188 14/87/188
f 12/93/189 77/65/189 119/91/189
f 77/65/190 78/142/190 119/91/190
f 39/63/191 77/65/191 12/93/191
f 102/97/63 73/76/63 110/95/63
f 110/95/63 75/150/63 104/96/63
f 39/98/64 40/116/64 99/99/64
f 80/101/192 81/105/192 84/102/192
f 82/104/193 85/114/193 84/102/193
f 84/102/194 87/108/194 86/106/194
f 84/102/195 85/114/195 88/107/195
f 3/109/196 23/111/196 80/101/196
f 23/111/197 22/113/197 81/105/197
f 21/112/198 82/104/198 81/105/198
f 7/40/199 32/51/199 82/104/199
f 32/51/73 31/62/73 85/114/73
f 85/114/200 31/62/200 30/60/200
f 88/107/201 30/60/201 5/61/201
f 87/108/202 88/107/202 41/115/202
f 87/108/203 40/116/203 39/98/203
f 86/106/204 39/98/204 1/117/204
f 83/103/205 86/106/205 11/118/205
f 9/110/206 80/101/206 83/103/206
f 90/120/207 93/124/207 92/121/207
f 90/120/208 91/133/208 94/123/208
f 93/124/209 96/127/209 95/125/209
f 93/124/210 94/123/210 97/126/210
f 26/128/211 89/122/211 33/52/211
f 26/128/212 25/131/212 90/120/212
f 24/130/213 91/133/213 90/120/213
f 24/130/214 4/162/214 17/132/214
f 17/132/215 16/163/215 94/123/215
f 94/123/216 16/163/216 15/134/216
f 15/134/217 2/164/217 44/135/217
f 96/127/218 97/126/218 44/135/218
f 96/127/219 43/136/219 42/137/219
f 35/138/220 95/125/220 42/137/220
f 92/121/221 95/125/221 35/138/221
f 33/52/222 89/122/222 92/121/222
f 101/70/223 102/97/223 104/96/223
f 104/96/224 106/143/224 105/64/224
f 103/139/225 105/64/225 98/140/225
f 100/71/226 101/70/226 103/139/226
f 78/142/101 77/65/101 105/64/101
f 41/115/102 100/165/102 99/99/102
f 104/96/103 75/150/103 113/144/103
f 113/144/103 78/142/103 106/143/103
f 73/76/104 102/97/104 101/70/104
f 119/91/117 120/89/117 107/90/117
f 115/145/117 120/89/117 119/91/117
f 115/145/227 122/151/227 134/146/227
f 116/75/109 121/149/109 109/148/109
f 108/57/109 121/149/109 116/75/109
f 36/56/228 117/72/228 121/149/228
f 113/144/112 122/151/112 115/145/112
f 112/67/112 122/151/112 113/144/112
f 112/67/229 76/82/229 114/85/229
f 110/95/50 123/68/50 112/67/50
f 109/148/50 123/68/50 110/95/50
f 74/80/115 111/66/115 131/78/115
f 134/146/230 126/158/230 127/152/230
f 129/74/231 125/73/231 124/153/231
f 128/147/188 127/152/188 130/155/188
f 125/73/232 131/78/232 135/157/232
f 118/88/119 130/155/119 127/152/119
f 109/148/120 124/153/120 135/157/120
f 120/89/121 132/156/121 130/155/121
f 79/84/122 127/152/122 126/158/122
f 121/149/123 117/72/123 129/74/123
f 121/149/124 133/154/124 124/153/124
f 122/151/125 114/85/125 126/158/125
f 120/89/126 115/145/126 128/147/126
