# Blender 4.1.1
# www.blender.org
mtllib sky.mtl
o 球
v 0.000000 0.831470 0.555570
v 0.000000 0.555570 0.831470
v 0.000000 0.195090 0.980785
v 0.000000 0.000000 1.000000
v 0.000000 -0.195090 0.980785
v 0.000000 -0.555570 0.831470
v 0.038060 0.980785 0.191342
v 0.074658 0.923880 0.375330
v 0.108386 0.831470 0.544895
v 0.137950 0.707107 0.693520
v 0.162212 0.555570 0.815493
v 0.180240 0.382683 0.906127
v 0.191342 0.195090 0.961940
v 0.195090 0.000000 0.980785
v 0.191342 -0.195090 0.961940
v 0.180240 -0.382683 0.906127
v 0.162212 -0.555570 0.815493
v 0.137950 -0.707107 0.693520
v 0.108386 -0.831470 0.544895
v 0.074658 -0.923880 0.375330
v 0.038060 -0.980785 0.191342
v 0.074658 0.980785 0.180240
v 0.146447 0.923880 0.353553
v 0.212608 0.831470 0.513280
v 0.270598 0.707107 0.653281
v 0.318190 0.555570 0.768178
v 0.353553 0.382683 0.853553
v 0.375330 0.195090 0.906127
v 0.382683 0.000000 0.923879
v 0.375330 -0.195090 0.906127
v 0.353553 -0.382683 0.853553
v 0.318190 -0.555570 0.768178
v 0.270598 -0.707107 0.653281
v 0.212608 -0.831470 0.513280
v 0.146447 -0.923880 0.353553
v 0.074658 -0.980785 0.180240
v 0.108386 0.980785 0.162212
v 0.212608 0.923880 0.318190
v 0.308658 0.831470 0.461940
v 0.392847 0.707107 0.587938
v 0.461940 0.555570 0.691342
v 0.513280 0.382683 0.768178
v 0.544895 0.195090 0.815493
v 0.555570 0.000000 0.831469
v 0.544895 -0.195090 0.815493
v 0.513280 -0.382683 0.768178
v 0.461940 -0.555570 0.691342
v 0.392847 -0.707107 0.587938
v 0.308658 -0.831470 0.461940
v 0.212608 -0.923880 0.318190
v 0.108386 -0.980785 0.162212
v 0.137950 0.980785 0.137950
v 0.270598 0.923880 0.270598
v 0.392847 0.831470 0.392847
v 0.500000 0.707107 0.500000
v 0.587938 0.555570 0.587938
v 0.653281 0.382683 0.653281
v 0.693520 0.195090 0.693520
v 0.707107 0.000000 0.707107
v 0.693520 -0.195090 0.693520
v 0.653281 -0.382683 0.653281
v 0.587938 -0.555570 0.587938
v 0.500000 -0.707107 0.500000
v 0.392847 -0.831470 0.392847
v 0.270598 -0.923880 0.270598
v 0.137950 -0.980785 0.137950
v 0.162212 0.980785 0.108386
v 0.318190 0.923880 0.212608
v 0.461940 0.831470 0.308658
v 0.587938 0.707107 0.392847
v 0.691342 0.555570 0.461940
v 0.768178 0.382683 0.513280
v 0.815493 0.195090 0.544895
v 0.831470 0.000000 0.555570
v 0.815493 -0.195090 0.544895
v 0.768178 -0.382683 0.513280
v 0.691342 -0.555570 0.461940
v 0.587938 -0.707107 0.392847
v 0.461940 -0.831470 0.308658
v 0.318190 -0.923880 0.212608
v 0.162212 -0.980785 0.108386
v 0.000000 1.000000 0.000000
v 0.180240 0.980785 0.074658
v 0.353553 0.923880 0.146447
v 0.513280 0.831470 0.212607
v 0.653281 0.707107 0.270598
v 0.768178 0.555570 0.318190
v 0.853553 0.382683 0.353553
v 0.906127 0.195090 0.375330
v 0.923879 0.000000 0.382683
v 0.906127 -0.195090 0.375330
v 0.853553 -0.382683 0.353553
v 0.768178 -0.555570 0.318190
v 0.653281 -0.707107 0.270598
v 0.513280 -0.831470 0.212607
v 0.353553 -0.923880 0.146447
v 0.180240 -0.980785 0.074658
v 0.191342 0.980785 0.038060
v 0.375330 0.923880 0.074658
v 0.544895 0.831470 0.108386
v 0.693520 0.707107 0.137950
v 0.815493 0.555570 0.162212
v 0.906127 0.382683 0.180240
v 0.961940 0.195090 0.191342
v 0.980785 0.000000 0.195090
v 0.961940 -0.195090 0.191342
v 0.906127 -0.382683 0.180240
v 0.815493 -0.555570 0.162212
v 0.693520 -0.707107 0.137950
v 0.544895 -0.831470 0.108386
v 0.375330 -0.923880 0.074658
v 0.191342 -0.980785 0.038060
v 0.195090 0.980785 -0.000000
v 0.382683 0.923880 -0.000000
v 0.555570 0.831470 -0.000000
v 0.707107 0.707107 0.000000
v 0.831469 0.555570 -0.000000
v 0.923879 0.382683 0.000000
v 0.980785 0.195090 -0.000000
v 1.000000 0.000000 -0.000000
v 0.980785 -0.195090 -0.000000
v 0.923879 -0.382683 0.000000
v 0.831469 -0.555570 -0.000000
v 0.707107 -0.707107 0.000000
v 0.555570 -0.831470 -0.000000
v 0.382683 -0.923880 -0.000000
v 0.195090 -0.980785 -0.000000
v 0.191342 0.980785 -0.038060
v 0.375330 0.923880 -0.074658
v 0.544895 0.831470 -0.108386
v 0.693520 0.707107 -0.137950
v 0.815493 0.555570 -0.162212
v 0.906127 0.382683 -0.180240
v 0.961940 0.195090 -0.191342
v 0.980785 0.000000 -0.195090
v 0.961940 -0.195090 -0.191342
v 0.906127 -0.382683 -0.180240
v 0.815493 -0.555570 -0.162212
v 0.693520 -0.707107 -0.137950
v 0.544895 -0.831470 -0.108386
v 0.375330 -0.923880 -0.074658
v 0.191342 -0.980785 -0.038060
v 0.180240 0.980785 -0.074658
v 0.353553 0.923880 -0.146447
v 0.513280 0.831470 -0.212608
v 0.653281 0.707107 -0.270598
v 0.768178 0.555570 -0.318190
v 0.853553 0.382683 -0.353553
v 0.906127 0.195090 -0.375330
v 0.923879 0.000000 -0.382683
v 0.906127 -0.195090 -0.375330
v 0.853553 -0.382683 -0.353553
v 0.768178 -0.555570 -0.318190
v 0.653281 -0.707107 -0.270598
v 0.513280 -0.831470 -0.212608
v 0.353553 -0.923880 -0.146447
v 0.180240 -0.980785 -0.074658
v 0.162212 0.980785 -0.108386
v 0.318190 0.923880 -0.212608
v 0.461940 0.831470 -0.308658
v 0.587938 0.707107 -0.392847
v 0.691341 0.555570 -0.461940
v 0.768178 0.382683 -0.513280
v 0.815493 0.195090 -0.544895
v 0.831469 0.000000 -0.555570
v 0.815493 -0.195090 -0.544895
v 0.768178 -0.382683 -0.513280
v 0.691341 -0.555570 -0.461940
v 0.587938 -0.707107 -0.392847
v 0.461940 -0.831470 -0.308658
v 0.318190 -0.923880 -0.212608
v 0.162212 -0.980785 -0.108386
v 0.137950 0.980785 -0.137950
v 0.270598 0.923880 -0.270598
v 0.392847 0.831470 -0.392847
v 0.500000 0.707107 -0.500000
v 0.587938 0.555570 -0.587938
v 0.653281 0.382683 -0.653281
v 0.693520 0.195090 -0.693520
v 0.707106 0.000000 -0.707107
v 0.693520 -0.195090 -0.693520
v 0.653281 -0.382683 -0.653281
v 0.587938 -0.555570 -0.587938
v 0.500000 -0.707107 -0.500000
v 0.392847 -0.831470 -0.392847
v 0.270598 -0.923880 -0.270598
v 0.137950 -0.980785 -0.137950
v 0.108386 0.980785 -0.162212
v 0.212607 0.923880 -0.318190
v 0.308658 0.831470 -0.461940
v 0.392847 0.707107 -0.587938
v 0.461940 0.555570 -0.691342
v 0.513280 0.382683 -0.768178
v 0.544895 0.195090 -0.815493
v 0.555570 0.000000 -0.831469
v 0.544895 -0.195090 -0.815493
v 0.513280 -0.382683 -0.768178
v 0.461940 -0.555570 -0.691342
v 0.392847 -0.707107 -0.587938
v 0.308658 -0.831470 -0.461940
v 0.212607 -0.923880 -0.318190
v 0.108386 -0.980785 -0.162212
v 0.074658 0.980785 -0.180240
v 0.146447 0.923880 -0.353553
v 0.212607 0.831470 -0.513280
v 0.270598 0.707107 -0.653281
v 0.318189 0.555570 -0.768178
v 0.353553 0.382683 -0.853553
v 0.375330 0.195090 -0.906127
v 0.382683 0.000000 -0.923879
v 0.375330 -0.195090 -0.906127
v 0.353553 -0.382683 -0.853553
v 0.318189 -0.555570 -0.768178
v 0.270598 -0.707107 -0.653281
v 0.212607 -0.831470 -0.513280
v 0.146447 -0.923880 -0.353553
v 0.074658 -0.980785 -0.180240
v 0.038060 0.980785 -0.191342
v 0.074658 0.923880 -0.375330
v 0.108386 0.831470 -0.544895
v 0.137950 0.707107 -0.693520
v 0.162212 0.555570 -0.815493
v 0.180240 0.382683 -0.906127
v 0.191342 0.195090 -0.961939
v 0.195090 0.000000 -0.980785
v 0.191342 -0.195090 -0.961939
v 0.180240 -0.382683 -0.906127
v 0.162212 -0.555570 -0.815493
v 0.137950 -0.707107 -0.693520
v 0.108386 -0.831470 -0.544895
v 0.074658 -0.923880 -0.375330
v 0.038060 -0.980785 -0.191342
v -0.000000 0.980785 -0.195090
v -0.000000 0.923880 -0.382683
v -0.000000 0.831470 -0.555570
v -0.000000 0.707107 -0.707107
v -0.000000 0.555570 -0.831469
v 0.000000 0.382683 -0.923879
v -0.000000 0.195090 -0.980785
v -0.000000 0.000000 -0.999999
v -0.000000 -0.195090 -0.980785
v 0.000000 -0.382683 -0.923879
v -0.000000 -0.555570 -0.831469
v -0.000000 -0.707107 -0.707107
v -0.000000 -0.831470 -0.555570
v -0.000000 -0.923880 -0.382683
v -0.000000 -0.980785 -0.195090
v -0.038060 0.980785 -0.191342
v -0.074658 0.923880 -0.375330
v -0.108386 0.831470 -0.544895
v -0.137950 0.707107 -0.693520
v -0.162212 0.555570 -0.815493
v -0.180240 0.382683 -0.906127
v -0.191342 0.195090 -0.961939
v -0.195091 0.000000 -0.980785
v -0.191342 -0.195090 -0.961939
v -0.180240 -0.382683 -0.906127
v -0.162212 -0.555570 -0.815493
v -0.137950 -0.707107 -0.693520
v -0.108386 -0.831470 -0.544895
v -0.074658 -0.923880 -0.375330
v -0.038060 -0.980785 -0.191342
v -0.074658 0.980785 -0.180240
v -0.146447 0.923880 -0.353553
v -0.212608 0.831470 -0.513280
v -0.270598 0.707107 -0.653281
v -0.318190 0.555570 -0.768177
v -0.353553 0.382683 -0.853553
v -0.375330 0.195090 -0.906127
v -0.382683 0.000000 -0.923879
v -0.375330 -0.195090 -0.906127
v -0.353553 -0.382683 -0.853553
v -0.318190 -0.555570 -0.768177
v -0.270598 -0.707107 -0.653281
v -0.212608 -0.831470 -0.513280
v -0.146447 -0.923880 -0.353553
v -0.074658 -0.980785 -0.180240
v -0.108386 0.980785 -0.162212
v -0.212608 0.923880 -0.318190
v -0.308658 0.831470 -0.461939
v -0.392847 0.707107 -0.587938
v -0.461940 0.555570 -0.691341
v -0.513280 0.382683 -0.768178
v -0.544895 0.195090 -0.815493
v -0.555570 0.000000 -0.831469
v -0.544895 -0.195090 -0.815493
v -0.513280 -0.382683 -0.768178
v -0.461940 -0.555570 -0.691341
v -0.392847 -0.707107 -0.587938
v -0.308658 -0.831470 -0.461939
v -0.212608 -0.923880 -0.318190
v -0.108386 -0.980785 -0.162212
v -0.137950 0.980785 -0.137950
v -0.270598 0.923880 -0.270598
v -0.392847 0.831470 -0.392847
v -0.500000 0.707107 -0.500000
v -0.587938 0.555570 -0.587937
v -0.653281 0.382683 -0.653281
v -0.693520 0.195090 -0.693520
v -0.707106 0.000000 -0.707106
v -0.693520 -0.195090 -0.693520
v -0.653281 -0.382683 -0.653281
v -0.587938 -0.555570 -0.587937
v -0.500000 -0.707107 -0.500000
v -0.392847 -0.831470 -0.392847
v -0.270598 -0.923880 -0.270598
v -0.137950 -0.980785 -0.137950
v 0.000000 -1.000000 0.000000
v -0.162212 0.980785 -0.108386
v -0.318190 0.923880 -0.212607
v -0.461940 0.831470 -0.308658
v -0.587938 0.707107 -0.392847
v -0.691341 0.555570 -0.461939
v -0.768177 0.382683 -0.513280
v -0.815493 0.195090 -0.544895
v -0.831469 0.000000 -0.555569
v -0.815493 -0.195090 -0.544895
v -0.768177 -0.382683 -0.513280
v -0.691341 -0.555570 -0.461939
v -0.587938 -0.707107 -0.392847
v -0.461940 -0.831470 -0.308658
v -0.318190 -0.923880 -0.212607
v -0.162212 -0.980785 -0.108386
v -0.180240 0.980785 -0.074658
v -0.353553 0.923880 -0.146447
v -0.513280 0.831470 -0.212607
v -0.653281 0.707107 -0.270598
v -0.768177 0.555570 -0.318189
v -0.853553 0.382683 -0.353553
v -0.906127 0.195090 -0.375330
v -0.923879 0.000000 -0.382683
v -0.906127 -0.195090 -0.375330
v -0.853553 -0.382683 -0.353553
v -0.768177 -0.555570 -0.318189
v -0.653281 -0.707107 -0.270598
v -0.513280 -0.831470 -0.212607
v -0.353553 -0.923880 -0.146447
v -0.180240 -0.980785 -0.074658
v -0.191342 0.980785 -0.038060
v -0.375330 0.923880 -0.074658
v -0.544895 0.831470 -0.108386
v -0.693520 0.707107 -0.137950
v -0.815493 0.555570 -0.162211
v -0.906127 0.382683 -0.180240
v -0.961939 0.195090 -0.191341
v -0.980784 0.000000 -0.195090
v -0.961939 -0.195090 -0.191341
v -0.906127 -0.382683 -0.180240
v -0.815493 -0.555570 -0.162211
v -0.693520 -0.707107 -0.137950
v -0.544895 -0.831470 -0.108386
v -0.375330 -0.923880 -0.074658
v -0.191342 -0.980785 -0.038060
v -0.195090 0.980785 0.000000
v -0.382683 0.923880 0.000000
v -0.555570 0.831470 0.000000
v -0.707107 0.707107 0.000000
v -0.831469 0.555570 0.000000
v -0.923879 0.382683 0.000000
v -0.980785 0.195090 0.000000
v -0.999999 0.000000 0.000000
v -0.980785 -0.195090 0.000000
v -0.923879 -0.382683 0.000000
v -0.831469 -0.555570 0.000000
v -0.707107 -0.707107 0.000000
v -0.555570 -0.831470 0.000000
v -0.382683 -0.923880 0.000000
v -0.195090 -0.980785 0.000000
v -0.191342 0.980785 0.038060
v -0.375330 0.923880 0.074658
v -0.544895 0.831470 0.108386
v -0.693520 0.707107 0.137950
v -0.815493 0.555570 0.162212
v -0.906127 0.382683 0.180240
v -0.961939 0.195090 0.191342
v -0.980784 0.000000 0.195091
v -0.961939 -0.195090 0.191342
v -0.906127 -0.382683 0.180240
v -0.815493 -0.555570 0.162212
v -0.693520 -0.707107 0.137950
v -0.544895 -0.831470 0.108386
v -0.375330 -0.923880 0.074658
v -0.191342 -0.980785 0.038060
v -0.180240 0.980785 0.074658
v -0.353553 0.923880 0.146447
v -0.513279 0.831470 0.212607
v -0.653281 0.707107 0.270598
v -0.768177 0.555570 0.318190
v -0.853553 0.382683 0.353553
v -0.906127 0.195090 0.375330
v -0.923878 0.000000 0.382683
v -0.906127 -0.195090 0.375330
v -0.853553 -0.382683 0.353553
v -0.768177 -0.555570 0.318190
v -0.653281 -0.707107 0.270598
v -0.513279 -0.831470 0.212607
v -0.353553 -0.923880 0.146447
v -0.180240 -0.980785 0.074658
v -0.162212 0.980785 0.108386
v -0.318189 0.923880 0.212607
v -0.461939 0.831470 0.308658
v -0.587938 0.707107 0.392847
v -0.691341 0.555570 0.461940
v -0.768177 0.382683 0.513280
v -0.815493 0.195090 0.544895
v -0.831468 0.000000 0.555570
v -0.815493 -0.195090 0.544895
v -0.768177 -0.382683 0.513280
v -0.691341 -0.555570 0.461940
v -0.587938 -0.707107 0.392847
v -0.461939 -0.831470 0.308658
v -0.318189 -0.923880 0.212607
v -0.162212 -0.980785 0.108386
v -0.137950 0.980785 0.137950
v -0.270598 0.923880 0.270598
v -0.392847 0.831470 0.392847
v -0.500000 0.707107 0.500000
v -0.587937 0.555570 0.587938
v -0.653281 0.382683 0.653281
v -0.693519 0.195090 0.693520
v -0.707106 0.000000 0.707106
v -0.693519 -0.195090 0.693520
v -0.653281 -0.382683 0.653281
v -0.587937 -0.555570 0.587938
v -0.500000 -0.707107 0.500000
v -0.392847 -0.831470 0.392847
v -0.270598 -0.923880 0.270598
v -0.137950 -0.980785 0.137950
v -0.108386 0.980785 0.162212
v -0.212607 0.923880 0.318190
v -0.308658 0.831470 0.461939
v -0.392847 0.707107 0.587938
v -0.461939 0.555570 0.691341
v -0.513280 0.382683 0.768177
v -0.544895 0.195090 0.815493
v -0.555569 0.000000 0.831469
v -0.544895 -0.195090 0.815493
v -0.513280 -0.382683 0.768177
v -0.461939 -0.555570 0.691341
v -0.392847 -0.707107 0.587938
v -0.308658 -0.831470 0.461939
v -0.212607 -0.923880 0.318190
v -0.108386 -0.980785 0.162212
v -0.074658 0.980785 0.180240
v -0.146446 0.923880 0.353553
v -0.212607 0.831470 0.513279
v -0.270598 0.707107 0.653281
v -0.318189 0.555570 0.768177
v -0.353553 0.382683 0.853553
v -0.375330 0.195090 0.906127
v -0.382683 0.000000 0.923879
v -0.375330 -0.195090 0.906127
v -0.353553 -0.382683 0.853553
v -0.318189 -0.555570 0.768177
v -0.270598 -0.707107 0.653281
v -0.212607 -0.831470 0.513279
v -0.146446 -0.923880 0.353553
v -0.074658 -0.980785 0.180240
v -0.038060 0.980785 0.191342
v -0.074658 0.923880 0.375330
v -0.108386 0.831470 0.544895
v -0.137950 0.707107 0.693520
v -0.162211 0.555570 0.815493
v -0.180240 0.382683 0.906127
v -0.191341 0.195090 0.961939
v -0.195090 0.000000 0.980784
v -0.191341 -0.195090 0.961939
v -0.180240 -0.382683 0.906127
v -0.162211 -0.555570 0.815493
v -0.137950 -0.707107 0.693520
v -0.108386 -0.831470 0.544895
v -0.074658 -0.923880 0.375330
v -0.038060 -0.980785 0.191342
v 0.000000 0.980785 0.195090
v 0.000000 0.923880 0.382683
v 0.000000 0.707107 0.707107
v 0.000000 0.382683 0.923879
v 0.000000 -0.382683 0.923879
v 0.000000 -0.707107 0.707107
v 0.000000 -0.831470 0.555570
v 0.000000 -0.923880 0.382683
v 0.000000 -0.980785 0.195090
vn -0.0464 0.8810 -0.4709
vn -0.0938 -0.2890 -0.9527
vn -0.0286 0.9565 -0.2902
vn -0.0975 -0.0975 -0.9904
vn -0.0097 -0.9951 -0.0980
vn -0.0097 0.9951 -0.0980
vn -0.0975 0.0975 -0.9904
vn -0.0286 -0.9565 -0.2902
vn -0.0938 0.2890 -0.9527
vn -0.0464 -0.8810 -0.4709
vn -0.0865 0.4696 -0.8786
vn -0.0624 -0.7715 -0.6332
vn -0.0759 0.6326 -0.7708
vn -0.0759 -0.6326 -0.7708
vn -0.0624 0.7715 -0.6332
vn -0.0865 -0.4696 -0.8786
vn -0.2248 -0.6326 -0.7412
vn -0.1847 0.7715 -0.6088
vn -0.2563 -0.4696 -0.8448
vn -0.1374 0.8810 -0.4528
vn -0.2779 -0.2890 -0.9161
vn -0.0846 0.9565 -0.2790
vn -0.2889 -0.0976 -0.9524
vn -0.0286 -0.9951 -0.0942
vn -0.0286 0.9951 -0.0942
vn -0.2889 0.0976 -0.9524
vn -0.0846 -0.9565 -0.2790
vn -0.2779 0.2890 -0.9161
vn -0.1374 -0.8810 -0.4528
vn -0.2563 0.4696 -0.8448
vn -0.1847 -0.7715 -0.6088
vn -0.2248 0.6326 -0.7412
vn -0.4691 0.0975 -0.8777
vn -0.1374 -0.9565 -0.2571
vn -0.4513 0.2890 -0.8443
vn -0.2230 -0.8810 -0.4173
vn -0.4162 0.4696 -0.7786
vn -0.2999 -0.7715 -0.5611
vn -0.3651 0.6326 -0.6831
vn -0.3651 -0.6326 -0.6831
vn -0.2999 0.7715 -0.5611
vn -0.4162 -0.4696 -0.7786
vn -0.2230 0.8810 -0.4173
vn -0.4513 -0.2890 -0.8443
vn -0.1374 0.9565 -0.2571
vn -0.4691 -0.0975 -0.8777
vn -0.0464 -0.9951 -0.0869
vn -0.0464 0.9951 -0.0869
vn -0.4036 0.7715 -0.4918
vn -0.5601 -0.4696 -0.6825
vn -0.3002 0.8810 -0.3658
vn -0.6073 -0.2890 -0.7400
vn -0.1850 0.9565 -0.2254
vn -0.6314 -0.0975 -0.7693
vn -0.0625 -0.9951 -0.0761
vn -0.0625 0.9951 -0.0761
vn -0.6314 0.0975 -0.7693
vn -0.1850 -0.9565 -0.2254
vn -0.6073 0.2890 -0.7400
vn -0.3002 -0.8810 -0.3658
vn -0.5601 0.4696 -0.6825
vn -0.4036 -0.7715 -0.4918
vn -0.4913 0.6326 -0.5987
vn -0.4913 -0.6326 -0.5987
vn -0.7400 0.2890 -0.6073
vn -0.3658 -0.8810 -0.3002
vn -0.6825 0.4696 -0.5601
vn -0.4918 -0.7715 -0.4036
vn -0.5987 0.6326 -0.4913
vn -0.5987 -0.6326 -0.4913
vn -0.4918 0.7715 -0.4036
vn -0.6825 -0.4696 -0.5601
vn -0.3658 0.8810 -0.3002
vn -0.7400 -0.2890 -0.6073
vn -0.2254 0.9565 -0.1850
vn -0.7693 -0.0975 -0.6314
vn -0.0761 -0.9951 -0.0625
vn -0.0761 0.9951 -0.0625
vn -0.7693 0.0975 -0.6314
vn -0.2254 -0.9565 -0.1850
vn -0.4173 0.8810 -0.2230
vn -0.8443 -0.2890 -0.4513
vn -0.2571 0.9565 -0.1374
vn -0.8777 -0.0975 -0.4691
vn -0.0869 -0.9951 -0.0464
vn -0.0869 0.9951 -0.0464
vn -0.8777 0.0975 -0.4691
vn -0.2571 -0.9565 -0.1374
vn -0.8443 0.2890 -0.4513
vn -0.4173 -0.8810 -0.2230
vn -0.7786 0.4696 -0.4162
vn -0.5611 -0.7715 -0.2999
vn -0.6831 0.6326 -0.3651
vn -0.6831 -0.6326 -0.3651
vn -0.5611 0.7715 -0.2999
vn -0.7786 -0.4696 -0.4162
vn -0.4528 -0.8810 -0.1374
vn -0.8448 0.4696 -0.2563
vn -0.6088 -0.7715 -0.1847
vn -0.7412 0.6326 -0.2248
vn -0.7412 -0.6326 -0.2248
vn -0.6088 0.7715 -0.1847
vn -0.8448 -0.4696 -0.2563
vn -0.4528 0.8810 -0.1374
vn -0.9161 -0.2890 -0.2779
vn -0.2790 0.9565 -0.0846
vn -0.9524 -0.0975 -0.2889
vn -0.0942 -0.9951 -0.0286
vn -0.0942 0.9951 -0.0286
vn -0.9524 0.0975 -0.2889
vn -0.2790 -0.9565 -0.0846
vn -0.9161 0.2890 -0.2779
vn -0.9527 -0.2890 -0.0938
vn -0.2902 0.9565 -0.0286
vn -0.9904 -0.0975 -0.0975
vn -0.0980 -0.9951 -0.0097
vn -0.0980 0.9951 -0.0097
vn -0.9904 0.0975 -0.0975
vn -0.2902 -0.9565 -0.0286
vn -0.9527 0.2890 -0.0938
vn -0.4709 -0.8810 -0.0464
vn -0.8786 0.4696 -0.0865
vn -0.6332 -0.7715 -0.0624
vn -0.7708 0.6326 -0.0759
vn -0.7708 -0.6326 -0.0759
vn -0.6332 0.7715 -0.0624
vn -0.8786 -0.4696 -0.0865
vn -0.4709 0.8810 -0.0464
vn -0.8786 0.4696 0.0865
vn -0.6332 -0.7715 0.0624
vn -0.7708 0.6326 0.0759
vn -0.7708 -0.6326 0.0759
vn -0.6332 0.7715 0.0624
vn -0.8786 -0.4696 0.0865
vn -0.4709 0.8810 0.0464
vn -0.9527 -0.2890 0.0938
vn -0.2902 0.9565 0.0286
vn -0.9904 -0.0975 0.0976
vn -0.0980 -0.9951 0.0097
vn -0.0980 0.9951 0.0097
vn -0.9904 0.0975 0.0976
vn -0.2902 -0.9565 0.0286
vn -0.9527 0.2890 0.0938
vn -0.4709 -0.8810 0.0464
vn -0.2790 0.9565 0.0846
vn -0.9524 -0.0975 0.2889
vn -0.0942 -0.9951 0.0286
vn -0.0942 0.9951 0.0286
vn -0.9524 0.0975 0.2889
vn -0.2790 -0.9565 0.0846
vn -0.9161 0.2890 0.2779
vn -0.4528 -0.8810 0.1374
vn -0.8448 0.4696 0.2563
vn -0.6088 -0.7715 0.1847
vn -0.7412 0.6326 0.2248
vn -0.7412 -0.6326 0.2248
vn -0.6088 0.7715 0.1847
vn -0.8448 -0.4696 0.2563
vn -0.4528 0.8810 0.1374
vn -0.9161 -0.2890 0.2779
vn -0.5611 -0.7715 0.2999
vn -0.6831 0.6326 0.3651
vn -0.6831 -0.6326 0.3651
vn -0.5611 0.7715 0.2999
vn -0.7786 -0.4696 0.4162
vn -0.4173 0.8810 0.2230
vn -0.8443 -0.2890 0.4513
vn -0.2571 0.9565 0.1374
vn -0.8777 -0.0975 0.4691
vn -0.0869 -0.9951 0.0464
vn -0.0869 0.9951 0.0464
vn -0.8777 0.0975 0.4691
vn -0.2571 -0.9565 0.1374
vn -0.8443 0.2890 0.4513
vn -0.4173 -0.8810 0.2230
vn -0.7786 0.4696 0.4162
vn -0.7693 -0.0975 0.6314
vn -0.0761 -0.9951 0.0625
vn -0.0761 0.9951 0.0625
vn -0.7693 0.0975 0.6314
vn -0.2254 -0.9565 0.1850
vn -0.7400 0.2890 0.6073
vn -0.3658 -0.8810 0.3002
vn -0.6825 0.4696 0.5601
vn -0.4918 -0.7715 0.4036
vn -0.5987 0.6326 0.4913
vn -0.5987 -0.6326 0.4913
vn -0.4918 0.7715 0.4036
vn -0.6825 -0.4696 0.5601
vn -0.3658 0.8810 0.3002
vn -0.7400 -0.2890 0.6073
vn -0.2254 0.9565 0.1850
vn -0.4913 0.6326 0.5987
vn -0.4913 -0.6326 0.5987
vn -0.4036 0.7715 0.4918
vn -0.5601 -0.4696 0.6825
vn -0.3002 0.8810 0.3658
vn -0.6073 -0.2890 0.7400
vn -0.1850 0.9565 0.2254
vn -0.6314 -0.0975 0.7693
vn -0.0625 -0.9951 0.0761
vn -0.0625 0.9951 0.0761
vn -0.6314 0.0975 0.7693
vn -0.1850 -0.9565 0.2254
vn -0.6073 0.2890 0.7400
vn -0.3002 -0.8810 0.3658
vn -0.5601 0.4696 0.6825
vn -0.4036 -0.7715 0.4918
vn -0.0464 0.9951 0.0869
vn -0.4691 0.0975 0.8777
vn -0.1374 -0.9565 0.2571
vn -0.4513 0.2890 0.8443
vn -0.2230 -0.8810 0.4173
vn -0.4162 0.4696 0.7786
vn -0.2999 -0.7715 0.5611
vn -0.3651 0.6326 0.6831
vn -0.3651 -0.6326 0.6831
vn -0.2999 0.7715 0.5611
vn -0.4162 -0.4696 0.7786
vn -0.2230 0.8810 0.4173
vn -0.4513 -0.2890 0.8443
vn -0.1374 0.9565 0.2571
vn -0.4691 -0.0975 0.8777
vn -0.0464 -0.9951 0.0869
vn -0.1847 0.7715 0.6088
vn -0.2563 -0.4696 0.8448
vn -0.1374 0.8810 0.4528
vn -0.2779 -0.2890 0.9161
vn -0.0846 0.9565 0.2790
vn -0.2889 -0.0975 0.9524
vn -0.0286 -0.9951 0.0942
vn -0.0286 0.9951 0.0942
vn -0.2889 0.0975 0.9524
vn -0.0846 -0.9565 0.2790
vn -0.2779 0.2890 0.9161
vn -0.1374 -0.8810 0.4528
vn -0.2563 0.4696 0.8448
vn -0.1847 -0.7715 0.6088
vn -0.2248 0.6326 0.7412
vn -0.2248 -0.6326 0.7412
vn -0.0286 -0.9565 0.2902
vn -0.0938 0.2890 0.9527
vn -0.0464 -0.8810 0.4709
vn -0.0865 0.4696 0.8786
vn -0.0624 -0.7715 0.6332
vn -0.0759 0.6326 0.7708
vn -0.0759 -0.6326 0.7708
vn -0.0624 0.7715 0.6332
vn -0.0865 -0.4696 0.8786
vn -0.0464 0.8810 0.4709
vn -0.0938 -0.2890 0.9527
vn -0.0286 0.9565 0.2902
vn -0.0975 -0.0975 0.9904
vn -0.0097 -0.9951 0.0980
vn -0.0097 0.9951 0.0980
vn -0.0975 0.0975 0.9904
vn 0.0865 -0.4696 0.8786
vn 0.0464 0.8810 0.4709
vn 0.0938 -0.2890 0.9527
vn 0.0286 0.9565 0.2902
vn 0.0976 -0.0975 0.9904
vn 0.0097 -0.9951 0.0980
vn 0.0097 0.9951 0.0980
vn 0.0976 0.0975 0.9904
vn 0.0286 -0.9565 0.2902
vn 0.0938 0.2890 0.9527
vn 0.0464 -0.8810 0.4709
vn 0.0865 0.4696 0.8786
vn 0.0624 -0.7715 0.6332
vn 0.0759 0.6326 0.7708
vn 0.0759 -0.6326 0.7708
vn 0.0624 0.7715 0.6332
vn 0.2779 0.2890 0.9161
vn 0.1374 -0.8810 0.4528
vn 0.2563 0.4696 0.8448
vn 0.1847 -0.7715 0.6088
vn 0.2248 0.6326 0.7412
vn 0.2248 -0.6326 0.7412
vn 0.1847 0.7715 0.6088
vn 0.2563 -0.4696 0.8448
vn 0.1374 0.8810 0.4528
vn 0.2779 -0.2890 0.9161
vn 0.0846 0.9565 0.2790
vn 0.2889 -0.0975 0.9524
vn 0.0286 -0.9951 0.0942
vn 0.0286 0.9951 0.0942
vn 0.2889 0.0975 0.9524
vn 0.0846 -0.9565 0.2790
vn 0.2230 0.8810 0.4173
vn 0.4513 -0.2890 0.8443
vn 0.1374 0.9565 0.2571
vn 0.4691 -0.0975 0.8777
vn 0.0464 -0.9951 0.0869
vn 0.0464 0.9951 0.0869
vn 0.4691 0.0975 0.8777
vn 0.1374 -0.9565 0.2571
vn 0.4513 0.2890 0.8443
vn 0.2231 -0.8810 0.4173
vn 0.4162 0.4696 0.7786
vn 0.2999 -0.7715 0.5611
vn 0.3651 0.6326 0.6831
vn 0.3651 -0.6326 0.6831
vn 0.2999 0.7715 0.5611
vn 0.4162 -0.4696 0.7786
vn 0.3002 -0.8810 0.3658
vn 0.5601 0.4696 0.6825
vn 0.4036 -0.7715 0.4918
vn 0.4913 0.6326 0.5987
vn 0.4913 -0.6326 0.5987
vn 0.4036 0.7715 0.4918
vn 0.5601 -0.4696 0.6825
vn 0.3002 0.8810 0.3658
vn 0.6073 -0.2890 0.7400
vn 0.1850 0.9565 0.2254
vn 0.6314 -0.0975 0.7693
vn 0.0625 -0.9951 0.0761
vn 0.0625 0.9951 0.0761
vn 0.6314 0.0975 0.7693
vn 0.1850 -0.9565 0.2254
vn 0.6073 0.2890 0.7400
vn 0.7400 -0.2890 0.6073
vn 0.2254 0.9565 0.1850
vn 0.7693 -0.0975 0.6314
vn 0.0761 -0.9951 0.0625
vn 0.0761 0.9951 0.0625
vn 0.7693 0.0975 0.6314
vn 0.2254 -0.9565 0.1850
vn 0.7400 0.2890 0.6073
vn 0.3658 -0.8810 0.3002
vn 0.6825 0.4696 0.5601
vn 0.4918 -0.7715 0.4036
vn 0.5987 0.6326 0.4913
vn 0.5987 -0.6326 0.4913
vn 0.4918 0.7715 0.4036
vn 0.6825 -0.4696 0.5601
vn 0.3658 0.8810 0.3002
vn 0.7786 0.4696 0.4162
vn 0.5611 -0.7715 0.2999
vn 0.6831 0.6326 0.3651
vn 0.6831 -0.6326 0.3651
vn 0.5611 0.7715 0.2999
vn 0.7786 -0.4696 0.4162
vn 0.4173 0.8810 0.2230
vn 0.8443 -0.2890 0.4513
vn 0.2571 0.9565 0.1374
vn 0.8777 -0.0975 0.4691
vn 0.0869 -0.9951 0.0464
vn 0.0869 0.9951 0.0464
vn 0.8777 0.0975 0.4691
vn 0.2571 -0.9565 0.1374
vn 0.8443 0.2890 0.4513
vn 0.4173 -0.8810 0.2230
vn 0.2790 0.9565 0.0846
vn 0.9524 -0.0975 0.2889
vn 0.0942 -0.9951 0.0286
vn 0.0942 0.9951 0.0286
vn 0.9524 0.0975 0.2889
vn 0.2790 -0.9565 0.0846
vn 0.9161 0.2890 0.2779
vn 0.4528 -0.8810 0.1374
vn 0.8448 0.4696 0.2563
vn 0.6088 -0.7715 0.1847
vn 0.7412 0.6326 0.2248
vn 0.7412 -0.6326 0.2248
vn 0.6088 0.7715 0.1847
vn 0.8448 -0.4696 0.2563
vn 0.4528 0.8810 0.1374
vn 0.9161 -0.2890 0.2779
vn 0.7708 0.6326 0.0759
vn 0.7708 -0.6326 0.0759
vn 0.6332 0.7715 0.0624
vn 0.8786 -0.4696 0.0865
vn 0.4709 0.8810 0.0464
vn 0.9527 -0.2890 0.0938
vn 0.2902 0.9565 0.0286
vn 0.9904 -0.0975 0.0975
vn 0.0980 -0.9951 0.0097
vn 0.0980 0.9951 0.0097
vn 0.9904 0.0975 0.0975
vn 0.2902 -0.9565 0.0286
vn 0.9527 0.2890 0.0938
vn 0.4709 -0.8810 0.0464
vn 0.8786 0.4696 0.0865
vn 0.6332 -0.7715 0.0624
vn 0.0980 -0.9951 -0.0097
vn 0.0980 0.9951 -0.0097
vn 0.9904 0.0975 -0.0976
vn 0.2902 -0.9565 -0.0286
vn 0.9527 0.2890 -0.0938
vn 0.4709 -0.8810 -0.0464
vn 0.8786 0.4696 -0.0865
vn 0.6332 -0.7715 -0.0624
vn 0.7708 0.6326 -0.0759
vn 0.7708 -0.6326 -0.0759
vn 0.6332 0.7715 -0.0624
vn 0.8786 -0.4696 -0.0865
vn 0.4709 0.8810 -0.0464
vn 0.9527 -0.2890 -0.0938
vn 0.2902 0.9565 -0.0286
vn 0.9904 -0.0975 -0.0976
vn 0.7412 -0.6326 -0.2248
vn 0.6088 0.7715 -0.1847
vn 0.8448 -0.4696 -0.2563
vn 0.4528 0.8810 -0.1374
vn 0.9161 -0.2890 -0.2779
vn 0.2790 0.9565 -0.0846
vn 0.9524 -0.0975 -0.2889
vn 0.0942 -0.9951 -0.0286
vn 0.0942 0.9951 -0.0286
vn 0.9524 0.0975 -0.2889
vn 0.2790 -0.9565 -0.0846
vn 0.9161 0.2890 -0.2779
vn 0.4528 -0.8810 -0.1374
vn 0.8448 0.4696 -0.2563
vn 0.6088 -0.7715 -0.1847
vn 0.7412 0.6326 -0.2248
vn 0.8777 0.0975 -0.4691
vn 0.2571 -0.9565 -0.1374
vn 0.8443 0.2890 -0.4513
vn 0.4173 -0.8810 -0.2231
vn 0.7786 0.4696 -0.4162
vn 0.5611 -0.7715 -0.2999
vn 0.6831 0.6326 -0.3651
vn 0.6831 -0.6326 -0.3651
vn 0.5611 0.7715 -0.2999
vn 0.7786 -0.4696 -0.4162
vn 0.4173 0.8810 -0.2231
vn 0.8443 -0.2890 -0.4513
vn 0.2571 0.9565 -0.1374
vn 0.8777 -0.0975 -0.4691
vn 0.0869 -0.9951 -0.0464
vn 0.0869 0.9951 -0.0464
vn 0.4918 0.7715 -0.4036
vn 0.6825 -0.4696 -0.5601
vn 0.3658 0.8810 -0.3002
vn 0.7400 -0.2890 -0.6073
vn 0.2254 0.9565 -0.1850
vn 0.7693 -0.0975 -0.6314
vn 0.0761 -0.9951 -0.0625
vn 0.0761 0.9951 -0.0625
vn 0.7693 0.0975 -0.6314
vn 0.2254 -0.9565 -0.1850
vn 0.7400 0.2890 -0.6073
vn 0.3658 -0.8810 -0.3002
vn 0.6825 0.4696 -0.5601
vn 0.4918 -0.7715 -0.4036
vn 0.5987 0.6326 -0.4913
vn 0.5987 -0.6326 -0.4913
vn 0.1850 -0.9565 -0.2254
vn 0.6073 0.2890 -0.7400
vn 0.3002 -0.8810 -0.3658
vn 0.5601 0.4696 -0.6825
vn 0.4036 -0.7715 -0.4918
vn 0.4913 0.6326 -0.5987
vn 0.4913 -0.6326 -0.5987
vn 0.4036 0.7715 -0.4918
vn 0.5601 -0.4696 -0.6825
vn 0.3002 0.8810 -0.3658
vn 0.6073 -0.2890 -0.7400
vn 0.1850 0.9565 -0.2254
vn 0.6314 -0.0975 -0.7693
vn 0.0625 -0.9951 -0.0761
vn 0.0625 0.9951 -0.0761
vn 0.6314 0.0975 -0.7693
vn 0.4162 -0.4696 -0.7786
vn 0.2230 0.8810 -0.4173
vn 0.4513 -0.2890 -0.8443
vn 0.1374 0.9565 -0.2571
vn 0.4691 -0.0975 -0.8777
vn 0.0464 -0.9951 -0.0869
vn 0.0464 0.9951 -0.0869
vn 0.4691 0.0975 -0.8777
vn 0.1374 -0.9565 -0.2571
vn 0.4513 0.2890 -0.8443
vn 0.2230 -0.8810 -0.4173
vn 0.4162 0.4696 -0.7786
vn 0.2999 -0.7715 -0.5611
vn 0.3651 0.6326 -0.6831
vn 0.3651 -0.6326 -0.6831
vn 0.2999 0.7715 -0.5611
vn 0.2779 0.2890 -0.9161
vn 0.1374 -0.8810 -0.4528
vn 0.2563 0.4696 -0.8448
vn 0.1847 -0.7715 -0.6088
vn 0.2248 0.6326 -0.7412
vn 0.2248 -0.6326 -0.7412
vn 0.1847 0.7715 -0.6088
vn 0.2563 -0.4696 -0.8448
vn 0.1374 0.8810 -0.4528
vn 0.2779 -0.2890 -0.9161
vn 0.0846 0.9565 -0.2790
vn 0.2889 -0.0975 -0.9524
vn 0.0286 -0.9951 -0.0942
vn 0.0286 0.9951 -0.0942
vn 0.2889 0.0975 -0.9524
vn 0.0846 -0.9565 -0.2790
vn 0.0464 0.8810 -0.4709
vn 0.0938 -0.2890 -0.9527
vn 0.0286 0.9565 -0.2902
vn 0.0976 -0.0975 -0.9904
vn 0.0097 -0.9951 -0.0980
vn 0.0097 0.9951 -0.0980
vn 0.0976 0.0975 -0.9904
vn 0.0286 -0.9565 -0.2902
vn 0.0938 0.2890 -0.9527
vn 0.0464 -0.8810 -0.4709
vn 0.0865 0.4696 -0.8786
vn 0.0624 -0.7715 -0.6332
vn 0.0759 0.6326 -0.7708
vn 0.0759 -0.6326 -0.7708
vn 0.0624 0.7715 -0.6332
vn 0.0865 -0.4696 -0.8786
vt 0.750000 0.125000
vt 0.718750 0.125000
vt 0.718750 0.187500
vt 0.750000 0.187500
vt 0.750000 0.562500
vt 0.718750 0.562500
vt 0.718750 0.625000
vt 0.750000 0.625000
vt 0.750000 0.062500
vt 0.718750 0.062500
vt 0.750000 0.500000
vt 0.718750 0.500000
vt 0.750000 0.937500
vt 0.718750 0.937500
vt 0.734375 1.000000
vt 0.734375 0.000000
vt 0.750000 0.437500
vt 0.718750 0.437500
vt 0.750000 0.875000
vt 0.718750 0.875000
vt 0.750000 0.375000
vt 0.718750 0.375000
vt 0.750000 0.812500
vt 0.718750 0.812500
vt 0.750000 0.312500
vt 0.718750 0.312500
vt 0.750000 0.750000
vt 0.718750 0.750000
vt 0.750000 0.250000
vt 0.718750 0.250000
vt 0.750000 0.687500
vt 0.718750 0.687500
vt 0.687500 0.687500
vt 0.687500 0.750000
vt 0.687500 0.187500
vt 0.687500 0.250000
vt 0.687500 0.625000
vt 0.687500 0.125000
vt 0.687500 0.562500
vt 0.687500 0.062500
vt 0.687500 0.500000
vt 0.687500 0.937500
vt 0.703125 1.000000
vt 0.703125 0.000000
vt 0.687500 0.437500
vt 0.687500 0.875000
vt 0.687500 0.375000
vt 0.687500 0.812500
vt 0.687500 0.312500
vt 0.656250 0.437500
vt 0.656250 0.500000
vt 0.656250 0.875000
vt 0.656250 0.937500
vt 0.656250 0.375000
vt 0.656250 0.812500
vt 0.656250 0.312500
vt 0.656250 0.750000
vt 0.656250 0.250000
vt 0.656250 0.687500
vt 0.656250 0.187500
vt 0.656250 0.625000
vt 0.656250 0.125000
vt 0.656250 0.562500
vt 0.656250 0.062500
vt 0.671875 1.000000
vt 0.671875 0.000000
vt 0.625000 0.187500
vt 0.625000 0.250000
vt 0.625000 0.625000
vt 0.625000 0.687500
vt 0.625000 0.125000
vt 0.625000 0.562500
vt 0.625000 0.062500
vt 0.625000 0.500000
vt 0.625000 0.937500
vt 0.640625 1.000000
vt 0.640625 0.000000
vt 0.625000 0.437500
vt 0.625000 0.875000
vt 0.625000 0.375000
vt 0.625000 0.812500
vt 0.625000 0.312500
vt 0.625000 0.750000
vt 0.593750 0.375000
vt 0.593750 0.437500
vt 0.593750 0.812500
vt 0.593750 0.875000
vt 0.593750 0.312500
vt 0.593750 0.750000
vt 0.593750 0.250000
vt 0.593750 0.687500
vt 0.593750 0.187500
vt 0.593750 0.625000
vt 0.593750 0.125000
vt 0.593750 0.562500
vt 0.593750 0.062500
vt 0.593750 0.500000
vt 0.593750 0.937500
vt 0.609375 1.000000
vt 0.609375 0.000000
vt 0.562500 0.125000
vt 0.562500 0.187500
vt 0.562500 0.562500
vt 0.562500 0.625000
vt 0.562500 0.062500
vt 0.562500 0.500000
vt 0.562500 0.937500
vt 0.578125 1.000000
vt 0.578125 0.000000
vt 0.562500 0.437500
vt 0.562500 0.875000
vt 0.562500 0.375000
vt 0.562500 0.812500
vt 0.562500 0.312500
vt 0.562500 0.750000
vt 0.562500 0.250000
vt 0.562500 0.687500
vt 0.531250 0.812500
vt 0.531250 0.875000
vt 0.531250 0.312500
vt 0.531250 0.375000
vt 0.531250 0.750000
vt 0.531250 0.250000
vt 0.531250 0.687500
vt 0.531250 0.187500
vt 0.531250 0.625000
vt 0.531250 0.125000
vt 0.531250 0.562500
vt 0.531250 0.062500
vt 0.531250 0.500000
vt 0.531250 0.937500
vt 0.546875 1.000000
vt 0.546875 0.000000
vt 0.531250 0.437500
vt 0.500000 0.562500
vt 0.500000 0.625000
vt 0.500000 0.062500
vt 0.500000 0.125000
vt 0.500000 0.500000
vt 0.500000 0.937500
vt 0.515625 1.000000
vt 0.515625 0.000000
vt 0.500000 0.437500
vt 0.500000 0.875000
vt 0.500000 0.375000
vt 0.500000 0.812500
vt 0.500000 0.312500
vt 0.500000 0.750000
vt 0.500000 0.250000
vt 0.500000 0.687500
vt 0.500000 0.187500
vt 0.468750 0.312500
vt 0.468750 0.375000
vt 0.468750 0.750000
vt 0.468750 0.812500
vt 0.468750 0.250000
vt 0.468750 0.687500
vt 0.468750 0.187500
vt 0.468750 0.625000
vt 0.468750 0.125000
vt 0.468750 0.562500
vt 0.468750 0.062500
vt 0.468750 0.500000
vt 0.468750 0.937500
vt 0.484375 1.000000
vt 0.484375 0.000000
vt 0.468750 0.437500
vt 0.468750 0.875000
vt 0.437500 0.062500
vt 0.437500 0.125000
vt 0.437500 0.500000
vt 0.437500 0.562500
vt 0.437500 0.937500
vt 0.453125 1.000000
vt 0.453125 0.000000
vt 0.437500 0.437500
vt 0.437500 0.875000
vt 0.437500 0.375000
vt 0.437500 0.812500
vt 0.437500 0.312500
vt 0.437500 0.750000
vt 0.437500 0.250000
vt 0.437500 0.687500
vt 0.437500 0.187500
vt 0.437500 0.625000
vt 0.406250 0.750000
vt 0.406250 0.812500
vt 0.406250 0.250000
vt 0.406250 0.312500
vt 0.406250 0.687500
vt 0.406250 0.187500
vt 0.406250 0.625000
vt 0.406250 0.125000
vt 0.406250 0.562500
vt 0.406250 0.062500
vt 0.406250 0.500000
vt 0.406250 0.937500
vt 0.421875 1.000000
vt 0.421875 0.000000
vt 0.406250 0.437500
vt 0.406250 0.875000
vt 0.406250 0.375000
vt 0.375000 0.500000
vt 0.375000 0.562500
vt 0.375000 0.937500
vt 0.390625 1.000000
vt 0.390625 0.000000
vt 0.375000 0.062500
vt 0.375000 0.437500
vt 0.375000 0.875000
vt 0.375000 0.375000
vt 0.375000 0.812500
vt 0.375000 0.312500
vt 0.375000 0.750000
vt 0.375000 0.250000
vt 0.375000 0.687500
vt 0.375000 0.187500
vt 0.375000 0.625000
vt 0.375000 0.125000
vt 0.343750 0.250000
vt 0.343750 0.312500
vt 0.343750 0.687500
vt 0.343750 0.750000
vt 0.343750 0.187500
vt 0.343750 0.625000
vt 0.343750 0.125000
vt 0.343750 0.562500
vt 0.343750 0.062500
vt 0.343750 0.500000
vt 0.343750 0.937500
vt 0.359375 1.000000
vt 0.359375 0.000000
vt 0.343750 0.437500
vt 0.343750 0.875000
vt 0.343750 0.375000
vt 0.343750 0.812500
vt 0.328125 0.000000
vt 0.312500 0.062500
vt 0.312500 0.437500
vt 0.312500 0.500000
vt 0.312500 0.875000
vt 0.312500 0.937500
vt 0.312500 0.375000
vt 0.312500 0.812500
vt 0.312500 0.312500
vt 0.312500 0.750000
vt 0.312500 0.250000
vt 0.312500 0.687500
vt 0.312500 0.187500
vt 0.312500 0.625000
vt 0.312500 0.125000
vt 0.312500 0.562500
vt 0.328125 1.000000
vt 0.281250 0.187500
vt 0.281250 0.250000
vt 0.281250 0.625000
vt 0.281250 0.687500
vt 0.281250 0.125000
vt 0.281250 0.562500
vt 0.281250 0.062500
vt 0.281250 0.500000
vt 0.281250 0.937500
vt 0.296875 1.000000
vt 0.296875 0.000000
vt 0.281250 0.437500
vt 0.281250 0.875000
vt 0.281250 0.375000
vt 0.281250 0.812500
vt 0.281250 0.312500
vt 0.281250 0.750000
vt 0.250000 0.875000
vt 0.250000 0.937500
vt 0.250000 0.375000
vt 0.250000 0.437500
vt 0.250000 0.812500
vt 0.250000 0.312500
vt 0.250000 0.750000
vt 0.250000 0.250000
vt 0.250000 0.687500
vt 0.250000 0.187500
vt 0.250000 0.625000
vt 0.250000 0.125000
vt 0.250000 0.562500
vt 0.250000 0.062500
vt 0.250000 0.500000
vt 0.265625 1.000000
vt 0.265625 0.000000
vt 0.218750 0.625000
vt 0.218750 0.687500
vt 0.218750 0.125000
vt 0.218750 0.187500
vt 0.218750 0.562500
vt 0.218750 0.062500
vt 0.218750 0.500000
vt 0.218750 0.937500
vt 0.234375 1.000000
vt 0.234375 0.000000
vt 0.218750 0.437500
vt 0.218750 0.875000
vt 0.218750 0.375000
vt 0.218750 0.812500
vt 0.218750 0.312500
vt 0.218750 0.750000
vt 0.218750 0.250000
vt 0.187500 0.375000
vt 0.187500 0.437500
vt 0.187500 0.812500
vt 0.187500 0.875000
vt 0.187500 0.312500
vt 0.187500 0.750000
vt 0.187500 0.250000
vt 0.187500 0.687500
vt 0.187500 0.187500
vt 0.187500 0.625000
vt 0.187500 0.125000
vt 0.187500 0.562500
vt 0.187500 0.062500
vt 0.187500 0.500000
vt 0.187500 0.937500
vt 0.203125 1.000000
vt 0.203125 0.000000
vt 0.156250 0.125000
vt 0.156250 0.187500
vt 0.156250 0.562500
vt 0.156250 0.625000
vt 0.156250 0.062500
vt 0.156250 0.500000
vt 0.156250 0.937500
vt 0.171875 1.000000
vt 0.171875 0.000000
vt 0.156250 0.437500
vt 0.156250 0.875000
vt 0.156250 0.375000
vt 0.156250 0.812500
vt 0.156250 0.312500
vt 0.156250 0.750000
vt 0.156250 0.250000
vt 0.156250 0.687500
vt 0.125000 0.812500
vt 0.125000 0.875000
vt 0.125000 0.312500
vt 0.125000 0.375000
vt 0.125000 0.750000
vt 0.125000 0.250000
vt 0.125000 0.687500
vt 0.125000 0.187500
vt 0.125000 0.625000
vt 0.125000 0.125000
vt 0.125000 0.562500
vt 0.125000 0.062500
vt 0.125000 0.500000
vt 0.125000 0.937500
vt 0.140625 1.000000
vt 0.140625 0.000000
vt 0.125000 0.437500
vt 0.093750 0.562500
vt 0.093750 0.625000
vt 0.093750 0.062500
vt 0.093750 0.125000
vt 0.093750 0.500000
vt 0.093750 0.937500
vt 0.109375 1.000000
vt 0.109375 0.000000
vt 0.093750 0.437500
vt 0.093750 0.875000
vt 0.093750 0.375000
vt 0.093750 0.812500
vt 0.093750 0.312500
vt 0.093750 0.750000
vt 0.093750 0.250000
vt 0.093750 0.687500
vt 0.093750 0.187500
vt 0.062500 0.312500
vt 0.062500 0.375000
vt 0.062500 0.750000
vt 0.062500 0.812500
vt 0.062500 0.250000
vt 0.062500 0.687500
vt 0.062500 0.187500
vt 0.062500 0.625000
vt 0.062500 0.125000
vt 0.062500 0.562500
vt 0.062500 0.062500
vt 0.062500 0.500000
vt 0.062500 0.937500
vt 0.078125 1.000000
vt 0.078125 0.000000
vt 0.062500 0.437500
vt 0.062500 0.875000
vt 0.031250 0.062500
vt 0.031250 0.125000
vt 0.031250 0.500000
vt 0.031250 0.562500
vt 0.031250 0.937500
vt 0.046875 1.000000
vt 0.046875 0.000000
vt 0.031250 0.437500
vt 0.031250 0.875000
vt 0.031250 0.375000
vt 0.031250 0.812500
vt 0.031250 0.312500
vt 0.031250 0.750000
vt 0.031250 0.250000
vt 0.031250 0.687500
vt 0.031250 0.187500
vt 0.031250 0.625000
vt 0.000000 0.250000
vt 0.000000 0.312500
vt 0.000000 0.687500
vt 0.000000 0.750000
vt 0.000000 0.187500
vt 0.000000 0.625000
vt 0.000000 0.125000
vt 0.000000 0.562500
vt 0.000000 0.062500
vt 0.000000 0.500000
vt 0.000000 0.937500
vt 0.015625 1.000000
vt 0.015625 0.000000
vt 0.000000 0.437500
vt 0.000000 0.875000
vt 0.000000 0.375000
vt 0.000000 0.812500
vt 1.000000 0.937500
vt 0.968750 0.937500
vt 0.984375 1.000000
vt 0.984375 0.000000
vt 0.968750 0.062500
vt 1.000000 0.062500
vt 1.000000 0.437500
vt 0.968750 0.437500
vt 0.968750 0.500000
vt 1.000000 0.500000
vt 1.000000 0.875000
vt 0.968750 0.875000
vt 1.000000 0.375000
vt 0.968750 0.375000
vt 1.000000 0.812500
vt 0.968750 0.812500
vt 1.000000 0.312500
vt 0.968750 0.312500
vt 1.000000 0.750000
vt 0.968750 0.750000
vt 1.000000 0.250000
vt 0.968750 0.250000
vt 1.000000 0.687500
vt 0.968750 0.687500
vt 1.000000 0.187500
vt 0.968750 0.187500
vt 1.000000 0.625000
vt 0.968750 0.625000
vt 1.000000 0.125000
vt 0.968750 0.125000
vt 1.000000 0.562500
vt 0.968750 0.562500
vt 0.937500 0.687500
vt 0.937500 0.750000
vt 0.937500 0.187500
vt 0.937500 0.250000
vt 0.937500 0.625000
vt 0.937500 0.125000
vt 0.937500 0.562500
vt 0.937500 0.062500
vt 0.937500 0.500000
vt 0.937500 0.937500
vt 0.953125 1.000000
vt 0.953125 0.000000
vt 0.937500 0.437500
vt 0.937500 0.875000
vt 0.937500 0.375000
vt 0.937500 0.812500
vt 0.937500 0.312500
vt 0.906250 0.437500
vt 0.906250 0.500000
vt 0.906250 0.875000
vt 0.906250 0.937500
vt 0.906250 0.375000
vt 0.906250 0.812500
vt 0.906250 0.312500
vt 0.906250 0.750000
vt 0.906250 0.250000
vt 0.906250 0.687500
vt 0.906250 0.187500
vt 0.906250 0.625000
vt 0.906250 0.125000
vt 0.906250 0.562500
vt 0.906250 0.062500
vt 0.921875 1.000000
vt 0.921875 0.000000
vt 0.875000 0.187500
vt 0.875000 0.250000
vt 0.875000 0.625000
vt 0.875000 0.687500
vt 0.875000 0.125000
vt 0.875000 0.562500
vt 0.875000 0.062500
vt 0.875000 0.500000
vt 0.875000 0.937500
vt 0.890625 1.000000
vt 0.890625 0.000000
vt 0.875000 0.437500
vt 0.875000 0.875000
vt 0.875000 0.375000
vt 0.875000 0.812500
vt 0.875000 0.312500
vt 0.875000 0.750000
vt 0.843750 0.875000
vt 0.843750 0.937500
vt 0.843750 0.375000
vt 0.843750 0.437500
vt 0.843750 0.812500
vt 0.843750 0.312500
vt 0.843750 0.750000
vt 0.843750 0.250000
vt 0.843750 0.687500
vt 0.843750 0.187500
vt 0.843750 0.625000
vt 0.843750 0.125000
vt 0.843750 0.562500
vt 0.843750 0.062500
vt 0.843750 0.500000
vt 0.859375 1.000000
vt 0.859375 0.000000
vt 0.812500 0.625000
vt 0.812500 0.687500
vt 0.812500 0.125000
vt 0.812500 0.187500
vt 0.812500 0.562500
vt 0.812500 0.062500
vt 0.812500 0.500000
vt 0.812500 0.937500
vt 0.828125 1.000000
vt 0.828125 0.000000
vt 0.812500 0.437500
vt 0.812500 0.875000
vt 0.812500 0.375000
vt 0.812500 0.812500
vt 0.812500 0.312500
vt 0.812500 0.750000
vt 0.812500 0.250000
vt 0.781250 0.375000
vt 0.781250 0.437500
vt 0.781250 0.812500
vt 0.781250 0.875000
vt 0.781250 0.312500
vt 0.781250 0.750000
vt 0.781250 0.250000
vt 0.781250 0.687500
vt 0.781250 0.187500
vt 0.781250 0.625000
vt 0.781250 0.125000
vt 0.781250 0.562500
vt 0.781250 0.062500
vt 0.781250 0.500000
vt 0.781250 0.937500
vt 0.796875 1.000000
vt 0.796875 0.000000
vt 0.765625 1.000000
vt 0.765625 0.000000
s 0
usemtl マテリアル
f 481/1/1 480/4/1 19/3/1 20/2/1
f 3/5/2 477/8/2 12/7/2 13/6/2
f 482/9/3 481/1/3 20/2/3 21/10/3
f 4/11/4 3/5/4 13/6/4 14/12/4
f 474/13/5 82/15/5 7/14/5
f 308/16/6 482/9/6 21/10/6
f 5/17/7 4/11/7 14/12/7 15/18/7
f 475/19/8 474/13/8 7/14/8 8/20/8
f 478/21/9 5/17/9 15/18/9 16/22/9
f 1/23/10 475/19/10 8/20/10 9/24/10
f 6/25/11 478/21/11 16/22/11 17/26/11
f 476/27/12 1/23/12 9/24/12 10/28/12
f 479/29/13 6/25/13 17/26/13 18/30/13
f 2/31/14 476/27/14 10/28/14 11/32/14
f 480/4/15 479/29/15 18/30/15 19/3/15
f 477/8/16 2/31/16 11/32/16 12/7/16
f 11/32/17 10/28/17 25/34/17 26/33/17
f 19/3/18 18/30/18 33/36/18 34/35/18
f 12/7/19 11/32/19 26/33/19 27/37/19
f 20/2/20 19/3/20 34/35/20 35/38/20
f 13/6/21 12/7/21 27/37/21 28/39/21
f 21/10/22 20/2/22 35/38/22 36/40/22
f 14/12/23 13/6/23 28/39/23 29/41/23
f 7/14/24 82/43/24 22/42/24
f 308/44/25 21/10/25 36/40/25
f 15/18/26 14/12/26 29/41/26 30/45/26
f 8/20/27 7/14/27 22/42/27 23/46/27
f 16/22/28 15/18/28 30/45/28 31/47/28
f 9/24/29 8/20/29 23/46/29 24/48/29
f 17/26/30 16/22/30 31/47/30 32/49/30
f 10/28/31 9/24/31 24/48/31 25/34/31
f 18/30/32 17/26/32 32/49/32 33/36/32
f 30/45/33 29/41/33 44/51/33 45/50/33
f 23/46/34 22/42/34 37/53/34 38/52/34
f 31/47/35 30/45/35 45/50/35 46/54/35
f 24/48/36 23/46/36 38/52/36 39/55/36
f 32/49/37 31/47/37 46/54/37 47/56/37
f 25/34/38 24/48/38 39/55/38 40/57/38
f 33/36/39 32/49/39 47/56/39 48/58/39
f 26/33/40 25/34/40 40/57/40 41/59/40
f 34/35/41 33/36/41 48/58/41 49/60/41
f 27/37/42 26/33/42 41/59/42 42/61/42
f 35/38/43 34/35/43 49/60/43 50/62/43
f 28/39/44 27/37/44 42/61/44 43/63/44
f 36/40/45 35/38/45 50/62/45 51/64/45
f 29/41/46 28/39/46 43/63/46 44/51/46
f 22/42/47 82/65/47 37/53/47
f 308/66/48 36/40/48 51/64/48
f 49/60/49 48/58/49 63/68/49 64/67/49
f 42/61/50 41/59/50 56/70/50 57/69/50
f 50/62/51 49/60/51 64/67/51 65/71/51
f 43/63/52 42/61/52 57/69/52 58/72/52
f 51/64/53 50/62/53 65/71/53 66/73/53
f 44/51/54 43/63/54 58/72/54 59/74/54
f 37/53/55 82/76/55 52/75/55
f 308/77/56 51/64/56 66/73/56
f 45/50/57 44/51/57 59/74/57 60/78/57
f 38/52/58 37/53/58 52/75/58 53/79/58
f 46/54/59 45/50/59 60/78/59 61/80/59
f 39/55/60 38/52/60 53/79/60 54/81/60
f 47/56/61 46/54/61 61/80/61 62/82/61
f 40/57/62 39/55/62 54/81/62 55/83/62
f 48/58/63 47/56/63 62/82/63 63/68/63
f 41/59/64 40/57/64 55/83/64 56/70/64
f 61/80/65 60/78/65 75/85/65 76/84/65
f 54/81/66 53/79/66 68/87/66 69/86/66
f 62/82/67 61/80/67 76/84/67 77/88/67
f 55/83/68 54/81/68 69/86/68 70/89/68
f 63/68/69 62/82/69 77/88/69 78/90/69
f 56/70/70 55/83/70 70/89/70 71/91/70
f 64/67/71 63/68/71 78/90/71 79/92/71
f 57/69/72 56/70/72 71/91/72 72/93/72
f 65/71/73 64/67/73 79/92/73 80/94/73
f 58/72/74 57/69/74 72/93/74 73/95/74
f 66/73/75 65/71/75 80/94/75 81/96/75
f 59/74/76 58/72/76 73/95/76 74/97/76
f 52/75/77 82/99/77 67/98/77
f 308/100/78 66/73/78 81/96/78
f 60/78/79 59/74/79 74/97/79 75/85/79
f 53/79/80 52/75/80 67/98/80 68/87/80
f 80/94/81 79/92/81 95/102/81 96/101/81
f 73/95/82 72/93/82 88/104/82 89/103/82
f 81/96/83 80/94/83 96/101/83 97/105/83
f 74/97/84 73/95/84 89/103/84 90/106/84
f 67/98/85 82/108/85 83/107/85
f 308/109/86 81/96/86 97/105/86
f 75/85/87 74/97/87 90/106/87 91/110/87
f 68/87/88 67/98/88 83/107/88 84/111/88
f 76/84/89 75/85/89 91/110/89 92/112/89
f 69/86/90 68/87/90 84/111/90 85/113/90
f 77/88/91 76/84/91 92/112/91 93/114/91
f 70/89/92 69/86/92 85/113/92 86/115/92
f 78/90/93 77/88/93 93/114/93 94/116/93
f 71/91/94 70/89/94 86/115/94 87/117/94
f 79/92/95 78/90/95 94/116/95 95/102/95
f 72/93/96 71/91/96 87/117/96 88/104/96
f 85/113/97 84/111/97 99/119/97 100/118/97
f 93/114/98 92/112/98 107/121/98 108/120/98
f 86/115/99 85/113/99 100/118/99 101/122/99
f 94/116/100 93/114/100 108/120/100 109/123/100
f 87/117/101 86/115/101 101/122/101 102/124/101
f 95/102/102 94/116/102 109/123/102 110/125/102
f 88/104/103 87/117/103 102/124/103 103/126/103
f 96/101/104 95/102/104 110/125/104 111/127/104
f 89/103/105 88/104/105 103/126/105 104/128/105
f 97/105/106 96/101/106 111/127/106 112/129/106
f 90/106/107 89/103/107 104/128/107 105/130/107
f 83/107/108 82/132/108 98/131/108
f 308/133/109 97/105/109 112/129/109
f 91/110/110 90/106/110 105/130/110 106/134/110
f 84/111/111 83/107/111 98/131/111 99/119/111
f 92/112/112 91/110/112 106/134/112 107/121/112
f 104/128/113 103/126/113 118/136/113 119/135/113
f 112/129/114 111/127/114 126/138/114 127/137/114
f 105/130/115 104/128/115 119/135/115 120/139/115
f 98/131/116 82/141/116 113/140/116
f 308/142/117 112/129/117 127/137/117
f 106/134/118 105/130/118 120/139/118 121/143/118
f 99/119/119 98/131/119 113/140/119 114/144/119
f 107/121/120 106/134/120 121/143/120 122/145/120
f 100/118/121 99/119/121 114/144/121 115/146/121
f 108/120/122 107/121/122 122/145/122 123/147/122
f 101/122/123 100/118/123 115/146/123 116/148/123
f 109/123/124 108/120/124 123/147/124 124/149/124
f 102/124/125 101/122/125 116/148/125 117/150/125
f 110/125/126 109/123/126 124/149/126 125/151/126
f 103/126/127 102/124/127 117/150/127 118/136/127
f 111/127/128 110/125/128 125/151/128 126/138/128
f 123/147/129 122/145/129 137/153/129 138/152/129
f 116/148/130 115/146/130 130/155/130 131/154/130
f 124/149/131 123/147/131 138/152/131 139/156/131
f 117/150/132 116/148/132 131/154/132 132/157/132
f 125/151/133 124/149/133 139/156/133 140/158/133
f 118/136/134 117/150/134 132/157/134 133/159/134
f 126/138/135 125/151/135 140/158/135 141/160/135
f 119/135/136 118/136/136 133/159/136 134/161/136
f 127/137/137 126/138/137 141/160/137 142/162/137
f 120/139/138 119/135/138 134/161/138 135/163/138
f 113/140/139 82/165/139 128/164/139
f 308/166/140 127/137/140 142/162/140
f 121/143/141 120/139/141 135/163/141 136/167/141
f 114/144/142 113/140/142 128/164/142 129/168/142
f 122/145/143 121/143/143 136/167/143 137/153/143
f 115/146/144 114/144/144 129/168/144 130/155/144
f 142/162/145 141/160/145 156/170/145 157/169/145
f 135/163/146 134/161/146 149/172/146 150/171/146
f 128/164/147 82/174/147 143/173/147
f 308/175/148 142/162/148 157/169/148
f 136/167/149 135/163/149 150/171/149 151/176/149
f 129/168/150 128/164/150 143/173/150 144/177/150
f 137/153/151 136/167/151 151/176/151 152/178/151
f 130/155/152 129/168/152 144/177/152 145/179/152
f 138/152/153 137/153/153 152/178/153 153/180/153
f 131/154/154 130/155/154 145/179/154 146/181/154
f 139/156/155 138/152/155 153/180/155 154/182/155
f 132/157/156 131/154/156 146/181/156 147/183/156
f 140/158/157 139/156/157 154/182/157 155/184/157
f 133/159/158 132/157/158 147/183/158 148/185/158
f 141/160/159 140/158/159 155/184/159 156/170/159
f 134/161/160 133/159/160 148/185/160 149/172/160
f 146/181/161 145/179/161 160/187/161 161/186/161
f 154/182/162 153/180/162 168/189/162 169/188/162
f 147/183/163 146/181/163 161/186/163 162/190/163
f 155/184/164 154/182/164 169/188/164 170/191/164
f 148/185/165 147/183/165 162/190/165 163/192/165
f 156/170/166 155/184/166 170/191/166 171/193/166
f 149/172/167 148/185/167 163/192/167 164/194/167
f 157/169/168 156/170/168 171/193/168 172/195/168
f 150/171/169 149/172/169 164/194/169 165/196/169
f 143/173/170 82/198/170 158/197/170
f 308/199/171 157/169/171 172/195/171
f 151/176/172 150/171/172 165/196/172 166/200/172
f 144/177/173 143/173/173 158/197/173 159/201/173
f 152/178/174 151/176/174 166/200/174 167/202/174
f 145/179/175 144/177/175 159/201/175 160/187/175
f 153/180/176 152/178/176 167/202/176 168/189/176
f 165/196/177 164/194/177 179/204/177 180/203/177
f 158/197/178 82/206/178 173/205/178
f 308/207/179 172/195/179 187/208/179
f 166/200/180 165/196/180 180/203/180 181/209/180
f 159/201/181 158/197/181 173/205/181 174/210/181
f 167/202/182 166/200/182 181/209/182 182/211/182
f 160/187/183 159/201/183 174/210/183 175/212/183
f 168/189/184 167/202/184 182/211/184 183/213/184
f 161/186/185 160/187/185 175/212/185 176/214/185
f 169/188/186 168/189/186 183/213/186 184/215/186
f 162/190/187 161/186/187 176/214/187 177/216/187
f 170/191/188 169/188/188 184/215/188 185/217/188
f 163/192/189 162/190/189 177/216/189 178/218/189
f 171/193/190 170/191/190 185/217/190 186/219/190
f 164/194/191 163/192/191 178/218/191 179/204/191
f 172/195/192 171/193/192 186/219/192 187/208/192
f 184/215/193 183/213/193 198/221/193 199/220/193
f 177/216/194 176/214/194 191/223/194 192/222/194
f 185/217/195 184/215/195 199/220/195 200/224/195
f 178/218/196 177/216/196 192/222/196 193/225/196
f 186/219/197 185/217/197 200/224/197 201/226/197
f 179/204/198 178/218/198 193/225/198 194/227/198
f 187/208/199 186/219/199 201/226/199 202/228/199
f 180/203/200 179/204/200 194/227/200 195/229/200
f 173/205/201 82/231/201 188/230/201
f 308/232/202 187/208/202 202/228/202
f 181/209/203 180/203/203 195/229/203 196/233/203
f 174/210/204 173/205/204 188/230/204 189/234/204
f 182/211/205 181/209/205 196/233/205 197/235/205
f 175/212/206 174/210/206 189/234/206 190/236/206
f 183/213/207 182/211/207 197/235/207 198/221/207
f 176/214/208 175/212/208 190/236/208 191/223/208
f 308/237/209 202/228/209 217/238/209
f 196/233/210 195/229/210 210/240/210 211/239/210
f 189/234/211 188/230/211 203/242/211 204/241/211
f 197/235/212 196/233/212 211/239/212 212/243/212
f 190/236/213 189/234/213 204/241/213 205/244/213
f 198/221/214 197/235/214 212/243/214 213/245/214
f 191/223/215 190/236/215 205/244/215 206/246/215
f 199/220/216 198/221/216 213/245/216 214/247/216
f 192/222/217 191/223/217 206/246/217 207/248/217
f 200/224/218 199/220/218 214/247/218 215/249/218
f 193/225/219 192/222/219 207/248/219 208/250/219
f 201/226/220 200/224/220 215/249/220 216/251/220
f 194/227/221 193/225/221 208/250/221 209/252/221
f 202/228/222 201/226/222 216/251/222 217/238/222
f 195/229/223 194/227/223 209/252/223 210/240/223
f 188/230/224 82/253/224 203/242/224
f 215/249/225 214/247/225 229/255/225 230/254/225
f 208/250/226 207/248/226 222/257/226 223/256/226
f 216/251/227 215/249/227 230/254/227 231/258/227
f 209/252/228 208/250/228 223/256/228 224/259/228
f 217/238/229 216/251/229 231/258/229 232/260/229
f 210/240/230 209/252/230 224/259/230 225/261/230
f 203/242/231 82/263/231 218/262/231
f 308/264/232 217/238/232 232/260/232
f 211/239/233 210/240/233 225/261/233 226/265/233
f 204/241/234 203/242/234 218/262/234 219/266/234
f 212/243/235 211/239/235 226/265/235 227/267/235
f 205/244/236 204/241/236 219/266/236 220/268/236
f 213/245/237 212/243/237 227/267/237 228/269/237
f 206/246/238 205/244/238 220/268/238 221/270/238
f 214/247/239 213/245/239 228/269/239 229/255/239
f 207/248/240 206/246/240 221/270/240 222/257/240
f 219/266/241 218/262/241 233/272/241 234/271/241
f 227/267/242 226/265/242 241/274/242 242/273/242
f 220/268/243 219/266/243 234/271/243 235/275/243
f 228/269/244 227/267/244 242/273/244 243/276/244
f 221/270/245 220/268/245 235/275/245 236/277/245
f 229/255/246 228/269/246 243/276/246 244/278/246
f 222/257/247 221/270/247 236/277/247 237/279/247
f 230/254/248 229/255/248 244/278/248 245/280/248
f 223/256/249 222/257/249 237/279/249 238/281/249
f 231/258/250 230/254/250 245/280/250 246/282/250
f 224/259/251 223/256/251 238/281/251 239/283/251
f 232/260/252 231/258/252 246/282/252 247/284/252
f 225/261/253 224/259/253 239/283/253 240/285/253
f 218/262/254 82/286/254 233/272/254
f 308/287/255 232/260/255 247/284/255
f 226/265/256 225/261/256 240/285/256 241/274/256
f 238/281/257 237/279/257 252/289/257 253/288/257
f 246/282/258 245/280/258 260/291/258 261/290/258
f 239/283/259 238/281/259 253/288/259 254/292/259
f 247/284/260 246/282/260 261/290/260 262/293/260
f 240/285/261 239/283/261 254/292/261 255/294/261
f 233/272/262 82/296/262 248/295/262
f 308/297/263 247/284/263 262/293/263
f 241/274/264 240/285/264 255/294/264 256/298/264
f 234/271/265 233/272/265 248/295/265 249/299/265
f 242/273/266 241/274/266 256/298/266 257/300/266
f 235/275/267 234/271/267 249/299/267 250/301/267
f 243/276/268 242/273/268 257/300/268 258/302/268
f 236/277/269 235/275/269 250/301/269 251/303/269
f 244/278/270 243/276/270 258/302/270 259/304/270
f 237/279/271 236/277/271 251/303/271 252/289/271
f 245/280/272 244/278/272 259/304/272 260/291/272
f 257/300/273 256/298/273 271/306/273 272/305/273
f 250/301/274 249/299/274 264/308/274 265/307/274
f 258/302/275 257/300/275 272/305/275 273/309/275
f 251/303/276 250/301/276 265/307/276 266/310/276
f 259/304/277 258/302/277 273/309/277 274/311/277
f 252/289/278 251/303/278 266/310/278 267/312/278
f 260/291/279 259/304/279 274/311/279 275/313/279
f 253/288/280 252/289/280 267/312/280 268/314/280
f 261/290/281 260/291/281 275/313/281 276/315/281
f 254/292/282 253/288/282 268/314/282 269/316/282
f 262/293/283 261/290/283 276/315/283 277/317/283
f 255/294/284 254/292/284 269/316/284 270/318/284
f 248/295/285 82/320/285 263/319/285
f 308/321/286 262/293/286 277/317/286
f 256/298/287 255/294/287 270/318/287 271/306/287
f 249/299/288 248/295/288 263/319/288 264/308/288
f 276/315/289 275/313/289 290/323/289 291/322/289
f 269/316/290 268/314/290 283/325/290 284/324/290
f 277/317/291 276/315/291 291/322/291 292/326/291
f 270/318/292 269/316/292 284/324/292 285/327/292
f 263/319/293 82/329/293 278/328/293
f 308/330/294 277/317/294 292/326/294
f 271/306/295 270/318/295 285/327/295 286/331/295
f 264/308/296 263/319/296 278/328/296 279/332/296
f 272/305/297 271/306/297 286/331/297 287/333/297
f 265/307/298 264/308/298 279/332/298 280/334/298
f 273/309/299 272/305/299 287/333/299 288/335/299
f 266/310/300 265/307/300 280/334/300 281/336/300
f 274/311/301 273/309/301 288/335/301 289/337/301
f 267/312/302 266/310/302 281/336/302 282/338/302
f 275/313/303 274/311/303 289/337/303 290/323/303
f 268/314/304 267/312/304 282/338/304 283/325/304
f 280/334/305 279/332/305 294/340/305 295/339/305
f 288/335/306 287/333/306 302/342/306 303/341/306
f 281/336/307 280/334/307 295/339/307 296/343/307
f 289/337/308 288/335/308 303/341/308 304/344/308
f 282/338/309 281/336/309 296/343/309 297/345/309
f 290/323/310 289/337/310 304/344/310 305/346/310
f 283/325/311 282/338/311 297/345/311 298/347/311
f 291/322/312 290/323/312 305/346/312 306/348/312
f 284/324/313 283/325/313 298/347/313 299/349/313
f 292/326/314 291/322/314 306/348/314 307/350/314
f 285/327/315 284/324/315 299/349/315 300/351/315
f 278/328/316 82/353/316 293/352/316
f 308/354/317 292/326/317 307/350/317
f 286/331/318 285/327/318 300/351/318 301/355/318
f 279/332/319 278/328/319 293/352/319 294/340/319
f 287/333/320 286/331/320 301/355/320 302/342/320
f 299/349/321 298/347/321 314/357/321 315/356/321
f 307/350/322 306/348/322 322/359/322 323/358/322
f 300/351/323 299/349/323 315/356/323 316/360/323
f 293/352/324 82/362/324 309/361/324
f 308/363/325 307/350/325 323/358/325
f 301/355/326 300/351/326 316/360/326 317/364/326
f 294/340/327 293/352/327 309/361/327 310/365/327
f 302/342/328 301/355/328 317/364/328 318/366/328
f 295/339/329 294/340/329 310/365/329 311/367/329
f 303/341/330 302/342/330 318/366/330 319/368/330
f 296/343/331 295/339/331 311/367/331 312/369/331
f 304/344/332 303/341/332 319/368/332 320/370/332
f 297/345/333 296/343/333 312/369/333 313/371/333
f 305/346/334 304/344/334 320/370/334 321/372/334
f 298/347/335 297/345/335 313/371/335 314/357/335
f 306/348/336 305/346/336 321/372/336 322/359/336
f 319/368/337 318/366/337 333/374/337 334/373/337
f 312/369/338 311/367/338 326/376/338 327/375/338
f 320/370/339 319/368/339 334/373/339 335/377/339
f 313/371/340 312/369/340 327/375/340 328/378/340
f 321/372/341 320/370/341 335/377/341 336/379/341
f 314/357/342 313/371/342 328/378/342 329/380/342
f 322/359/343 321/372/343 336/379/343 337/381/343
f 315/356/344 314/357/344 329/380/344 330/382/344
f 323/358/345 322/359/345 337/381/345 338/383/345
f 316/360/346 315/356/346 330/382/346 331/384/346
f 309/361/347 82/386/347 324/385/347
f 308/387/348 323/358/348 338/383/348
f 317/364/349 316/360/349 331/384/349 332/388/349
f 310/365/350 309/361/350 324/385/350 325/389/350
f 318/366/351 317/364/351 332/388/351 333/374/351
f 311/367/352 310/365/352 325/389/352 326/376/352
f 338/383/353 337/381/353 352/391/353 353/390/353
f 331/384/354 330/382/354 345/393/354 346/392/354
f 324/385/355 82/395/355 339/394/355
f 308/396/356 338/383/356 353/390/356
f 332/388/357 331/384/357 346/392/357 347/397/357
f 325/389/358 324/385/358 339/394/358 340/398/358
f 333/374/359 332/388/359 347/397/359 348/399/359
f 326/376/360 325/389/360 340/398/360 341/400/360
f 334/373/361 333/374/361 348/399/361 349/401/361
f 327/375/362 326/376/362 341/400/362 342/402/362
f 335/377/363 334/373/363 349/401/363 350/403/363
f 328/378/364 327/375/364 342/402/364 343/404/364
f 336/379/365 335/377/365 350/403/365 351/405/365
f 329/380/366 328/378/366 343/404/366 344/406/366
f 337/381/367 336/379/367 351/405/367 352/391/367
f 330/382/368 329/380/368 344/406/368 345/393/368
f 350/403/369 349/401/369 364/408/369 365/407/369
f 343/404/370 342/402/370 357/410/370 358/409/370
f 351/405/371 350/403/371 365/407/371 366/411/371
f 344/406/372 343/404/372 358/409/372 359/412/372
f 352/391/373 351/405/373 366/411/373 367/413/373
f 345/393/374 344/406/374 359/412/374 360/414/374
f 353/390/375 352/391/375 367/413/375 368/415/375
f 346/392/376 345/393/376 360/414/376 361/416/376
f 339/394/377 82/418/377 354/417/377
f 308/419/378 353/390/378 368/415/378
f 347/397/379 346/392/379 361/416/379 362/420/379
f 340/398/380 339/394/380 354/417/380 355/421/380
f 348/399/381 347/397/381 362/420/381 363/422/381
f 341/400/382 340/398/382 355/421/382 356/423/382
f 349/401/383 348/399/383 363/422/383 364/408/383
f 342/402/384 341/400/384 356/423/384 357/410/384
f 354/424/385 82/426/385 369/425/385
f 308/427/386 368/429/386 383/428/386
f 362/430/387 361/433/387 376/432/387 377/431/387
f 355/434/388 354/424/388 369/425/388 370/435/388
f 363/436/389 362/430/389 377/431/389 378/437/389
f 356/438/390 355/434/390 370/435/390 371/439/390
f 364/440/391 363/436/391 378/437/391 379/441/391
f 357/442/392 356/438/392 371/439/392 372/443/392
f 365/444/393 364/440/393 379/441/393 380/445/393
f 358/446/394 357/442/394 372/443/394 373/447/394
f 366/448/395 365/444/395 380/445/395 381/449/395
f 359/450/396 358/446/396 373/447/396 374/451/396
f 367/452/397 366/448/397 381/449/397 382/453/397
f 360/454/398 359/450/398 374/451/398 375/455/398
f 368/429/399 367/452/399 382/453/399 383/428/399
f 361/433/400 360/454/400 375/455/400 376/432/400
f 373/447/401 372/443/401 387/457/401 388/456/401
f 381/449/402 380/445/402 395/459/402 396/458/402
f 374/451/403 373/447/403 388/456/403 389/460/403
f 382/453/404 381/449/404 396/458/404 397/461/404
f 375/455/405 374/451/405 389/460/405 390/462/405
f 383/428/406 382/453/406 397/461/406 398/463/406
f 376/432/407 375/455/407 390/462/407 391/464/407
f 369/425/408 82/466/408 384/465/408
f 308/467/409 383/428/409 398/463/409
f 377/431/410 376/432/410 391/464/410 392/468/410
f 370/435/411 369/425/411 384/465/411 385/469/411
f 378/437/412 377/431/412 392/468/412 393/470/412
f 371/439/413 370/435/413 385/469/413 386/471/413
f 379/441/414 378/437/414 393/470/414 394/472/414
f 372/443/415 371/439/415 386/471/415 387/457/415
f 380/445/416 379/441/416 394/472/416 395/459/416
f 392/468/417 391/464/417 406/474/417 407/473/417
f 385/469/418 384/465/418 399/476/418 400/475/418
f 393/470/419 392/468/419 407/473/419 408/477/419
f 386/471/420 385/469/420 400/475/420 401/478/420
f 394/472/421 393/470/421 408/477/421 409/479/421
f 387/457/422 386/471/422 401/478/422 402/480/422
f 395/459/423 394/472/423 409/479/423 410/481/423
f 388/456/424 387/457/424 402/480/424 403/482/424
f 396/458/425 395/459/425 410/481/425 411/483/425
f 389/460/426 388/456/426 403/482/426 404/484/426
f 397/461/427 396/458/427 411/483/427 412/485/427
f 390/462/428 389/460/428 404/484/428 405/486/428
f 398/463/429 397/461/429 412/485/429 413/487/429
f 391/464/430 390/462/430 405/486/430 406/474/430
f 384/465/431 82/488/431 399/476/431
f 308/489/432 398/463/432 413/487/432
f 411/483/433 410/481/433 425/491/433 426/490/433
f 404/484/434 403/482/434 418/493/434 419/492/434
f 412/485/435 411/483/435 426/490/435 427/494/435
f 405/486/436 404/484/436 419/492/436 420/495/436
f 413/487/437 412/485/437 427/494/437 428/496/437
f 406/474/438 405/486/438 420/495/438 421/497/438
f 399/476/439 82/499/439 414/498/439
f 308/500/440 413/487/440 428/496/440
f 407/473/441 406/474/441 421/497/441 422/501/441
f 400/475/442 399/476/442 414/498/442 415/502/442
f 408/477/443 407/473/443 422/501/443 423/503/443
f 401/478/444 400/475/444 415/502/444 416/504/444
f 409/479/445 408/477/445 423/503/445 424/505/445
f 402/480/446 401/478/446 416/504/446 417/506/446
f 410/481/447 409/479/447 424/505/447 425/491/447
f 403/482/448 402/480/448 417/506/448 418/493/448
f 415/502/449 414/498/449 429/508/449 430/507/449
f 423/503/450 422/501/450 437/510/450 438/509/450
f 416/504/451 415/502/451 430/507/451 431/511/451
f 424/505/452 423/503/452 438/509/452 439/512/452
f 417/506/453 416/504/453 431/511/453 432/513/453
f 425/491/454 424/505/454 439/512/454 440/514/454
f 418/493/455 417/506/455 432/513/455 433/515/455
f 426/490/456 425/491/456 440/514/456 441/516/456
f 419/492/457 418/493/457 433/515/457 434/517/457
f 427/494/458 426/490/458 441/516/458 442/518/458
f 420/495/459 419/492/459 434/517/459 435/519/459
f 428/496/460 427/494/460 442/518/460 443/520/460
f 421/497/461 420/495/461 435/519/461 436/521/461
f 414/498/462 82/522/462 429/508/462
f 308/523/463 428/496/463 443/520/463
f 422/501/464 421/497/464 436/521/464 437/510/464
f 434/517/465 433/515/465 448/525/465 449/524/465
f 442/518/466 441/516/466 456/527/466 457/526/466
f 435/519/467 434/517/467 449/524/467 450/528/467
f 443/520/468 442/518/468 457/526/468 458/529/468
f 436/521/469 435/519/469 450/528/469 451/530/469
f 429/508/470 82/532/470 444/531/470
f 308/533/471 443/520/471 458/529/471
f 437/510/472 436/521/472 451/530/472 452/534/472
f 430/507/473 429/508/473 444/531/473 445/535/473
f 438/509/474 437/510/474 452/534/474 453/536/474
f 431/511/475 430/507/475 445/535/475 446/537/475
f 439/512/476 438/509/476 453/536/476 454/538/476
f 432/513/477 431/511/477 446/537/477 447/539/477
f 440/514/478 439/512/478 454/538/478 455/540/478
f 433/515/479 432/513/479 447/539/479 448/525/479
f 441/516/480 440/514/480 455/540/480 456/527/480
f 453/536/481 452/534/481 467/542/481 468/541/481
f 446/537/482 445/535/482 460/544/482 461/543/482
f 454/538/483 453/536/483 468/541/483 469/545/483
f 447/539/484 446/537/484 461/543/484 462/546/484
f 455/540/485 454/538/485 469/545/485 470/547/485
f 448/525/486 447/539/486 462/546/486 463/548/486
f 456/527/487 455/540/487 470/547/487 471/549/487
f 449/524/488 448/525/488 463/548/488 464/550/488
f 457/526/489 456/527/489 471/549/489 472/551/489
f 450/528/490 449/524/490 464/550/490 465/552/490
f 458/529/491 457/526/491 472/551/491 473/553/491
f 451/530/492 450/528/492 465/552/492 466/554/492
f 444/531/493 82/556/493 459/555/493
f 308/557/494 458/529/494 473/553/494
f 452/534/495 451/530/495 466/554/495 467/542/495
f 445/535/496 444/531/496 459/555/496 460/544/496
f 472/551/497 471/549/497 480/4/497 481/1/497
f 465/552/498 464/550/498 477/8/498 3/5/498
f 473/553/499 472/551/499 481/1/499 482/9/499
f 466/554/500 465/552/500 3/5/500 4/11/500
f 459/555/501 82/558/501 474/13/501
f 308/559/502 473/553/502 482/9/502
f 467/542/503 466/554/503 4/11/503 5/17/503
f 460/544/504 459/555/504 474/13/504 475/19/504
f 468/541/505 467/542/505 5/17/505 478/21/505
f 461/543/506 460/544/506 475/19/506 1/23/506
f 469/545/507 468/541/507 478/21/507 6/25/507
f 462/546/508 461/543/508 1/23/508 476/27/508
f 470/547/509 469/545/509 6/25/509 479/29/509
f 463/548/510 462/546/510 476/27/510 2/31/510
f 471/549/511 470/547/511 479/29/511 480/4/511
f 464/550/512 463/548/512 2/31/512 477/8/512
