# Blender 4.1.1
# www.blender.org
mtllib block.mtl
o 立方体
v 0.503832 -0.503832 -0.503832
v 0.503832 0.503832 -0.503832
v 0.503832 -0.503832 0.503832
v 0.503832 0.503832 0.503832
v -0.503832 -0.503832 -0.503832
v -0.503832 0.503832 -0.503832
v -0.503832 -0.503832 0.503832
v -0.503832 0.503832 0.503832
vn 1.0000 -0.0000 -0.0000
vn -0.0000 -0.0000 1.0000
vn -1.0000 -0.0000 -0.0000
vn -0.0000 -0.0000 -1.0000
vn -0.0000 -1.0000 -0.0000
vn -0.0000 1.0000 -0.0000
vt 0.252393 0.004786
vt 0.500000 0.004786
vt 0.500000 0.252393
vt 0.252393 0.252393
vt 0.500000 0.500000
vt 0.252393 0.500000
vt 0.500000 0.747607
vt 0.252393 0.747607
vt 0.500000 0.995214
vt 0.252393 0.995214
vt 0.004786 0.500000
vt 0.004786 0.747607
vt 0.747607 0.500000
vt 0.747607 0.747607
s 0
usemtl マテリアル
f 1/1/1 2/2/1 4/3/1 3/4/1
f 3/4/2 4/3/2 8/5/2 7/6/2
f 7/6/3 8/5/3 6/7/3 5/8/3
f 5/8/4 6/7/4 2/9/4 1/10/4
f 3/11/5 7/6/5 5/8/5 1/12/5
f 8/5/6 4/13/6 2/14/6 6/7/6
