# Blender 4.1.1
# www.blender.org
mtllib skydome.mtl
o 球.001
v 0.000000 196.197464 -131.094940
v 0.000000 131.094971 -196.197433
v 0.000000 46.034447 -231.430664
v 0.000000 0.000018 -235.964676
v 0.000000 -46.034409 -231.430664
v 0.000000 -131.094940 -196.197464
v -8.980869 231.430664 -45.149864
v -17.616613 218.002930 -88.564682
v -25.575357 196.197464 -128.575989
v -32.551254 166.852234 -163.646179
v -38.276222 131.094971 -192.427551
v -42.530262 90.299789 -213.814056
v -45.149883 46.034443 -226.983795
v -46.034428 0.000017 -231.430664
v -45.149883 -46.034412 -226.983795
v -42.530262 -90.299759 -213.814056
v -38.276222 -131.094940 -192.427582
v -32.551254 -166.852203 -163.646210
v -25.575357 -196.197433 -128.576019
v -17.616613 -218.002930 -88.564713
v -8.980869 -231.430664 -45.149902
v -17.616611 231.430664 -42.530243
v -34.556229 218.002930 -83.426109
v -50.167870 196.197464 -121.115913
v -63.851582 166.852234 -154.151337
v -75.081512 131.094971 -181.262772
v -83.426102 90.299789 -201.408447
v -88.564690 46.034443 -213.814056
v -90.299767 0.000016 -218.002930
v -88.564690 -46.034412 -213.814056
v -83.426102 -90.299759 -201.408447
v -75.081512 -131.094940 -181.262802
v -63.851582 -166.852203 -154.151367
v -50.167870 -196.197433 -121.115944
v -34.556229 -218.002930 -83.426140
v -17.616611 -231.430664 -42.530281
v -25.575354 231.430664 -38.276199
v -50.167870 218.002930 -75.081505
v -72.832451 196.197464 -109.001434
v -92.698128 166.852234 -138.732529
v -109.001450 131.094971 -163.132172
v -121.115929 90.299789 -181.262802
v -128.576004 46.034443 -192.427567
v -131.094955 0.000015 -196.197433
v -128.576004 -46.034412 -192.427567
v -121.115929 -90.299759 -181.262802
v -109.001450 -131.094940 -163.132202
v -92.698128 -166.852203 -138.732559
v -72.832451 -196.197433 -109.001465
v -50.167870 -218.002930 -75.081535
v -25.575354 -231.430664 -38.276237
v -32.551250 231.430664 -32.551228
v -63.851582 218.002930 -63.851562
v -92.698120 196.197449 -92.698097
v -117.982338 166.852234 -117.982323
v -138.732529 131.094971 -138.732513
v -154.151337 90.299789 -154.151352
v -163.646194 46.034439 -163.646179
v -166.852219 0.000013 -166.852188
v -163.646194 -46.034416 -163.646179
v -154.151337 -90.299759 -154.151352
v -138.732529 -131.094940 -138.732544
v -117.982338 -166.852203 -117.982353
v -92.698120 -196.197449 -92.698128
v -63.851582 -218.002930 -63.851593
v -32.551250 -231.430664 -32.551266
v -38.276218 231.430664 -25.575335
v -75.081520 218.002930 -50.167847
v -109.001465 196.197449 -72.832420
v -138.732544 166.852219 -92.698112
v -163.132202 131.094971 -109.001427
v -181.262787 90.299782 -121.115944
v -192.427567 46.034439 -128.575974
v -196.197449 0.000010 -131.094894
v -192.427567 -46.034416 -128.575974
v -181.262787 -90.299767 -121.115959
v -163.132202 -131.094940 -109.001442
v -138.732544 -166.852219 -92.698143
v -109.001465 -196.197449 -72.832451
v -75.081520 -218.002930 -50.167877
v -38.276218 -231.430664 -25.575369
v 0.000000 235.964676 0.000018
v -42.530251 231.430664 -17.616590
v -83.426102 218.002930 -34.556206
v -121.115929 196.197449 -50.167835
v -154.151352 166.852219 -63.851570
v -181.262787 131.094955 -75.081474
v -201.408432 90.299782 -83.426117
v -213.814041 46.034435 -88.564659
v -218.002899 0.000007 -90.299721
v -213.814041 -46.034420 -88.564659
v -201.408432 -90.299767 -83.426132
v -181.262787 -131.094955 -75.081490
v -154.151352 -166.852219 -63.851593
v -121.115929 -196.197449 -50.167866
v -83.426102 -218.002930 -34.556236
v -42.530251 -231.430664 -17.616625
v -45.149876 231.430664 -8.980848
v -88.564682 218.002930 -17.616590
v -128.575989 196.197449 -25.575327
v -163.646194 166.852219 -32.551250
v -192.427551 131.094955 -38.276192
v -213.814041 90.299774 -42.530262
v -226.983780 46.034431 -45.149857
v -231.430634 0.000003 -46.034378
v -226.983780 -46.034424 -45.149864
v -213.814041 -90.299774 -42.530277
v -192.427551 -131.094955 -38.276215
v -163.646194 -166.852219 -32.551273
v -128.575989 -196.197449 -25.575357
v -88.564682 -218.002930 -17.616625
v -45.149876 -231.430664 -8.980883
v -46.034409 231.430664 0.000020
v -90.299767 218.002930 0.000021
v -131.094925 196.197449 0.000027
v -166.852203 166.852219 0.000010
v -196.197418 131.094955 0.000031
v -218.002930 90.299774 -0.000003
v -231.430649 46.034428 0.000025
v -235.964615 -0.000000 0.000038
v -231.430649 -46.034428 0.000018
v -218.002930 -90.299774 -0.000016
v -196.197418 -131.094955 0.000011
v -166.852203 -166.852219 -0.000015
v -131.094925 -196.197449 -0.000003
v -90.299767 -218.002930 -0.000012
v -46.034409 -231.430664 -0.000015
v -45.149872 231.430664 8.980886
v -88.564682 218.002930 17.616632
v -128.575974 196.197449 25.575378
v -163.646179 166.852219 32.551258
v -192.427536 131.094955 38.276249
v -213.814041 90.299774 42.530258
v -226.983749 46.034424 45.149906
v -231.430603 -0.000003 46.034451
v -226.983749 -46.034431 45.149899
v -213.814041 -90.299774 42.530243
v -192.427536 -131.094955 38.276226
v -163.646179 -166.852219 32.551235
v -128.575974 -196.197449 25.575348
v -88.564682 -218.002930 17.616598
v -45.149872 -231.430664 8.980852
v -42.530247 231.430664 17.616627
v -83.426102 218.002930 34.556244
v -121.115906 196.197449 50.167885
v -154.151337 166.852219 63.851582
v -181.262756 131.094955 75.081528
v -201.408432 90.299767 83.426102
v -213.814026 46.034420 88.564697
v -218.002838 -0.000007 90.299774
v -213.814026 -46.034435 88.564697
v -201.408432 -90.299782 83.426086
v -181.262756 -131.094955 75.081512
v -154.151337 -166.852219 63.851559
v -121.115906 -196.197449 50.167854
v -83.426102 -218.002930 34.556213
v -42.530247 -231.430664 17.616592
v -38.276207 231.430664 25.575363
v -75.081505 218.002930 50.167881
v -109.001427 196.197449 72.832458
v -138.732529 166.852219 92.698128
v -163.132172 131.094940 109.001457
v -181.262787 90.299767 121.115921
v -192.427536 46.034416 128.575989
v -196.197342 -0.000010 131.094940
v -192.427536 -46.034439 128.575989
v -181.262787 -90.299782 121.115906
v -163.132172 -131.094971 109.001442
v -138.732529 -166.852219 92.698097
v -109.001427 -196.197449 72.832428
v -75.081505 -218.002930 50.167850
v -38.276207 -231.430664 25.575329
v -32.551239 231.430664 32.551258
v -63.851562 218.002930 63.851593
v -92.698074 196.197449 92.698128
v -117.982323 166.852203 117.982338
v -138.732498 131.094940 138.732544
v -154.151337 90.299759 154.151321
v -163.646164 46.034416 163.646179
v -166.852097 -0.000013 166.852188
v -163.646164 -46.034439 163.646179
v -154.151337 -90.299789 154.151321
v -138.732498 -131.094971 138.732513
v -117.982323 -166.852234 117.982307
v -92.698074 -196.197449 92.698097
v -63.851562 -218.002930 63.851562
v -32.551239 -231.430664 32.551220
v -25.575342 231.430664 38.276226
v -50.167847 218.002930 75.081528
v -72.832405 196.197433 109.001457
v -92.698112 166.852203 138.732544
v -109.001419 131.094940 163.132202
v -121.115929 90.299759 181.262772
v -128.575943 46.034412 192.427551
v -131.094833 -0.000015 196.197403
v -128.575943 -46.034443 192.427551
v -121.115929 -90.299789 181.262772
v -109.001419 -131.094971 163.132172
v -92.698112 -166.852234 138.732513
v -72.832405 -196.197464 109.001427
v -50.167847 -218.002930 75.081497
v -25.575342 -231.430664 38.276188
v -17.616598 231.430664 42.530258
v -34.556206 218.002930 83.426109
v -50.167824 196.197433 121.115921
v -63.851570 166.852203 154.151352
v -75.081474 131.094940 181.262772
v -83.426102 90.299759 201.408401
v -88.564636 46.034412 213.814026
v -90.299660 -0.000016 218.002853
v -88.564636 -46.034443 213.814026
v -83.426102 -90.299789 201.408401
v -75.081474 -131.094971 181.262741
v -63.851570 -166.852234 154.151321
v -50.167824 -196.197464 121.115891
v -34.556206 -218.002930 83.426079
v -17.616598 -231.430664 42.530220
v -8.980863 231.430664 45.149876
v -17.616594 218.002930 88.564674
v -25.575323 196.197433 128.575958
v -32.551247 166.852203 163.646194
v -38.276188 131.094940 192.427521
v -42.530262 90.299759 213.814026
v -45.149837 46.034412 226.983734
v -46.034328 -0.000017 231.430557
v -45.149837 -46.034443 226.983734
v -42.530262 -90.299789 213.814026
v -38.276188 -131.094971 192.427490
v -32.551247 -166.852234 163.646164
v -25.575323 -196.197464 128.575928
v -17.616594 -218.002930 88.564644
v -8.980863 -231.430664 45.149837
v 0.000002 231.430664 46.034416
v 0.000012 218.002930 90.299767
v 0.000024 196.197433 131.094894
v 0.000002 166.852203 166.852203
v 0.000024 131.094940 196.197388
v -0.000007 90.299759 218.002869
v 0.000031 46.034409 231.430618
v 0.000078 -0.000018 235.964523
v 0.000031 -46.034447 231.430618
v -0.000007 -90.299789 218.002869
v 0.000024 -131.094971 196.197357
v 0.000002 -166.852234 166.852173
v 0.000024 -196.197464 131.094864
v 0.000012 -218.002930 90.299736
v 0.000002 -231.430664 46.034378
v 8.980865 231.430664 45.149872
v 17.616617 218.002930 88.564674
v 25.575367 196.197433 128.575943
v 32.551250 166.852203 163.646179
v 38.276237 131.094940 192.427505
v 42.530243 90.299759 213.814011
v 45.149902 46.034412 226.983719
v 46.034473 -0.000017 231.430511
v 45.149902 -46.034443 226.983719
v 42.530243 -90.299789 213.814011
v 38.276237 -131.094971 192.427475
v 32.551250 -166.852234 163.646149
v 25.575367 -196.197464 128.575912
v 17.616617 -218.002930 88.564644
v 8.980865 -231.430664 45.149834
v 17.616598 231.430664 42.530254
v 34.556229 218.002930 83.426109
v 50.167862 196.197433 121.115875
v 63.851570 166.852203 154.151337
v 75.081512 131.094940 181.262756
v 83.426079 90.299759 201.408386
v 88.564690 46.034412 213.813965
v 90.299789 -0.000016 218.002747
v 88.564690 -46.034443 213.813965
v 83.426079 -90.299789 201.408386
v 75.081512 -131.094971 181.262726
v 63.851570 -166.852234 154.151306
v 50.167862 -196.197464 121.115845
v 34.556229 -218.002930 83.426079
v 17.616598 -231.430664 42.530216
v 25.575338 231.430664 38.276215
v 50.167862 218.002930 75.081505
v 72.832428 196.197433 109.001396
v 92.698112 166.852203 138.732544
v 109.001434 131.094940 163.132156
v 121.115883 90.299759 181.262756
v 128.575989 46.034412 192.427490
v 131.094925 -0.000015 196.197250
v 128.575989 -46.034443 192.427490
v 121.115883 -90.299789 181.262756
v 109.001434 -131.094971 163.132126
v 92.698112 -166.852234 138.732513
v 72.832428 -196.197464 109.001366
v 50.167862 -218.002930 75.081474
v 25.575338 -231.430664 38.276176
v 32.551228 231.430664 32.551247
v 63.851570 218.002930 63.851570
v 92.698082 196.197449 92.698067
v 117.982323 166.852203 117.982330
v 138.732498 131.094940 138.732483
v 154.151306 90.299759 154.151306
v 163.646164 46.034416 163.646103
v 166.852158 -0.000013 166.852020
v 163.646164 -46.034439 163.646103
v 154.151306 -90.299789 154.151306
v 138.732498 -131.094971 138.732452
v 117.982323 -166.852234 117.982300
v 92.698082 -196.197449 92.698036
v 63.851570 -218.002930 63.851540
v 32.551228 -231.430664 32.551208
v 0.000000 -235.964676 -0.000018
v 38.276196 231.430664 25.575350
v 75.081497 218.002930 50.167858
v 109.001411 196.197449 72.832390
v 138.732529 166.852219 92.698120
v 163.132172 131.094940 109.001396
v 181.262741 90.299767 121.115913
v 192.427536 46.034416 128.575912
v 196.197342 -0.000010 131.094757
v 192.427536 -46.034439 128.575912
v 181.262741 -90.299782 121.115898
v 163.132172 -131.094971 109.001381
v 138.732529 -166.852219 92.698090
v 109.001411 -196.197449 72.832359
v 75.081497 -218.002930 50.167828
v 38.276196 -231.430664 25.575315
v 42.530228 231.430664 17.616610
v 83.426086 218.002930 34.556221
v 121.115860 196.197449 50.167812
v 154.151321 166.852219 63.851574
v 181.262741 131.094955 75.081451
v 201.408386 90.299767 83.426094
v 213.814011 46.034420 88.564598
v 218.002777 -0.000007 90.299599
v 213.814011 -46.034435 88.564598
v 201.408386 -90.299782 83.426079
v 181.262741 -131.094955 75.081436
v 154.151321 -166.852219 63.851551
v 121.115860 -196.197449 50.167782
v 83.426086 -218.002930 34.556190
v 42.530228 -231.430664 17.616575
v 45.149849 231.430664 8.980876
v 88.564651 218.002930 17.616610
v 128.575912 196.197449 25.575319
v 163.646164 166.852219 32.551250
v 192.427490 131.094955 38.276180
v 213.813995 90.299774 42.530254
v 226.983719 46.034424 45.149811
v 231.430496 -0.000003 46.034279
v 226.983719 -46.034431 45.149803
v 213.813995 -90.299774 42.530239
v 192.427490 -131.094955 38.276157
v 163.646164 -166.852219 32.551228
v 128.575912 -196.197449 25.575289
v 88.564651 -218.002930 17.616575
v 45.149849 -231.430664 8.980842
v 46.034382 231.430664 0.000013
v 90.299736 218.002930 0.000005
v 131.094849 196.197449 -0.000021
v 166.852188 166.852219 0.000006
v 196.197357 131.094955 -0.000028
v 218.002853 90.299774 0.000004
v 231.430573 46.034428 -0.000060
v 235.964462 0.000000 -0.000106
v 231.430573 -46.034428 -0.000067
v 218.002853 -90.299774 -0.000009
v 196.197357 -131.094955 -0.000048
v 166.852188 -166.852219 -0.000020
v 131.094849 -196.197449 -0.000050
v 90.299736 -218.002930 -0.000028
v 46.034382 -231.430664 -0.000022
v 45.149845 231.430664 -8.980850
v 88.564644 218.002930 -17.616598
v 128.575882 196.197449 -25.575354
v 163.646164 166.852219 -32.551243
v 192.427460 131.094955 -38.276234
v 213.813965 90.299774 -42.530243
v 226.983688 46.034431 -45.149925
v 231.430435 0.000003 -46.034485
v 226.983688 -46.034424 -45.149933
v 213.813965 -90.299774 -42.530258
v 192.427460 -131.094955 -38.276257
v 163.646164 -166.852219 -32.551266
v 128.575882 -196.197449 -25.575384
v 88.564644 -218.002930 -17.616632
v 45.149845 -231.430664 -8.980885
v 42.530220 231.430664 -17.616581
v 83.426071 218.002930 -34.556206
v 121.115814 196.197449 -50.167839
v 154.151306 166.852219 -63.851559
v 181.262680 131.094955 -75.081505
v 201.408356 90.299782 -83.426071
v 213.813934 46.034435 -88.564697
v 218.002670 0.000007 -90.299789
v 213.813934 -46.034420 -88.564697
v 201.408356 -90.299767 -83.426086
v 181.262680 -131.094955 -75.081520
v 154.151306 -166.852219 -63.851582
v 121.115814 -196.197449 -50.167870
v 83.426071 -218.002930 -34.556236
v 42.530220 -231.430664 -17.616615
v 38.276188 231.430664 -25.575321
v 75.081474 218.002930 -50.167835
v 109.001335 196.197449 -72.832405
v 138.732498 166.852219 -92.698097
v 163.132095 131.094971 -109.001427
v 181.262741 90.299782 -121.115875
v 192.427444 46.034439 -128.575989
v 196.197174 0.000010 -131.094910
v 192.427444 -46.034416 -128.575989
v 181.262741 -90.299767 -121.115891
v 163.132095 -131.094940 -109.001442
v 138.732498 -166.852219 -92.698128
v 109.001335 -196.197449 -72.832436
v 75.081474 -218.002930 -50.167866
v 38.276188 -231.430664 -25.575356
v 32.551220 231.430664 -32.551208
v 63.851540 218.002930 -63.851540
v 92.698006 196.197449 -92.698059
v 117.982292 166.852234 -117.982300
v 138.732422 131.094971 -138.732483
v 154.151276 90.299789 -154.151276
v 163.646072 46.034439 -163.646164
v 166.851974 0.000013 -166.852112
v 163.646072 -46.034416 -163.646164
v 154.151276 -90.299759 -154.151276
v 138.732422 -131.094940 -138.732513
v 117.982292 -166.852203 -117.982330
v 92.698006 -196.197449 -92.698090
v 63.851540 -218.002930 -63.851570
v 32.551220 -231.430664 -32.551247
v 25.575327 231.430664 -38.276169
v 50.167828 218.002930 -75.081467
v 72.832336 196.197464 -109.001373
v 92.698082 166.852234 -138.732513
v 109.001350 131.094971 -163.132126
v 121.115875 90.299789 -181.262741
v 128.575867 46.034443 -192.427490
v 131.094711 0.000015 -196.197311
v 128.575867 -46.034412 -192.427490
v 121.115875 -90.299759 -181.262741
v 109.001350 -131.094940 -163.132156
v 92.698082 -166.852203 -138.732544
v 72.832336 -196.197433 -109.001404
v 50.167828 -218.002930 -75.081497
v 25.575327 -231.430664 -38.276207
v 17.616590 231.430664 -42.530201
v 34.556198 218.002930 -83.426064
v 50.167767 196.197464 -121.115814
v 63.851547 166.852234 -154.151306
v 75.081413 131.094971 -181.262680
v 83.426056 90.299789 -201.408356
v 88.564575 46.034443 -213.813965
v 90.299568 0.000016 -218.002731
v 88.564575 -46.034412 -213.813965
v 83.426056 -90.299759 -201.408356
v 75.081413 -131.094940 -181.262711
v 63.851547 -166.852203 -154.151337
v 50.167767 -196.197433 -121.115845
v 34.556198 -218.002930 -83.426094
v 17.616590 -231.430664 -42.530239
v 8.980859 231.430664 -45.149815
v 17.616587 218.002930 -88.564629
v 25.575277 196.197464 -128.575851
v 32.551228 166.852234 -163.646149
v 38.276142 131.094971 -192.427429
v 42.530228 90.299789 -213.813965
v 45.149796 46.034443 -226.983688
v 46.034260 0.000017 -231.430420
v 45.149796 -46.034412 -226.983688
v 42.530228 -90.299759 -213.813965
v 38.276142 -131.094940 -192.427460
v 32.551228 -166.852203 -163.646179
v 25.575277 -196.197433 -128.575882
v 17.616587 -218.002930 -88.564659
v 8.980859 -231.430664 -45.149853
v -0.000002 231.430664 -46.034355
v -0.000017 218.002930 -90.299706
v -0.000021 166.852234 -166.852173
v -0.000014 90.299789 -218.002823
v -0.000014 -90.299759 -218.002823
v -0.000021 -166.852203 -166.852203
v -0.000052 -196.197433 -131.094803
v -0.000017 -218.002930 -90.299736
v -0.000002 -231.430664 -46.034393
vn 0.0938 0.2890 0.9527
vn 0.0464 -0.8810 0.4709
vn 0.0865 0.4696 0.8786
vn 0.0624 -0.7715 0.6332
vn 0.0759 0.6326 0.7708
vn 0.0759 -0.6326 0.7708
vn 0.0624 0.7715 0.6332
vn 0.0865 -0.4696 0.8786
vn 0.0464 0.8810 0.4709
vn 0.0938 -0.2890 0.9527
vn 0.0286 0.9565 0.2902
vn 0.0976 -0.0976 0.9904
vn 0.0097 -0.9951 0.0980
vn 0.0097 0.9951 0.0980
vn 0.0975 0.0975 0.9904
vn 0.0286 -0.9565 0.2902
vn 0.2889 0.0975 0.9524
vn 0.0846 -0.9565 0.2790
vn 0.2779 0.2890 0.9161
vn 0.1374 -0.8810 0.4528
vn 0.2563 0.4696 0.8448
vn 0.1847 -0.7715 0.6088
vn 0.2248 0.6326 0.7412
vn 0.2248 -0.6326 0.7412
vn 0.1847 0.7715 0.6088
vn 0.2563 -0.4696 0.8448
vn 0.1374 0.8810 0.4528
vn 0.2779 -0.2890 0.9161
vn 0.0846 0.9565 0.2790
vn 0.2889 -0.0975 0.9524
vn 0.0286 -0.9951 0.0942
vn 0.0286 0.9951 0.0942
vn 0.2999 0.7715 0.5611
vn 0.4162 -0.4696 0.7786
vn 0.2231 0.8810 0.4173
vn 0.4513 -0.2890 0.8443
vn 0.1374 0.9565 0.2571
vn 0.4691 -0.0975 0.8777
vn 0.0464 -0.9951 0.0869
vn 0.0464 0.9951 0.0869
vn 0.4691 0.0975 0.8777
vn 0.1374 -0.9565 0.2571
vn 0.4513 0.2890 0.8443
vn 0.2230 -0.8810 0.4173
vn 0.4162 0.4696 0.7786
vn 0.2999 -0.7715 0.5611
vn 0.3651 0.6326 0.6831
vn 0.3651 -0.6326 0.6831
vn 0.1850 -0.9565 0.2254
vn 0.6073 0.2890 0.7400
vn 0.3002 -0.8810 0.3658
vn 0.5601 0.4696 0.6825
vn 0.4036 -0.7715 0.4918
vn 0.4913 0.6326 0.5987
vn 0.4913 -0.6326 0.5987
vn 0.4036 0.7715 0.4918
vn 0.5601 -0.4696 0.6825
vn 0.3002 0.8810 0.3658
vn 0.6073 -0.2890 0.7400
vn 0.1850 0.9565 0.2254
vn 0.6314 -0.0975 0.7693
vn 0.0625 -0.9951 0.0761
vn 0.0625 0.9951 0.0761
vn 0.6314 0.0975 0.7693
vn 0.6825 -0.4696 0.5601
vn 0.3658 0.8810 0.3002
vn 0.7400 -0.2890 0.6073
vn 0.2254 0.9565 0.1850
vn 0.7693 -0.0975 0.6314
vn 0.0761 -0.9951 0.0625
vn 0.0761 0.9951 0.0625
vn 0.7693 0.0975 0.6314
vn 0.2254 -0.9565 0.1850
vn 0.7400 0.2890 0.6073
vn 0.3658 -0.8810 0.3002
vn 0.6825 0.4696 0.5601
vn 0.4918 -0.7715 0.4036
vn 0.5987 0.6326 0.4913
vn 0.5987 -0.6326 0.4913
vn 0.4918 0.7715 0.4036
vn 0.8443 0.2890 0.4513
vn 0.4173 -0.8810 0.2231
vn 0.7786 0.4696 0.4162
vn 0.5611 -0.7715 0.2999
vn 0.6831 0.6326 0.3651
vn 0.6831 -0.6326 0.3651
vn 0.5611 0.7715 0.2999
vn 0.7786 -0.4696 0.4162
vn 0.4173 0.8810 0.2230
vn 0.8443 -0.2890 0.4513
vn 0.2571 0.9565 0.1374
vn 0.8777 -0.0975 0.4691
vn 0.0869 -0.9951 0.0464
vn 0.0869 0.9951 0.0464
vn 0.8777 0.0975 0.4691
vn 0.2571 -0.9565 0.1374
vn 0.4528 0.8810 0.1374
vn 0.9161 -0.2890 0.2779
vn 0.2790 0.9565 0.0846
vn 0.9524 -0.0975 0.2889
vn 0.0942 -0.9951 0.0286
vn 0.0942 0.9951 0.0286
vn 0.9524 0.0975 0.2889
vn 0.2790 -0.9565 0.0846
vn 0.9161 0.2890 0.2779
vn 0.4528 -0.8810 0.1374
vn 0.8448 0.4696 0.2563
vn 0.6088 -0.7715 0.1847
vn 0.7412 0.6326 0.2248
vn 0.7412 -0.6326 0.2248
vn 0.6088 0.7715 0.1847
vn 0.8448 -0.4696 0.2563
vn 0.8786 0.4696 0.0865
vn 0.6332 -0.7715 0.0624
vn 0.7708 0.6326 0.0759
vn 0.7708 -0.6326 0.0759
vn 0.6332 0.7715 0.0624
vn 0.8786 -0.4696 0.0865
vn 0.4709 0.8810 0.0464
vn 0.9527 -0.2890 0.0938
vn 0.2902 0.9565 0.0286
vn 0.9904 -0.0975 0.0975
vn 0.0980 -0.9951 0.0097
vn 0.0980 0.9951 0.0097
vn 0.9904 0.0975 0.0975
vn 0.2902 -0.9565 0.0286
vn 0.9527 0.2890 0.0938
vn 0.4709 -0.8810 0.0464
vn 0.2902 0.9565 -0.0286
vn 0.9904 -0.0976 -0.0976
vn 0.0980 -0.9951 -0.0097
vn 0.0980 0.9951 -0.0097
vn 0.9904 0.0976 -0.0976
vn 0.2902 -0.9565 -0.0286
vn 0.9527 0.2890 -0.0938
vn 0.4709 -0.8810 -0.0464
vn 0.8786 0.4696 -0.0865
vn 0.6332 -0.7715 -0.0624
vn 0.7708 0.6326 -0.0759
vn 0.7708 -0.6326 -0.0759
vn 0.6332 0.7715 -0.0624
vn 0.8786 -0.4696 -0.0865
vn 0.4709 0.8810 -0.0464
vn 0.9527 -0.2890 -0.0938
vn 0.6088 -0.7715 -0.1847
vn 0.7412 0.6326 -0.2248
vn 0.7412 -0.6326 -0.2248
vn 0.6088 0.7715 -0.1847
vn 0.8448 -0.4696 -0.2563
vn 0.4528 0.8810 -0.1374
vn 0.9161 -0.2890 -0.2779
vn 0.2790 0.9565 -0.0846
vn 0.9524 -0.0975 -0.2889
vn 0.0942 -0.9951 -0.0286
vn 0.0942 0.9951 -0.0286
vn 0.9524 0.0975 -0.2889
vn 0.2790 -0.9565 -0.0846
vn 0.9161 0.2890 -0.2779
vn 0.4528 -0.8810 -0.1374
vn 0.8448 0.4696 -0.2563
vn 0.8777 -0.0975 -0.4691
vn 0.0869 -0.9951 -0.0464
vn 0.0869 0.9951 -0.0464
vn 0.8777 0.0975 -0.4691
vn 0.2571 -0.9565 -0.1374
vn 0.8443 0.2890 -0.4513
vn 0.4173 -0.8810 -0.2231
vn 0.7786 0.4696 -0.4162
vn 0.5611 -0.7715 -0.2999
vn 0.6831 0.6326 -0.3651
vn 0.6831 -0.6326 -0.3651
vn 0.5611 0.7715 -0.2999
vn 0.7786 -0.4696 -0.4162
vn 0.4173 0.8810 -0.2231
vn 0.8443 -0.2890 -0.4513
vn 0.2571 0.9565 -0.1374
vn 0.5987 0.6326 -0.4913
vn 0.5987 -0.6326 -0.4913
vn 0.4918 0.7715 -0.4036
vn 0.6825 -0.4696 -0.5601
vn 0.3658 0.8810 -0.3002
vn 0.7400 -0.2890 -0.6073
vn 0.2254 0.9565 -0.1850
vn 0.7693 -0.0975 -0.6314
vn 0.0761 -0.9951 -0.0625
vn 0.0761 0.9951 -0.0625
vn 0.7693 0.0975 -0.6314
vn 0.2254 -0.9565 -0.1850
vn 0.7400 0.2890 -0.6073
vn 0.3658 -0.8810 -0.3002
vn 0.6825 0.4696 -0.5601
vn 0.4918 -0.7715 -0.4036
vn 0.0625 -0.9951 -0.0761
vn 0.0625 0.9951 -0.0761
vn 0.6314 0.0975 -0.7693
vn 0.1850 -0.9565 -0.2254
vn 0.6073 0.2890 -0.7400
vn 0.3002 -0.8810 -0.3658
vn 0.5601 0.4696 -0.6825
vn 0.4036 -0.7715 -0.4918
vn 0.4913 0.6326 -0.5987
vn 0.4913 -0.6326 -0.5987
vn 0.4036 0.7715 -0.4918
vn 0.5601 -0.4696 -0.6825
vn 0.3002 0.8810 -0.3658
vn 0.6073 -0.2890 -0.7400
vn 0.1850 0.9565 -0.2254
vn 0.6314 -0.0975 -0.7693
vn 0.3651 -0.6326 -0.6831
vn 0.2999 0.7715 -0.5611
vn 0.4162 -0.4696 -0.7786
vn 0.2231 0.8810 -0.4173
vn 0.4513 -0.2890 -0.8443
vn 0.1374 0.9565 -0.2571
vn 0.4691 -0.0975 -0.8777
vn 0.0464 -0.9951 -0.0869
vn 0.0464 0.9951 -0.0869
vn 0.4691 0.0975 -0.8777
vn 0.1374 -0.9565 -0.2571
vn 0.4513 0.2890 -0.8443
vn 0.2230 -0.8810 -0.4173
vn 0.4162 0.4696 -0.7786
vn 0.2999 -0.7715 -0.5611
vn 0.3651 0.6326 -0.6831
vn 0.2889 0.0975 -0.9524
vn 0.0846 -0.9565 -0.2790
vn 0.2779 0.2890 -0.9161
vn 0.1374 -0.8810 -0.4528
vn 0.2563 0.4696 -0.8448
vn 0.1847 -0.7715 -0.6088
vn 0.2248 0.6326 -0.7412
vn 0.2248 -0.6326 -0.7412
vn 0.1847 0.7715 -0.6088
vn 0.2563 -0.4696 -0.8448
vn 0.1374 0.8810 -0.4528
vn 0.2779 -0.2890 -0.9161
vn 0.0846 0.9565 -0.2790
vn 0.2889 -0.0975 -0.9524
vn 0.0286 -0.9951 -0.0942
vn 0.0286 0.9951 -0.0942
vn 0.0624 0.7715 -0.6332
vn 0.0865 -0.4696 -0.8786
vn 0.0464 0.8810 -0.4709
vn 0.0938 -0.2890 -0.9527
vn 0.0286 0.9565 -0.2902
vn 0.0975 -0.0975 -0.9904
vn 0.0097 -0.9951 -0.0980
vn 0.0097 0.9951 -0.0980
vn 0.0975 0.0975 -0.9904
vn 0.0286 -0.9565 -0.2902
vn 0.0938 0.2890 -0.9527
vn 0.0464 -0.8810 -0.4709
vn 0.0865 0.4696 -0.8786
vn 0.0624 -0.7715 -0.6332
vn 0.0759 0.6326 -0.7708
vn 0.0759 -0.6326 -0.7708
vn -0.0938 0.2890 -0.9527
vn -0.0464 -0.8810 -0.4709
vn -0.0865 0.4696 -0.8786
vn -0.0624 -0.7715 -0.6332
vn -0.0759 0.6326 -0.7708
vn -0.0759 -0.6326 -0.7708
vn -0.0624 0.7715 -0.6332
vn -0.0865 -0.4696 -0.8786
vn -0.0464 0.8810 -0.4709
vn -0.0938 -0.2890 -0.9527
vn -0.0286 0.9565 -0.2902
vn -0.0975 -0.0975 -0.9904
vn -0.0097 -0.9951 -0.0980
vn -0.0097 0.9951 -0.0980
vn -0.0975 0.0975 -0.9904
vn -0.0286 -0.9565 -0.2902
vn -0.1374 0.8810 -0.4528
vn -0.2779 -0.2890 -0.9161
vn -0.0846 0.9565 -0.2790
vn -0.2889 -0.0975 -0.9524
vn -0.0286 -0.9951 -0.0942
vn -0.0286 0.9951 -0.0942
vn -0.2889 0.0975 -0.9524
vn -0.0846 -0.9565 -0.2790
vn -0.2779 0.2890 -0.9161
vn -0.1374 -0.8810 -0.4528
vn -0.2563 0.4696 -0.8448
vn -0.1847 -0.7715 -0.6088
vn -0.2248 0.6326 -0.7412
vn -0.2248 -0.6326 -0.7412
vn -0.1847 0.7715 -0.6088
vn -0.2563 -0.4696 -0.8448
vn -0.2231 -0.8810 -0.4173
vn -0.4162 0.4696 -0.7786
vn -0.2999 -0.7715 -0.5611
vn -0.3651 0.6326 -0.6831
vn -0.3651 -0.6326 -0.6831
vn -0.2999 0.7715 -0.5611
vn -0.4162 -0.4696 -0.7786
vn -0.2231 0.8810 -0.4173
vn -0.4513 -0.2890 -0.8443
vn -0.1374 0.9565 -0.2571
vn -0.4691 -0.0975 -0.8777
vn -0.0464 -0.9951 -0.0869
vn -0.0464 0.9951 -0.0869
vn -0.4691 0.0975 -0.8777
vn -0.1374 -0.9565 -0.2571
vn -0.4513 0.2890 -0.8443
vn -0.6073 -0.2890 -0.7400
vn -0.1850 0.9565 -0.2254
vn -0.6314 -0.0975 -0.7693
vn -0.0625 -0.9951 -0.0761
vn -0.0625 0.9951 -0.0761
vn -0.6314 0.0975 -0.7693
vn -0.1850 -0.9565 -0.2254
vn -0.6073 0.2890 -0.7400
vn -0.3002 -0.8810 -0.3658
vn -0.5601 0.4696 -0.6825
vn -0.4036 -0.7715 -0.4918
vn -0.4913 0.6326 -0.5987
vn -0.4913 -0.6326 -0.5987
vn -0.4036 0.7715 -0.4918
vn -0.5601 -0.4696 -0.6825
vn -0.3002 0.8810 -0.3658
vn -0.6825 0.4696 -0.5601
vn -0.4918 -0.7715 -0.4036
vn -0.5987 0.6326 -0.4913
vn -0.5987 -0.6326 -0.4913
vn -0.4918 0.7715 -0.4036
vn -0.6825 -0.4696 -0.5601
vn -0.3658 0.8810 -0.3002
vn -0.7400 -0.2890 -0.6073
vn -0.2254 0.9565 -0.1850
vn -0.7693 -0.0975 -0.6314
vn -0.0761 -0.9951 -0.0625
vn -0.0761 0.9951 -0.0625
vn -0.7693 0.0975 -0.6314
vn -0.2254 -0.9565 -0.1850
vn -0.7400 0.2890 -0.6073
vn -0.3658 -0.8810 -0.3002
vn -0.2571 0.9565 -0.1374
vn -0.8777 -0.0975 -0.4691
vn -0.0869 -0.9951 -0.0464
vn -0.0869 0.9951 -0.0464
vn -0.8777 0.0975 -0.4691
vn -0.2571 -0.9565 -0.1374
vn -0.8443 0.2890 -0.4513
vn -0.4173 -0.8810 -0.2230
vn -0.7786 0.4696 -0.4162
vn -0.5611 -0.7715 -0.2999
vn -0.6831 0.6326 -0.3651
vn -0.6831 -0.6326 -0.3651
vn -0.5611 0.7715 -0.2999
vn -0.7786 -0.4696 -0.4162
vn -0.4173 0.8810 -0.2230
vn -0.8443 -0.2890 -0.4513
vn -0.6088 -0.7715 -0.1847
vn -0.7412 0.6326 -0.2248
vn -0.7412 -0.6326 -0.2248
vn -0.6088 0.7715 -0.1847
vn -0.8448 -0.4696 -0.2563
vn -0.4528 0.8810 -0.1374
vn -0.9161 -0.2890 -0.2779
vn -0.2790 0.9565 -0.0846
vn -0.9524 -0.0975 -0.2889
vn -0.0942 -0.9951 -0.0286
vn -0.0942 0.9951 -0.0286
vn -0.9524 0.0975 -0.2889
vn -0.2790 -0.9565 -0.0846
vn -0.9161 0.2890 -0.2779
vn -0.4528 -0.8810 -0.1374
vn -0.8448 0.4696 -0.2563
vn -0.9904 -0.0975 -0.0975
vn -0.0980 -0.9951 -0.0097
vn -0.0980 0.9951 -0.0097
vn -0.9904 0.0975 -0.0975
vn -0.2902 -0.9565 -0.0286
vn -0.9527 0.2890 -0.0938
vn -0.4709 -0.8810 -0.0464
vn -0.8786 0.4696 -0.0865
vn -0.6332 -0.7715 -0.0624
vn -0.7708 0.6326 -0.0759
vn -0.7708 -0.6326 -0.0759
vn -0.6332 0.7715 -0.0624
vn -0.8786 -0.4696 -0.0865
vn -0.4709 0.8810 -0.0464
vn -0.9527 -0.2890 -0.0938
vn -0.2902 0.9565 -0.0286
vn -0.7708 0.6326 0.0759
vn -0.7708 -0.6326 0.0759
vn -0.6332 0.7715 0.0624
vn -0.8786 -0.4696 0.0865
vn -0.4709 0.8810 0.0464
vn -0.9527 -0.2890 0.0938
vn -0.2902 0.9565 0.0286
vn -0.9904 -0.0975 0.0976
vn -0.0980 -0.9951 0.0097
vn -0.0980 0.9951 0.0097
vn -0.9904 0.0975 0.0976
vn -0.2902 -0.9565 0.0286
vn -0.9527 0.2890 0.0938
vn -0.4709 -0.8810 0.0464
vn -0.8786 0.4696 0.0865
vn -0.6332 -0.7715 0.0624
vn -0.0942 0.9951 0.0286
vn -0.9524 0.0975 0.2889
vn -0.2790 -0.9565 0.0846
vn -0.9161 0.2890 0.2779
vn -0.4528 -0.8810 0.1374
vn -0.8448 0.4696 0.2563
vn -0.6088 -0.7715 0.1847
vn -0.7412 0.6326 0.2248
vn -0.7412 -0.6326 0.2248
vn -0.6088 0.7715 0.1847
vn -0.8448 -0.4696 0.2563
vn -0.4528 0.8810 0.1374
vn -0.9161 -0.2890 0.2779
vn -0.2790 0.9565 0.0846
vn -0.9524 -0.0975 0.2889
vn -0.0942 -0.9951 0.0286
vn -0.5611 0.7715 0.2999
vn -0.7786 -0.4696 0.4162
vn -0.4173 0.8810 0.2230
vn -0.8443 -0.2890 0.4513
vn -0.2571 0.9565 0.1374
vn -0.8777 -0.0975 0.4691
vn -0.0869 -0.9951 0.0464
vn -0.0869 0.9951 0.0464
vn -0.8777 0.0975 0.4691
vn -0.2571 -0.9565 0.1374
vn -0.8443 0.2890 0.4513
vn -0.4173 -0.8810 0.2230
vn -0.7786 0.4696 0.4162
vn -0.5611 -0.7715 0.2999
vn -0.6831 0.6326 0.3651
vn -0.6831 -0.6326 0.3651
vn -0.2254 -0.9565 0.1850
vn -0.7400 0.2890 0.6073
vn -0.3658 -0.8810 0.3002
vn -0.6825 0.4696 0.5601
vn -0.4918 -0.7715 0.4036
vn -0.5987 0.6326 0.4913
vn -0.5987 -0.6326 0.4913
vn -0.4918 0.7715 0.4036
vn -0.6825 -0.4696 0.5601
vn -0.3658 0.8810 0.3002
vn -0.7400 -0.2890 0.6073
vn -0.2254 0.9565 0.1850
vn -0.7693 -0.0975 0.6314
vn -0.0761 -0.9951 0.0625
vn -0.0761 0.9951 0.0625
vn -0.7693 0.0975 0.6314
vn -0.5601 -0.4696 0.6825
vn -0.3002 0.8810 0.3658
vn -0.6073 -0.2890 0.7400
vn -0.1850 0.9565 0.2254
vn -0.6314 -0.0975 0.7693
vn -0.0625 -0.9951 0.0761
vn -0.0625 0.9951 0.0761
vn -0.6314 0.0975 0.7693
vn -0.1850 -0.9565 0.2254
vn -0.6073 0.2890 0.7400
vn -0.3002 -0.8810 0.3658
vn -0.5601 0.4696 0.6825
vn -0.4036 -0.7715 0.4918
vn -0.4913 0.6326 0.5987
vn -0.4913 -0.6326 0.5987
vn -0.4036 0.7715 0.4918
vn -0.4513 0.2890 0.8443
vn -0.2231 -0.8810 0.4173
vn -0.4162 0.4696 0.7786
vn -0.2999 -0.7715 0.5611
vn -0.3651 0.6326 0.6831
vn -0.3651 -0.6326 0.6831
vn -0.2999 0.7715 0.5611
vn -0.4162 -0.4696 0.7786
vn -0.2231 0.8810 0.4173
vn -0.4513 -0.2890 0.8443
vn -0.1374 0.9565 0.2571
vn -0.4691 -0.0975 0.8777
vn -0.0464 -0.9951 0.0869
vn -0.0464 0.9951 0.0869
vn -0.4691 0.0975 0.8777
vn -0.1374 -0.9565 0.2571
vn -0.1374 0.8810 0.4528
vn -0.2779 -0.2890 0.9161
vn -0.0846 0.9565 0.2790
vn -0.2889 -0.0975 0.9524
vn -0.0286 -0.9951 0.0942
vn -0.0286 0.9951 0.0942
vn -0.2889 0.0975 0.9524
vn -0.0846 -0.9565 0.2790
vn -0.2779 0.2890 0.9161
vn -0.1374 -0.8810 0.4528
vn -0.2563 0.4696 0.8448
vn -0.1847 -0.7715 0.6088
vn -0.2248 0.6326 0.7412
vn -0.2248 -0.6326 0.7412
vn -0.1847 0.7715 0.6088
vn -0.2563 -0.4696 0.8448
vn -0.0464 -0.8810 0.4709
vn -0.0865 0.4696 0.8786
vn -0.0624 -0.7715 0.6332
vn -0.0759 0.6326 0.7708
vn -0.0759 -0.6326 0.7708
vn -0.0624 0.7715 0.6332
vn -0.0865 -0.4696 0.8786
vn -0.0464 0.8810 0.4709
vn -0.0938 -0.2890 0.9527
vn -0.0286 0.9565 0.2902
vn -0.0976 -0.0975 0.9904
vn -0.0097 -0.9951 0.0980
vn -0.0097 0.9951 0.0980
vn -0.0976 0.0975 0.9904
vn -0.0286 -0.9565 0.2902
vn -0.0938 0.2890 0.9527
vn 0.0975 -0.0975 0.9904
vn 0.2230 0.8810 0.4173
vn 0.4173 -0.8810 0.2230
vn 0.9904 -0.0975 -0.0976
vn 0.9904 0.0975 -0.0976
vn 0.4173 -0.8810 -0.2230
vn 0.4173 0.8810 -0.2230
vn 0.2254 0.9566 -0.1850
vn 0.2230 0.8810 -0.4173
vn -0.0976 -0.0975 -0.9904
vn -0.0976 0.0975 -0.9904
vn -0.4173 0.8810 -0.2231
vn -0.4173 0.8810 0.2231
vn -0.2230 -0.8810 0.4173
vn -0.2230 0.8810 0.4173
vt 0.718750 0.375000
vt 0.750000 0.375000
vt 0.750000 0.437500
vt 0.750000 0.812500
vt 0.750000 0.875000
vt 0.718750 0.875000
vt 0.718750 0.312500
vt 0.750000 0.312500
vt 0.750000 0.750000
vt 0.718750 0.812500
vt 0.718750 0.250000
vt 0.750000 0.250000
vt 0.718750 0.687500
vt 0.750000 0.687500
vt 0.718750 0.187500
vt 0.750000 0.187500
vt 0.750000 0.625000
vt 0.718750 0.125000
vt 0.750000 0.125000
vt 0.750000 0.562500
vt 0.718750 0.625000
vt 0.718750 0.062500
vt 0.750000 0.062500
vt 0.718750 0.500000
vt 0.750000 0.500000
vt 0.750000 0.937500
vt 0.734375 1.000000
vt 0.718750 0.937500
vt 0.734375 0.000000
vt 0.718750 0.437500
vt 0.687500 0.437500
vt 0.687500 0.875000
vt 0.687500 0.375000
vt 0.687500 0.812500
vt 0.687500 0.312500
vt 0.687500 0.750000
vt 0.718750 0.750000
vt 0.687500 0.250000
vt 0.687500 0.687500
vt 0.687500 0.625000
vt 0.687500 0.187500
vt 0.718750 0.562500
vt 0.687500 0.062500
vt 0.687500 0.500000
vt 0.703125 1.000000
vt 0.687500 0.937500
vt 0.703125 0.000000
vt 0.656250 0.250000
vt 0.656250 0.625000
vt 0.656250 0.125000
vt 0.687500 0.125000
vt 0.687500 0.562500
vt 0.656250 0.500000
vt 0.671875 1.000000
vt 0.656250 0.937500
vt 0.671875 0.000000
vt 0.656250 0.062500
vt 0.656250 0.875000
vt 0.656250 0.375000
vt 0.656250 0.812500
vt 0.656250 0.750000
vt 0.656250 0.312500
vt 0.656250 0.687500
vt 0.625000 0.875000
vt 0.625000 0.375000
vt 0.656250 0.437500
vt 0.625000 0.812500
vt 0.625000 0.750000
vt 0.625000 0.250000
vt 0.625000 0.687500
vt 0.625000 0.187500
vt 0.656250 0.187500
vt 0.625000 0.625000
vt 0.656250 0.562500
vt 0.625000 0.062500
vt 0.625000 0.500000
vt 0.640625 1.000000
vt 0.625000 0.937500
vt 0.640625 0.000000
vt 0.625000 0.437500
vt 0.593750 0.625000
vt 0.593750 0.125000
vt 0.625000 0.125000
vt 0.625000 0.562500
vt 0.593750 0.062500
vt 0.593750 0.562500
vt 0.609375 1.000000
vt 0.593750 0.937500
vt 0.609375 0.000000
vt 0.593750 0.437500
vt 0.593750 0.875000
vt 0.593750 0.375000
vt 0.593750 0.812500
vt 0.625000 0.312500
vt 0.593750 0.750000
vt 0.593750 0.250000
vt 0.562500 0.375000
vt 0.562500 0.812500
vt 0.593750 0.312500
vt 0.562500 0.250000
vt 0.593750 0.687500
vt 0.562500 0.750000
vt 0.562500 0.187500
vt 0.593750 0.187500
vt 0.562500 0.625000
vt 0.562500 0.125000
vt 0.593750 0.500000
vt 0.562500 0.562500
vt 0.578125 1.000000
vt 0.562500 0.937500
vt 0.578125 0.000000
vt 0.562500 0.062500
vt 0.562500 0.437500
vt 0.562500 0.875000
vt 0.531250 0.187500
vt 0.531250 0.625000
vt 0.531250 0.062500
vt 0.562500 0.500000
vt 0.531250 0.562500
vt 0.546875 1.000000
vt 0.531250 0.937500
vt 0.546875 0.000000
vt 0.531250 0.437500
vt 0.531250 0.875000
vt 0.531250 0.375000
vt 0.531250 0.812500
vt 0.562500 0.312500
vt 0.531250 0.750000
vt 0.531250 0.250000
vt 0.562500 0.687500
vt 0.531250 0.312500
vt 0.500000 0.375000
vt 0.500000 0.750000
vt 0.500000 0.250000
vt 0.531250 0.687500
vt 0.500000 0.625000
vt 0.500000 0.125000
vt 0.531250 0.125000
vt 0.531250 0.500000
vt 0.500000 0.562500
vt 0.515625 1.000000
vt 0.500000 0.937500
vt 0.515625 0.000000
vt 0.500000 0.062500
vt 0.500000 0.437500
vt 0.500000 0.875000
vt 0.500000 0.812500
vt 0.468750 0.062500
vt 0.500000 0.500000
vt 0.468750 0.562500
vt 0.484375 1.000000
vt 0.468750 0.937500
vt 0.484375 0.000000
vt 0.468750 0.437500
vt 0.468750 0.375000
vt 0.468750 0.812500
vt 0.500000 0.312500
vt 0.468750 0.750000
vt 0.468750 0.250000
vt 0.500000 0.687500
vt 0.500000 0.187500
vt 0.468750 0.625000
vt 0.468750 0.125000
vt 0.437500 0.750000
vt 0.437500 0.250000
vt 0.468750 0.312500
vt 0.468750 0.687500
vt 0.468750 0.187500
vt 0.437500 0.625000
vt 0.437500 0.125000
vt 0.437500 0.062500
vt 0.468750 0.500000
vt 0.437500 0.562500
vt 0.453125 1.000000
vt 0.437500 0.937500
vt 0.453125 0.000000
vt 0.437500 0.437500
vt 0.437500 0.875000
vt 0.468750 0.875000
vt 0.437500 0.375000
vt 0.437500 0.812500
vt 0.437500 0.500000
vt 0.406250 0.562500
vt 0.421875 1.000000
vt 0.406250 0.937500
vt 0.421875 0.000000
vt 0.406250 0.062500
vt 0.406250 0.437500
vt 0.406250 0.875000
vt 0.406250 0.375000
vt 0.437500 0.312500
vt 0.406250 0.750000
vt 0.406250 0.250000
vt 0.437500 0.687500
vt 0.437500 0.187500
vt 0.406250 0.625000
vt 0.406250 0.125000
vt 0.375000 0.250000
vt 0.406250 0.312500
vt 0.406250 0.687500
vt 0.375000 0.750000
vt 0.406250 0.187500
vt 0.375000 0.625000
vt 0.375000 0.125000
vt 0.406250 0.500000
vt 0.375000 0.562500
vt 0.390625 1.000000
vt 0.375000 0.937500
vt 0.390625 0.000000
vt 0.375000 0.062500
vt 0.375000 0.437500
vt 0.375000 0.875000
vt 0.375000 0.375000
vt 0.375000 0.812500
vt 0.406250 0.812500
vt 0.359375 1.000000
vt 0.343750 0.937500
vt 0.359375 0.000000
vt 0.343750 0.062500
vt 0.343750 0.437500
vt 0.375000 0.500000
vt 0.343750 0.375000
vt 0.343750 0.875000
vt 0.375000 0.312500
vt 0.343750 0.750000
vt 0.343750 0.250000
vt 0.375000 0.687500
vt 0.375000 0.187500
vt 0.343750 0.625000
vt 0.343750 0.125000
vt 0.343750 0.562500
vt 0.343750 0.687500
vt 0.312500 0.750000
vt 0.343750 0.187500
vt 0.312500 0.250000
vt 0.312500 0.625000
vt 0.312500 0.125000
vt 0.312500 0.062500
vt 0.343750 0.500000
vt 0.312500 0.562500
vt 0.328125 1.000000
vt 0.312500 0.937500
vt 0.328125 0.000000
vt 0.312500 0.437500
vt 0.312500 0.875000
vt 0.312500 0.375000
vt 0.312500 0.812500
vt 0.343750 0.812500
vt 0.343750 0.312500
vt 0.281250 0.437500
vt 0.312500 0.500000
vt 0.281250 0.875000
vt 0.281250 0.375000
vt 0.281250 0.812500
vt 0.312500 0.312500
vt 0.281250 0.750000
vt 0.281250 0.250000
vt 0.312500 0.687500
vt 0.312500 0.187500
vt 0.281250 0.625000
vt 0.281250 0.125000
vt 0.281250 0.062500
vt 0.281250 0.562500
vt 0.296875 1.000000
vt 0.281250 0.937500
vt 0.296875 0.000000
vt 0.281250 0.187500
vt 0.250000 0.250000
vt 0.250000 0.625000
vt 0.281250 0.687500
vt 0.250000 0.125000
vt 0.250000 0.062500
vt 0.281250 0.500000
vt 0.250000 0.562500
vt 0.265625 1.000000
vt 0.250000 0.937500
vt 0.265625 0.000000
vt 0.250000 0.437500
vt 0.250000 0.875000
vt 0.250000 0.375000
vt 0.250000 0.812500
vt 0.281250 0.312500
vt 0.250000 0.750000
vt 0.218750 0.375000
vt 0.218750 0.812500
vt 0.250000 0.312500
vt 0.218750 0.750000
vt 0.218750 0.250000
vt 0.250000 0.687500
vt 0.250000 0.187500
vt 0.218750 0.625000
vt 0.218750 0.125000
vt 0.250000 0.500000
vt 0.218750 0.562500
vt 0.234375 1.000000
vt 0.218750 0.937500
vt 0.234375 0.000000
vt 0.218750 0.062500
vt 0.218750 0.437500
vt 0.218750 0.875000
vt 0.218750 0.187500
vt 0.187500 0.187500
vt 0.187500 0.625000
vt 0.187500 0.062500
vt 0.218750 0.500000
vt 0.187500 0.562500
vt 0.203125 1.000000
vt 0.187500 0.937500
vt 0.203125 0.000000
vt 0.187500 0.437500
vt 0.187500 0.375000
vt 0.187500 0.812500
vt 0.218750 0.312500
vt 0.187500 0.750000
vt 0.187500 0.250000
vt 0.218750 0.687500
vt 0.156250 0.812500
vt 0.187500 0.875000
vt 0.187500 0.312500
vt 0.156250 0.375000
vt 0.156250 0.750000
vt 0.156250 0.250000
vt 0.187500 0.687500
vt 0.156250 0.625000
vt 0.187500 0.125000
vt 0.156250 0.187500
vt 0.156250 0.062500
vt 0.187500 0.500000
vt 0.156250 0.562500
vt 0.171875 1.000000
vt 0.156250 0.937500
vt 0.171875 0.000000
vt 0.156250 0.437500
vt 0.156250 0.875000
vt 0.125000 0.625000
vt 0.125000 0.062500
vt 0.156250 0.125000
vt 0.156250 0.500000
vt 0.125000 0.562500
vt 0.140625 1.000000
vt 0.125000 0.937500
vt 0.140625 0.000000
vt 0.125000 0.437500
vt 0.125000 0.875000
vt 0.125000 0.375000
vt 0.156250 0.312500
vt 0.125000 0.750000
vt 0.125000 0.250000
vt 0.156250 0.687500
vt 0.125000 0.125000
vt 0.125000 0.312500
vt 0.093750 0.375000
vt 0.093750 0.750000
vt 0.125000 0.812500
vt 0.093750 0.250000
vt 0.125000 0.687500
vt 0.125000 0.187500
vt 0.093750 0.625000
vt 0.093750 0.125000
vt 0.093750 0.062500
vt 0.125000 0.500000
vt 0.093750 0.562500
vt 0.109375 1.000000
vt 0.093750 0.937500
vt 0.109375 0.000000
vt 0.093750 0.437500
vt 0.093750 0.875000
vt 0.062500 0.062500
vt 0.093750 0.500000
vt 0.062500 0.562500
vt 0.078125 1.000000
vt 0.062500 0.937500
vt 0.078125 0.000000
vt 0.062500 0.437500
vt 0.062500 0.875000
vt 0.062500 0.375000
vt 0.093750 0.812500
vt 0.093750 0.312500
vt 0.062500 0.750000
vt 0.062500 0.250000
vt 0.093750 0.687500
vt 0.093750 0.187500
vt 0.062500 0.625000
vt 0.062500 0.187500
vt 0.031250 0.750000
vt 0.062500 0.812500
vt 0.031250 0.250000
vt 0.062500 0.312500
vt 0.062500 0.687500
vt 0.031250 0.625000
vt 0.031250 0.125000
vt 0.062500 0.125000
vt 0.062500 0.500000
vt 0.031250 0.562500
vt 0.046875 1.000000
vt 0.031250 0.937500
vt 0.046875 0.000000
vt 0.031250 0.062500
vt 0.031250 0.437500
vt 0.031250 0.375000
vt 0.031250 0.812500
vt 0.031250 0.500000
vt 0.000000 0.562500
vt 0.015625 1.000000
vt 0.000000 0.937500
vt 0.015625 0.000000
vt 0.000000 0.062500
vt 0.000000 0.437500
vt 0.000000 0.875000
vt 0.031250 0.875000
vt 0.000000 0.375000
vt 0.000000 0.812500
vt 0.031250 0.312500
vt 0.000000 0.750000
vt 0.000000 0.250000
vt 0.031250 0.687500
vt 0.031250 0.187500
vt 0.000000 0.625000
vt 0.000000 0.125000
vt 0.968750 0.250000
vt 1.000000 0.250000
vt 1.000000 0.312500
vt 1.000000 0.687500
vt 1.000000 0.750000
vt 0.968750 0.750000
vt 1.000000 0.187500
vt 0.968750 0.625000
vt 1.000000 0.625000
vt 0.968750 0.125000
vt 1.000000 0.125000
vt 1.000000 0.562500
vt 0.968750 0.062500
vt 1.000000 0.062500
vt 1.000000 0.500000
vt 0.968750 0.562500
vt 1.000000 0.937500
vt 0.984375 1.000000
vt 0.968750 0.937500
vt 0.984375 0.000000
vt 0.968750 0.437500
vt 1.000000 0.437500
vt 1.000000 0.875000
vt 0.968750 0.375000
vt 1.000000 0.375000
vt 1.000000 0.812500
vt 0.968750 0.875000
vt 0.953125 0.000000
vt 0.937500 0.062500
vt 0.937500 0.437500
vt 0.968750 0.500000
vt 0.937500 0.875000
vt 0.937500 0.375000
vt 0.968750 0.812500
vt 0.968750 0.312500
vt 0.937500 0.750000
vt 0.937500 0.250000
vt 0.968750 0.687500
vt 0.968750 0.187500
vt 0.937500 0.625000
vt 0.937500 0.125000
vt 0.937500 0.562500
vt 0.953125 1.000000
vt 0.937500 0.937500
vt 0.937500 0.187500
vt 0.906250 0.250000
vt 0.906250 0.625000
vt 0.937500 0.687500
vt 0.906250 0.187500
vt 0.906250 0.062500
vt 0.937500 0.500000
vt 0.906250 0.562500
vt 0.921875 1.000000
vt 0.906250 0.937500
vt 0.921875 0.000000
vt 0.906250 0.437500
vt 0.906250 0.375000
vt 0.906250 0.812500
vt 0.937500 0.812500
vt 0.937500 0.312500
vt 0.906250 0.750000
vt 0.875000 0.875000
vt 0.906250 0.875000
vt 0.875000 0.375000
vt 0.906250 0.312500
vt 0.875000 0.750000
vt 0.875000 0.250000
vt 0.906250 0.687500
vt 0.875000 0.625000
vt 0.875000 0.125000
vt 0.906250 0.125000
vt 0.906250 0.500000
vt 0.875000 0.562500
vt 0.890625 1.000000
vt 0.875000 0.937500
vt 0.890625 0.000000
vt 0.875000 0.062500
vt 0.875000 0.437500
vt 0.843750 0.625000
vt 0.875000 0.687500
vt 0.843750 0.125000
vt 0.875000 0.187500
vt 0.843750 0.062500
vt 0.875000 0.500000
vt 0.843750 0.562500
vt 0.859375 1.000000
vt 0.843750 0.937500
vt 0.859375 0.000000
vt 0.843750 0.437500
vt 0.843750 0.875000
vt 0.843750 0.375000
vt 0.875000 0.812500
vt 0.875000 0.312500
vt 0.843750 0.750000
vt 0.843750 0.250000
vt 0.812500 0.375000
vt 0.843750 0.812500
vt 0.812500 0.875000
vt 0.843750 0.312500
vt 0.812500 0.750000
vt 0.812500 0.250000
vt 0.843750 0.687500
vt 0.843750 0.187500
vt 0.812500 0.625000
vt 0.812500 0.125000
vt 0.812500 0.062500
vt 0.843750 0.500000
vt 0.812500 0.562500
vt 0.828125 1.000000
vt 0.812500 0.937500
vt 0.828125 0.000000
vt 0.812500 0.437500
vt 0.781250 0.125000
vt 0.812500 0.187500
vt 0.781250 0.625000
vt 0.781250 0.062500
vt 0.812500 0.500000
vt 0.781250 0.562500
vt 0.796875 1.000000
vt 0.781250 0.937500
vt 0.796875 0.000000
vt 0.781250 0.437500
vt 0.781250 0.875000
vt 0.781250 0.375000
vt 0.812500 0.812500
vt 0.812500 0.312500
vt 0.781250 0.750000
vt 0.781250 0.250000
vt 0.812500 0.687500
vt 0.781250 0.812500
vt 0.781250 0.312500
vt 0.781250 0.687500
vt 0.781250 0.187500
vt 0.781250 0.500000
vt 0.765625 1.000000
vt 0.765625 0.000000
vt 0.000000 0.500000
vt 0.000000 0.312500
vt 0.000000 0.687500
vt 0.000000 0.187500
s 0
usemtl マテリアル.002
f 16/1/1 478/2/1 5/3/1
f 1/4/2 475/5/2 8/6/2
f 17/7/3 6/8/3 478/2/3
f 476/9/4 1/4/4 9/10/4
f 18/11/5 479/12/5 6/8/5
f 11/13/6 2/14/6 476/9/6
f 19/15/7 480/16/7 479/12/7
f 477/17/8 2/14/8 11/13/8
f 20/18/9 481/19/9 480/16/9
f 3/20/10 477/17/10 12/21/10
f 21/22/11 482/23/11 481/19/11
f 14/24/12 4/25/12 3/20/12
f 474/26/13 82/27/13 7/28/13
f 308/29/14 482/23/14 21/22/14
f 15/30/15 5/3/15 4/25/15
f 475/5/16 474/26/16 7/28/16
f 30/31/17 15/30/17 14/24/17
f 23/32/18 8/6/18 7/28/18
f 31/33/19 16/1/19 15/30/19
f 24/34/20 9/10/20 8/6/20
f 32/35/21 17/7/21 16/1/21
f 25/36/22 10/37/22 9/10/22
f 33/38/23 18/11/23 17/7/23
f 26/39/24 11/13/24 10/37/24
f 19/15/25 18/11/25 33/38/25
f 27/40/26 12/21/26 11/13/26
f 20/18/27 19/15/27 34/41/27
f 13/42/28 12/21/28 27/40/28
f 36/43/29 21/22/29 20/18/29
f 29/44/30 14/24/30 13/42/30
f 7/28/31 82/45/31 22/46/31
f 308/47/32 21/22/32 36/43/32
f 34/41/33 33/38/33 48/48/33
f 42/49/34 27/40/34 26/39/34
f 50/50/35 35/51/35 34/41/35
f 28/52/36 27/40/36 42/49/36
f 36/43/37 35/51/37 50/50/37
f 44/53/38 29/44/38 28/52/38
f 22/46/39 82/54/39 37/55/39
f 308/56/40 36/43/40 51/57/40
f 30/31/41 29/44/41 44/53/41
f 38/58/42 23/32/42 22/46/42
f 46/59/43 31/33/43 30/31/43
f 39/60/44 24/34/44 23/32/44
f 32/35/45 31/33/45 46/59/45
f 40/61/46 25/36/46 24/34/46
f 33/38/47 32/35/47 47/62/47
f 41/63/48 26/39/48 25/36/48
f 53/64/49 38/58/49 37/55/49
f 61/65/50 46/59/50 45/66/50
f 54/67/51 39/60/51 38/58/51
f 47/62/52 46/59/52 61/65/52
f 55/68/53 40/61/53 39/60/53
f 63/69/54 48/48/54 47/62/54
f 56/70/55 41/63/55 40/61/55
f 64/71/56 49/72/56 48/48/56
f 57/73/57 42/49/57 41/63/57
f 50/50/58 49/72/58 64/71/58
f 43/74/59 42/49/59 57/73/59
f 66/75/60 51/57/60 50/50/60
f 59/76/61 44/53/61 43/74/61
f 37/55/62 82/77/62 52/78/62
f 308/79/63 51/57/63 66/75/63
f 60/80/64 45/66/64 44/53/64
f 72/81/65 57/73/65 56/70/65
f 80/82/66 65/83/66 64/71/66
f 58/84/67 57/73/67 72/81/67
f 81/85/68 66/75/68 65/83/68
f 59/76/69 58/84/69 73/86/69
f 52/78/70 82/87/70 67/88/70
f 308/89/71 66/75/71 81/85/71
f 75/90/72 60/80/72 59/76/72
f 68/91/73 53/64/73 52/78/73
f 76/92/74 61/65/74 60/80/74
f 69/93/75 54/67/75 53/64/75
f 62/94/76 61/65/76 76/92/76
f 70/95/77 55/68/77 54/67/77
f 78/96/78 63/69/78 62/94/78
f 56/70/79 55/68/79 70/95/79
f 64/71/80 63/69/80 78/96/80
f 92/97/81 76/92/81 75/90/81
f 85/98/82 69/93/82 68/91/82
f 77/99/83 76/92/83 92/97/83
f 70/95/84 69/93/84 85/98/84
f 94/100/85 78/96/85 77/99/85
f 71/101/86 70/95/86 86/102/86
f 95/103/87 79/104/87 78/96/87
f 88/105/88 72/81/88 71/101/88
f 96/106/89 80/82/89 79/104/89
f 73/86/90 72/81/90 88/105/90
f 81/85/91 80/82/91 96/106/91
f 74/107/92 73/86/92 89/108/92
f 67/88/93 82/109/93 83/110/93
f 308/111/94 81/85/94 97/112/94
f 91/113/95 75/90/95 74/107/95
f 84/114/96 68/91/96 67/88/96
f 96/106/97 95/103/97 110/115/97
f 89/108/98 88/105/98 103/116/98
f 112/117/99 97/112/99 96/106/99
f 90/118/100 89/108/100 104/119/100
f 83/110/101 82/120/101 98/121/101
f 308/122/102 97/112/102 112/117/102
f 106/123/103 91/113/103 90/118/103
f 99/124/104 84/114/104 83/110/104
f 107/125/105 92/97/105 91/113/105
f 100/126/106 85/98/106 84/114/106
f 93/127/107 92/97/107 107/125/107
f 101/128/108 86/102/108 85/98/108
f 109/129/109 94/100/109 93/127/109
f 87/130/110 86/102/110 101/128/110
f 95/103/111 94/100/111 109/129/111
f 103/116/112 88/105/112 87/130/112
f 108/131/113 107/125/113 122/132/113
f 116/133/114 101/128/114 100/126/114
f 124/134/115 109/129/115 108/131/115
f 102/135/116 101/128/116 116/133/116
f 110/115/117 109/129/117 124/134/117
f 118/136/118 103/116/118 102/135/118
f 126/137/119 111/138/119 110/115/119
f 104/119/120 103/116/120 118/136/120
f 112/117/121 111/138/121 126/137/121
f 105/139/122 104/119/122 119/140/122
f 98/121/123 82/141/123 113/142/123
f 308/143/124 112/117/124 127/144/124
f 121/145/125 106/123/125 105/139/125
f 114/146/126 99/124/126 98/121/126
f 122/132/127 107/125/127 106/123/127
f 115/147/128 100/126/128 99/124/128
f 142/148/129 127/144/129 126/137/129
f 120/149/130 119/140/130 134/150/130
f 113/142/131 82/151/131 128/152/131
f 308/153/132 127/144/132 142/148/132
f 136/154/133 121/145/133 120/149/133
f 114/146/134 113/142/134 128/152/134
f 137/155/135 122/132/135 121/145/135
f 130/156/136 115/147/136 114/146/136
f 123/157/137 122/132/137 137/155/137
f 131/158/138 116/133/138 115/147/138
f 139/159/139 124/134/139 123/157/139
f 117/160/140 116/133/140 131/158/140
f 125/161/141 124/134/141 139/159/141
f 133/162/142 118/136/142 117/160/142
f 141/163/143 126/137/143 125/161/143
f 119/140/144 118/136/144 133/162/144
f 146/164/145 131/158/145 130/156/145
f 154/165/146 139/159/146 138/166/146
f 132/167/147 131/158/147 146/164/147
f 140/168/148 139/159/148 154/165/148
f 148/169/149 133/162/149 132/167/149
f 156/170/150 141/163/150 140/168/150
f 134/150/151 133/162/151 148/169/151
f 157/171/152 142/148/152 141/163/152
f 135/172/153 134/150/153 149/173/153
f 128/152/154 82/174/154 143/175/154
f 308/176/155 142/148/155 157/171/155
f 151/177/156 136/154/156 135/172/156
f 144/178/157 129/179/157 128/152/157
f 152/180/158 137/155/158 136/154/158
f 145/181/159 130/156/159 129/179/159
f 138/166/160 137/155/160 152/180/160
f 150/182/161 149/173/161 164/183/161
f 143/175/162 82/184/162 158/185/162
f 308/186/163 157/171/163 172/187/163
f 166/188/164 151/177/164 150/182/164
f 159/189/165 144/178/165 143/175/165
f 167/190/166 152/180/166 151/177/166
f 145/181/167 144/178/167 159/189/167
f 153/191/168 152/180/168 167/190/168
f 161/192/169 146/164/169 145/181/169
f 169/193/170 154/165/170 153/191/170
f 147/194/171 146/164/171 161/192/171
f 155/195/172 154/165/172 169/193/172
f 163/196/173 148/169/173 147/194/173
f 171/197/174 156/170/174 155/195/174
f 149/173/175 148/169/175 163/196/175
f 157/171/176 156/170/176 171/197/176
f 184/198/177 169/193/177 168/199/177
f 162/200/178 161/192/178 176/201/178
f 170/202/179 169/193/179 184/198/179
f 178/203/180 163/196/180 162/200/180
f 186/204/181 171/197/181 170/202/181
f 164/183/182 163/196/182 178/203/182
f 172/187/183 171/197/183 186/204/183
f 165/205/184 164/183/184 179/206/184
f 158/185/185 82/207/185 173/208/185
f 308/209/186 172/187/186 187/210/186
f 181/211/187 166/188/187 165/205/187
f 174/212/188 159/189/188 158/185/188
f 182/213/189 167/190/189 166/188/189
f 175/214/190 160/215/190 159/189/190
f 168/199/191 167/190/191 182/213/191
f 176/201/192 161/192/192 160/215/192
f 173/208/193 82/216/193 188/217/193
f 308/218/194 187/210/194 202/219/194
f 196/220/195 181/211/195 180/221/195
f 174/212/196 173/208/196 188/217/196
f 197/222/197 182/213/197 181/211/197
f 175/214/198 174/212/198 189/223/198
f 183/224/199 182/213/199 197/222/199
f 191/225/200 176/201/200 175/214/200
f 199/226/201 184/198/201 183/224/201
f 177/227/202 176/201/202 191/225/202
f 185/228/203 184/198/203 199/226/203
f 193/229/204 178/203/204 177/227/204
f 201/230/205 186/204/205 185/228/205
f 179/206/206 178/203/206 193/229/206
f 202/219/207 187/210/207 186/204/207
f 180/221/208 179/206/208 194/231/208
f 192/232/209 191/225/209 206/233/209
f 200/234/210 199/226/210 214/235/210
f 208/236/211 193/229/211 192/232/211
f 216/237/212 201/230/212 200/234/212
f 194/231/213 193/229/213 208/236/213
f 217/238/214 202/219/214 201/230/214
f 195/239/215 194/231/215 209/240/215
f 188/217/216 82/241/216 203/242/216
f 308/243/217 202/219/217 217/238/217
f 211/244/218 196/220/218 195/239/218
f 204/245/219 189/223/219 188/217/219
f 212/246/220 197/222/220 196/220/220
f 205/247/221 190/248/221 189/223/221
f 198/249/222 197/222/222 212/246/222
f 206/233/223 191/225/223 190/248/223
f 214/235/224 199/226/224 198/249/224
f 226/250/225 211/244/225 210/251/225
f 219/252/226 204/245/226 203/242/226
f 227/253/227 212/246/227 211/244/227
f 220/254/228 205/247/228 204/245/228
f 213/255/229 212/246/229 227/253/229
f 221/256/230 206/233/230 205/247/230
f 229/257/231 214/235/231 213/255/231
f 207/258/232 206/233/232 221/256/232
f 215/259/233 214/235/233 229/257/233
f 223/260/234 208/236/234 207/258/234
f 231/261/235 216/237/235 215/259/235
f 209/240/236 208/236/236 223/260/236
f 232/262/237 217/238/237 216/237/237
f 210/251/238 209/240/238 224/263/238
f 203/242/239 82/264/239 218/265/239
f 308/266/240 217/238/240 232/262/240
f 230/267/241 229/257/241 244/268/241
f 238/269/242 223/260/242 222/270/242
f 246/271/243 231/261/243 230/267/243
f 224/263/244 223/260/244 238/269/244
f 247/272/245 232/262/245 231/261/245
f 225/273/246 224/263/246 239/274/246
f 218/265/247 82/275/247 233/276/247
f 308/277/248 232/262/248 247/272/248
f 241/278/249 226/250/249 225/273/249
f 234/279/250 219/252/250 218/265/250
f 242/280/251 227/253/251 226/250/251
f 235/281/252 220/254/252 219/252/252
f 228/282/253 227/253/253 242/280/253
f 236/283/254 221/256/254 220/254/254
f 244/268/255 229/257/255 228/282/255
f 222/270/256 221/256/256 236/283/256
f 257/284/257 242/280/257 241/278/257
f 250/285/258 235/281/258 234/279/258
f 243/286/259 242/280/259 257/284/259
f 251/287/260 236/283/260 235/281/260
f 259/288/261 244/268/261 243/286/261
f 237/289/262 236/283/262 251/287/262
f 245/290/263 244/268/263 259/288/263
f 253/291/264 238/269/264 237/289/264
f 261/292/265 246/271/265 245/290/265
f 239/274/266 238/269/266 253/291/266
f 247/272/267 246/271/267 261/292/267
f 240/293/268 239/274/268 254/294/268
f 233/276/269 82/295/269 248/296/269
f 308/297/270 247/272/270 262/298/270
f 256/299/271 241/278/271 240/293/271
f 249/300/272 234/279/272 233/276/272
f 261/292/273 260/301/273 275/302/273
f 254/294/274 253/291/274 268/303/274
f 277/304/275 262/298/275 261/292/275
f 255/305/276 254/294/276 269/306/276
f 248/296/277 82/307/277 263/308/277
f 308/309/278 262/298/278 277/304/278
f 271/310/279 256/299/279 255/305/279
f 249/300/280 248/296/280 263/308/280
f 272/311/281 257/284/281 256/299/281
f 265/312/282 250/285/282 249/300/282
f 258/313/283 257/284/283 272/311/283
f 266/314/284 251/287/284 250/285/284
f 274/315/285 259/288/285 258/313/285
f 252/316/286 251/287/286 266/314/286
f 260/301/287 259/288/287 274/315/287
f 268/303/288 253/291/288 252/316/288
f 280/317/289 265/312/289 264/318/289
f 273/319/290 272/311/290 287/320/290
f 281/321/291 266/314/291 265/312/291
f 289/322/292 274/315/292 273/319/292
f 267/323/293 266/314/293 281/321/293
f 275/302/294 274/315/294 289/322/294
f 283/324/295 268/303/295 267/323/295
f 276/325/296 275/302/296 290/326/296
f 269/306/297 268/303/297 283/324/297
f 292/327/298 277/304/298 276/325/298
f 270/328/299 269/306/299 284/329/299
f 263/308/300 82/330/300 278/331/300
f 308/332/301 277/304/301 292/327/301
f 286/333/302 271/310/302 270/328/302
f 279/334/303 264/318/303 263/308/303
f 287/320/304 272/311/304 271/310/304
f 284/329/305 283/324/305 298/335/305
f 307/336/306 292/327/306 291/337/306
f 285/338/307 284/329/307 299/339/307
f 278/331/308 82/340/308 293/341/308
f 308/342/309 292/327/309 307/336/309
f 301/343/310 286/333/310 285/338/310
f 294/344/311 279/334/311 278/331/311
f 302/345/312 287/320/312 286/333/312
f 280/317/313 279/334/313 294/344/313
f 288/346/314 287/320/314 302/345/314
f 296/347/315 281/321/315 280/317/315
f 304/348/316 289/322/316 288/346/316
f 282/349/317 281/321/317 296/347/317
f 290/326/318 289/322/318 304/348/318
f 298/335/319 283/324/319 282/349/319
f 306/350/320 291/337/320 290/326/320
f 303/351/321 302/345/321 318/352/321
f 312/353/322 296/347/322 295/354/322
f 320/355/323 304/348/323 303/351/323
f 297/356/324 296/347/324 312/353/324
f 305/357/325 304/348/325 320/355/325
f 314/358/326 298/335/326 297/356/326
f 322/359/327 306/350/327 305/357/327
f 299/339/328 298/335/328 314/358/328
f 323/360/329 307/336/329 306/350/329
f 300/361/330 299/339/330 315/362/330
f 293/341/331 82/363/331 309/364/331
f 308/365/332 307/336/332 323/360/332
f 317/366/333 301/343/333 300/361/333
f 294/344/334 293/341/334 309/364/334
f 318/352/335 302/345/335 301/343/335
f 295/354/336 294/344/336 310/367/336
f 338/368/337 323/360/337 322/359/337
f 316/369/338 315/362/338 330/370/338
f 309/364/339 82/371/339 324/372/339
f 308/373/340 323/360/340 338/368/340
f 332/374/341 317/366/341 316/369/341
f 325/375/342 310/367/342 309/364/342
f 333/376/343 318/352/343 317/366/343
f 311/377/344 310/367/344 325/375/344
f 319/378/345 318/352/345 333/376/345
f 327/379/346 312/353/346 311/377/346
f 335/380/347 320/355/347 319/378/347
f 313/381/348 312/353/348 327/379/348
f 321/382/349 320/355/349 335/380/349
f 329/383/350 314/358/350 313/381/350
f 322/359/351 321/382/351 336/384/351
f 315/362/352 314/358/352 329/383/352
f 342/385/353 327/379/353 326/386/353
f 350/387/354 335/380/354 334/388/354
f 328/389/355 327/379/355 342/385/355
f 336/384/356 335/380/356 350/387/356
f 344/390/357 329/383/357 328/389/357
f 352/391/358 337/392/358 336/384/358
f 330/370/359 329/383/359 344/390/359
f 338/368/360 337/392/360 352/391/360
f 331/393/361 330/370/361 345/394/361
f 324/372/362 82/395/362 339/396/362
f 308/397/363 338/368/363 353/398/363
f 347/399/364 332/374/364 331/393/364
f 325/375/365 324/372/365 339/396/365
f 348/400/366 333/376/366 332/374/366
f 341/401/367 326/386/367 325/375/367
f 334/388/368 333/376/368 348/400/368
f 346/402/369 345/394/369 360/403/369
f 339/396/370 82/404/370 354/405/370
f 308/406/371 353/398/371 368/407/371
f 362/408/372 347/399/372 346/402/372
f 355/409/373 340/410/373 339/396/373
f 363/411/374 348/400/374 347/399/374
f 356/412/375 341/401/375 340/410/375
f 349/413/376 348/400/376 363/411/376
f 357/414/377 342/385/377 341/401/377
f 365/415/378 350/387/378 349/413/378
f 343/416/379 342/385/379 357/414/379
f 351/417/380 350/387/380 365/415/380
f 359/418/381 344/390/381 343/416/381
f 367/419/382 352/391/382 351/417/382
f 345/394/383 344/390/383 359/418/383
f 368/407/384 353/398/384 352/391/384
f 380/420/385 365/421/385 364/422/385
f 358/423/386 357/424/386 372/425/386
f 366/426/387 365/421/387 380/420/387
f 374/427/388 359/428/388 358/423/388
f 382/429/389 367/430/389 366/426/389
f 360/431/390 359/428/390 374/427/390
f 383/432/391 368/433/391 367/430/391
f 361/434/392 360/431/392 375/435/392
f 354/436/393 82/437/393 369/438/393
f 308/439/394 368/433/394 383/432/394
f 377/440/395 362/441/395 361/434/395
f 355/442/396 354/436/396 369/438/396
f 378/443/397 363/444/397 362/441/397
f 356/445/398 355/442/398 370/446/398
f 364/422/399 363/444/399 378/443/399
f 372/425/400 357/424/400 356/445/400
f 308/447/401 383/432/401 398/448/401
f 392/449/402 377/440/402 376/450/402
f 385/451/403 370/446/403 369/438/403
f 393/452/404 378/443/404 377/440/404
f 371/453/405 370/446/405 385/451/405
f 379/454/406 378/443/406 393/452/406
f 387/455/407 372/425/407 371/453/407
f 395/456/408 380/420/408 379/454/408
f 373/457/409 372/425/409 387/455/409
f 381/458/410 380/420/410 395/456/410
f 389/459/411 374/427/411 373/457/411
f 397/460/412 382/429/412 381/458/412
f 375/435/413 374/427/413 389/459/413
f 398/448/414 383/432/414 382/429/414
f 376/450/415 375/435/415 390/461/415
f 369/438/416 82/462/416 384/463/416
f 396/464/417 395/456/417 410/465/417
f 404/466/418 389/459/418 388/467/418
f 397/460/419 396/464/419 411/468/419
f 390/461/420 389/459/420 404/466/420
f 413/469/421 398/448/421 397/460/421
f 391/470/422 390/461/422 405/471/422
f 384/463/423 82/472/423 399/473/423
f 308/474/424 398/448/424 413/469/424
f 407/475/425 392/449/425 391/470/425
f 385/451/426 384/463/426 399/473/426
f 408/476/427 393/452/427 392/449/427
f 401/477/428 386/478/428 385/451/428
f 394/479/429 393/452/429 408/476/429
f 402/480/430 387/455/430 386/478/430
f 410/465/431 395/456/431 394/479/431
f 388/467/432 387/455/432 402/480/432
f 415/481/433 400/482/433 399/473/433
f 423/483/434 408/476/434 407/475/434
f 401/477/435 400/482/435 415/481/435
f 409/484/436 408/476/436 423/483/436
f 417/485/437 402/480/437 401/477/437
f 425/486/438 410/465/438 409/484/438
f 403/487/439 402/480/439 417/485/439
f 411/468/440 410/465/440 425/486/440
f 419/488/441 404/466/441 403/487/441
f 427/489/442 412/490/442 411/468/442
f 405/471/443 404/466/443 419/488/443
f 413/469/444 412/490/444 427/489/444
f 406/491/445 405/471/445 420/492/445
f 399/473/446 82/493/446 414/494/446
f 308/495/447 413/469/447 428/496/447
f 422/497/448 407/475/448 406/491/448
f 434/498/449 419/488/449 418/499/449
f 442/500/450 427/489/450 426/501/450
f 420/492/451 419/488/451 434/498/451
f 443/502/452 428/496/452 427/489/452
f 421/503/453 420/492/453 435/504/453
f 414/494/454 82/505/454 429/506/454
f 308/507/455 428/496/455 443/502/455
f 437/508/456 422/497/456 421/503/456
f 430/509/457 415/481/457 414/494/457
f 438/510/458 423/483/458 422/497/458
f 416/511/459 415/481/459 430/509/459
f 424/512/460 423/483/460 438/510/460
f 432/513/461 417/485/461 416/511/461
f 440/514/462 425/486/462 424/512/462
f 418/499/463 417/485/463 432/513/463
f 426/501/464 425/486/464 440/514/464
f 453/515/465 438/510/465 437/508/465
f 431/516/466 430/509/466 445/517/466
f 439/518/467 438/510/467 453/515/467
f 447/519/468 432/513/468 431/516/468
f 455/520/469 440/514/469 439/518/469
f 433/521/470 432/513/470 447/519/470
f 441/522/471 440/514/471 455/520/471
f 449/523/472 434/498/472 433/521/472
f 457/524/473 442/500/473 441/522/473
f 435/504/474 434/498/474 449/523/474
f 458/525/475 443/502/475 442/500/475
f 436/526/476 435/504/476 450/527/476
f 429/506/477 82/528/477 444/529/477
f 308/530/478 443/502/478 458/525/478
f 452/531/479 437/508/479 436/526/479
f 445/517/480 430/509/480 429/506/480
f 472/532/481 457/524/481 456/533/481
f 450/527/482 449/523/482 464/534/482
f 473/535/483 458/525/483 457/524/483
f 451/536/484 450/527/484 465/537/484
f 444/529/485 82/538/485 459/539/485
f 308/540/486 458/525/486 473/535/486
f 467/541/487 452/531/487 451/536/487
f 460/542/488 445/517/488 444/529/488
f 468/543/489 453/515/489 452/531/489
f 446/544/490 445/517/490 460/542/490
f 454/545/491 453/515/491 468/543/491
f 462/546/492 447/519/492 446/544/492
f 470/547/493 455/520/493 454/545/493
f 448/548/494 447/519/494 462/546/494
f 456/533/495 455/520/495 470/547/495
f 464/534/496 449/523/496 448/548/496
f 461/549/497 460/542/497 475/5/497
f 6/8/498 469/550/498 468/543/498
f 462/546/499 461/549/499 1/4/499
f 479/12/500 470/547/500 469/550/500
f 463/551/501 462/546/501 476/9/501
f 471/552/502 470/547/502 479/12/502
f 464/534/503 463/551/503 2/14/503
f 481/19/504 472/532/504 471/552/504
f 465/537/505 464/534/505 477/17/505
f 482/23/506 473/535/506 472/532/506
f 466/553/507 465/537/507 3/20/507
f 459/539/508 82/554/508 474/26/508
f 308/555/509 473/535/509 482/23/509
f 5/3/510 467/541/510 466/553/510
f 460/542/511 459/539/511 474/26/511
f 478/2/512 468/543/512 467/541/512
f 16/1/1 5/3/1 15/30/1
f 1/4/2 8/6/2 9/10/2
f 17/7/3 478/2/3 16/1/3
f 476/9/4 9/10/4 10/37/4
f 18/11/5 6/8/5 17/7/5
f 11/13/6 476/9/6 10/37/6
f 19/15/7 479/12/7 18/11/7
f 477/17/8 11/13/8 12/21/8
f 20/18/9 480/16/9 19/15/9
f 3/20/10 12/21/10 13/42/10
f 21/22/11 481/19/11 20/18/11
f 14/24/513 3/20/513 13/42/513
f 15/30/15 4/25/15 14/24/15
f 475/5/16 7/28/16 8/6/16
f 30/31/17 14/24/17 29/44/17
f 23/32/18 7/28/18 22/46/18
f 31/33/19 15/30/19 30/31/19
f 24/34/20 8/6/20 23/32/20
f 32/35/21 16/1/21 31/33/21
f 25/36/22 9/10/22 24/34/22
f 33/38/23 17/7/23 32/35/23
f 26/39/24 10/37/24 25/36/24
f 19/15/25 33/38/25 34/41/25
f 27/40/26 11/13/26 26/39/26
f 20/18/27 34/41/27 35/51/27
f 13/42/28 27/40/28 28/52/28
f 36/43/29 20/18/29 35/51/29
f 29/44/30 13/42/30 28/52/30
f 34/41/33 48/48/33 49/72/33
f 42/49/34 26/39/34 41/63/34
f 50/50/514 34/41/514 49/72/514
f 28/52/36 42/49/36 43/74/36
f 36/43/37 50/50/37 51/57/37
f 44/53/38 28/52/38 43/74/38
f 30/31/41 44/53/41 45/66/41
f 38/58/42 22/46/42 37/55/42
f 46/59/43 30/31/43 45/66/43
f 39/60/44 23/32/44 38/58/44
f 32/35/45 46/59/45 47/62/45
f 40/61/46 24/34/46 39/60/46
f 33/38/47 47/62/47 48/48/47
f 41/63/48 25/36/48 40/61/48
f 53/64/49 37/55/49 52/78/49
f 61/65/50 45/66/50 60/80/50
f 54/67/51 38/58/51 53/64/51
f 47/62/52 61/65/52 62/94/52
f 55/68/53 39/60/53 54/67/53
f 63/69/54 47/62/54 62/94/54
f 56/70/55 40/61/55 55/68/55
f 64/71/56 48/48/56 63/69/56
f 57/73/57 41/63/57 56/70/57
f 50/50/58 64/71/58 65/83/58
f 43/74/59 57/73/59 58/84/59
f 66/75/60 50/50/60 65/83/60
f 59/76/61 43/74/61 58/84/61
f 60/80/64 44/53/64 59/76/64
f 72/81/65 56/70/65 71/101/65
f 80/82/66 64/71/66 79/104/66
f 58/84/67 72/81/67 73/86/67
f 81/85/68 65/83/68 80/82/68
f 59/76/69 73/86/69 74/107/69
f 75/90/72 59/76/72 74/107/72
f 68/91/73 52/78/73 67/88/73
f 76/92/74 60/80/74 75/90/74
f 69/93/75 53/64/75 68/91/75
f 62/94/76 76/92/76 77/99/76
f 70/95/77 54/67/77 69/93/77
f 78/96/78 62/94/78 77/99/78
f 56/70/79 70/95/79 71/101/79
f 64/71/80 78/96/80 79/104/80
f 92/97/81 75/90/81 91/113/81
f 85/98/515 68/91/515 84/114/515
f 77/99/83 92/97/83 93/127/83
f 70/95/84 85/98/84 86/102/84
f 94/100/85 77/99/85 93/127/85
f 71/101/86 86/102/86 87/130/86
f 95/103/87 78/96/87 94/100/87
f 88/105/88 71/101/88 87/130/88
f 96/106/89 79/104/89 95/103/89
f 73/86/90 88/105/90 89/108/90
f 81/85/91 96/106/91 97/112/91
f 74/107/92 89/108/92 90/118/92
f 91/113/95 74/107/95 90/118/95
f 84/114/96 67/88/96 83/110/96
f 96/106/97 110/115/97 111/138/97
f 89/108/98 103/116/98 104/119/98
f 112/117/99 96/106/99 111/138/99
f 90/118/100 104/119/100 105/139/100
f 106/123/103 90/118/103 105/139/103
f 99/124/104 83/110/104 98/121/104
f 107/125/105 91/113/105 106/123/105
f 100/126/106 84/114/106 99/124/106
f 93/127/107 107/125/107 108/131/107
f 101/128/108 85/98/108 100/126/108
f 109/129/109 93/127/109 108/131/109
f 87/130/110 101/128/110 102/135/110
f 95/103/111 109/129/111 110/115/111
f 103/116/112 87/130/112 102/135/112
f 108/131/113 122/132/113 123/157/113
f 116/133/114 100/126/114 115/147/114
f 124/134/115 108/131/115 123/157/115
f 102/135/116 116/133/116 117/160/116
f 110/115/117 124/134/117 125/161/117
f 118/136/118 102/135/118 117/160/118
f 126/137/119 110/115/119 125/161/119
f 104/119/120 118/136/120 119/140/120
f 112/117/121 126/137/121 127/144/121
f 105/139/122 119/140/122 120/149/122
f 121/145/125 105/139/125 120/149/125
f 114/146/126 98/121/126 113/142/126
f 122/132/127 106/123/127 121/145/127
f 115/147/128 99/124/128 114/146/128
f 142/148/129 126/137/129 141/163/129
f 120/149/516 134/150/516 135/172/516
f 136/154/517 120/149/517 135/172/517
f 114/146/134 128/152/134 129/179/134
f 137/155/135 121/145/135 136/154/135
f 130/156/136 114/146/136 129/179/136
f 123/157/137 137/155/137 138/166/137
f 131/158/138 115/147/138 130/156/138
f 139/159/139 123/157/139 138/166/139
f 117/160/140 131/158/140 132/167/140
f 125/161/141 139/159/141 140/168/141
f 133/162/142 117/160/142 132/167/142
f 141/163/143 125/161/143 140/168/143
f 119/140/144 133/162/144 134/150/144
f 146/164/145 130/156/145 145/181/145
f 154/165/146 138/166/146 153/191/146
f 132/167/147 146/164/147 147/194/147
f 140/168/148 154/165/148 155/195/148
f 148/169/149 132/167/149 147/194/149
f 156/170/150 140/168/150 155/195/150
f 134/150/151 148/169/151 149/173/151
f 157/171/152 141/163/152 156/170/152
f 135/172/153 149/173/153 150/182/153
f 151/177/156 135/172/156 150/182/156
f 144/178/157 128/152/157 143/175/157
f 152/180/158 136/154/158 151/177/158
f 145/181/159 129/179/159 144/178/159
f 138/166/160 152/180/160 153/191/160
f 150/182/161 164/183/161 165/205/161
f 166/188/164 150/182/164 165/205/164
f 159/189/165 143/175/165 158/185/165
f 167/190/166 151/177/166 166/188/166
f 145/181/518 159/189/518 160/215/518
f 153/191/168 167/190/168 168/199/168
f 161/192/169 145/181/169 160/215/169
f 169/193/170 153/191/170 168/199/170
f 147/194/171 161/192/171 162/200/171
f 155/195/172 169/193/172 170/202/172
f 163/196/173 147/194/173 162/200/173
f 171/197/519 155/195/519 170/202/519
f 149/173/175 163/196/175 164/183/175
f 157/171/176 171/197/176 172/187/176
f 184/198/177 168/199/177 183/224/177
f 162/200/178 176/201/178 177/227/178
f 170/202/179 184/198/179 185/228/179
f 178/203/180 162/200/180 177/227/180
f 186/204/181 170/202/181 185/228/181
f 164/183/182 178/203/182 179/206/182
f 172/187/520 186/204/520 187/210/520
f 165/205/184 179/206/184 180/221/184
f 181/211/187 165/205/187 180/221/187
f 174/212/188 158/185/188 173/208/188
f 182/213/189 166/188/189 181/211/189
f 175/214/190 159/189/190 174/212/190
f 168/199/191 182/213/191 183/224/191
f 176/201/192 160/215/192 175/214/192
f 196/220/195 180/221/195 195/239/195
f 174/212/196 188/217/196 189/223/196
f 197/222/197 181/211/197 196/220/197
f 175/214/198 189/223/198 190/248/198
f 183/224/199 197/222/199 198/249/199
f 191/225/200 175/214/200 190/248/200
f 199/226/201 183/224/201 198/249/201
f 177/227/202 191/225/202 192/232/202
f 185/228/203 199/226/203 200/234/203
f 193/229/204 177/227/204 192/232/204
f 201/230/205 185/228/205 200/234/205
f 179/206/206 193/229/206 194/231/206
f 202/219/207 186/204/207 201/230/207
f 180/221/208 194/231/208 195/239/208
f 192/232/209 206/233/209 207/258/209
f 200/234/210 214/235/210 215/259/210
f 208/236/211 192/232/211 207/258/211
f 216/237/521 200/234/521 215/259/521
f 194/231/213 208/236/213 209/240/213
f 217/238/214 201/230/214 216/237/214
f 195/239/215 209/240/215 210/251/215
f 211/244/218 195/239/218 210/251/218
f 204/245/219 188/217/219 203/242/219
f 212/246/220 196/220/220 211/244/220
f 205/247/221 189/223/221 204/245/221
f 198/249/222 212/246/222 213/255/222
f 206/233/223 190/248/223 205/247/223
f 214/235/224 198/249/224 213/255/224
f 226/250/225 210/251/225 225/273/225
f 219/252/226 203/242/226 218/265/226
f 227/253/227 211/244/227 226/250/227
f 220/254/228 204/245/228 219/252/228
f 213/255/229 227/253/229 228/282/229
f 221/256/230 205/247/230 220/254/230
f 229/257/231 213/255/231 228/282/231
f 207/258/232 221/256/232 222/270/232
f 215/259/233 229/257/233 230/267/233
f 223/260/234 207/258/234 222/270/234
f 231/261/235 215/259/235 230/267/235
f 209/240/236 223/260/236 224/263/236
f 232/262/237 216/237/237 231/261/237
f 210/251/238 224/263/238 225/273/238
f 230/267/241 244/268/241 245/290/241
f 238/269/242 222/270/242 237/289/242
f 246/271/243 230/267/243 245/290/243
f 224/263/244 238/269/244 239/274/244
f 247/272/245 231/261/245 246/271/245
f 225/273/246 239/274/246 240/293/246
f 241/278/249 225/273/249 240/293/249
f 234/279/250 218/265/250 233/276/250
f 242/280/251 226/250/251 241/278/251
f 235/281/252 219/252/252 234/279/252
f 228/282/253 242/280/253 243/286/253
f 236/283/254 220/254/254 235/281/254
f 244/268/255 228/282/255 243/286/255
f 222/270/256 236/283/256 237/289/256
f 257/284/257 241/278/257 256/299/257
f 250/285/258 234/279/258 249/300/258
f 243/286/259 257/284/259 258/313/259
f 251/287/260 235/281/260 250/285/260
f 259/288/261 243/286/261 258/313/261
f 237/289/262 251/287/262 252/316/262
f 245/290/263 259/288/263 260/301/263
f 253/291/264 237/289/264 252/316/264
f 261/292/265 245/290/265 260/301/265
f 239/274/266 253/291/266 254/294/266
f 247/272/267 261/292/267 262/298/267
f 240/293/522 254/294/522 255/305/522
f 256/299/523 240/293/523 255/305/523
f 249/300/272 233/276/272 248/296/272
f 261/292/273 275/302/273 276/325/273
f 254/294/274 268/303/274 269/306/274
f 277/304/275 261/292/275 276/325/275
f 255/305/276 269/306/276 270/328/276
f 271/310/279 255/305/279 270/328/279
f 249/300/280 263/308/280 264/318/280
f 272/311/281 256/299/281 271/310/281
f 265/312/282 249/300/282 264/318/282
f 258/313/283 272/311/283 273/319/283
f 266/314/284 250/285/284 265/312/284
f 274/315/285 258/313/285 273/319/285
f 252/316/286 266/314/286 267/323/286
f 260/301/287 274/315/287 275/302/287
f 268/303/288 252/316/288 267/323/288
f 280/317/289 264/318/289 279/334/289
f 273/319/290 287/320/290 288/346/290
f 281/321/291 265/312/291 280/317/291
f 289/322/292 273/319/292 288/346/292
f 267/323/293 281/321/293 282/349/293
f 275/302/294 289/322/294 290/326/294
f 283/324/295 267/323/295 282/349/295
f 276/325/296 290/326/296 291/337/296
f 269/306/297 283/324/297 284/329/297
f 292/327/298 276/325/298 291/337/298
f 270/328/299 284/329/299 285/338/299
f 286/333/302 270/328/302 285/338/302
f 279/334/303 263/308/303 278/331/303
f 287/320/304 271/310/304 286/333/304
f 284/329/305 298/335/305 299/339/305
f 307/336/306 291/337/306 306/350/306
f 285/338/307 299/339/307 300/361/307
f 301/343/310 285/338/310 300/361/310
f 294/344/311 278/331/311 293/341/311
f 302/345/312 286/333/312 301/343/312
f 280/317/313 294/344/313 295/354/313
f 288/346/314 302/345/314 303/351/314
f 296/347/315 280/317/315 295/354/315
f 304/348/316 288/346/316 303/351/316
f 282/349/317 296/347/317 297/356/317
f 290/326/318 304/348/318 305/357/318
f 298/335/319 282/349/319 297/356/319
f 306/350/320 290/326/320 305/357/320
f 303/351/321 318/352/321 319/378/321
f 312/353/322 295/354/322 311/377/322
f 320/355/323 303/351/323 319/378/323
f 297/356/324 312/353/324 313/381/324
f 305/357/325 320/355/325 321/382/325
f 314/358/326 297/356/326 313/381/326
f 322/359/327 305/357/327 321/382/327
f 299/339/328 314/358/328 315/362/328
f 323/360/329 306/350/329 322/359/329
f 300/361/330 315/362/330 316/369/330
f 317/366/333 300/361/333 316/369/333
f 294/344/334 309/364/334 310/367/334
f 318/352/335 301/343/335 317/366/335
f 295/354/336 310/367/336 311/377/336
f 338/368/337 322/359/337 337/392/337
f 316/369/338 330/370/338 331/393/338
f 332/374/341 316/369/341 331/393/341
f 325/375/342 309/364/342 324/372/342
f 333/376/343 317/366/343 332/374/343
f 311/377/344 325/375/344 326/386/344
f 319/378/345 333/376/345 334/388/345
f 327/379/346 311/377/346 326/386/346
f 335/380/347 319/378/347 334/388/347
f 313/381/348 327/379/348 328/389/348
f 321/382/349 335/380/349 336/384/349
f 329/383/350 313/381/350 328/389/350
f 322/359/524 336/384/524 337/392/524
f 315/362/352 329/383/352 330/370/352
f 342/385/353 326/386/353 341/401/353
f 350/387/354 334/388/354 349/413/354
f 328/389/355 342/385/355 343/416/355
f 336/384/356 350/387/356 351/417/356
f 344/390/357 328/389/357 343/416/357
f 352/391/358 336/384/358 351/417/358
f 330/370/359 344/390/359 345/394/359
f 338/368/360 352/391/360 353/398/360
f 331/393/361 345/394/361 346/402/361
f 347/399/364 331/393/364 346/402/364
f 325/375/365 339/396/365 340/410/365
f 348/400/366 332/374/366 347/399/366
f 341/401/367 325/375/367 340/410/367
f 334/388/368 348/400/368 349/413/368
f 346/402/369 360/403/369 361/556/369
f 362/408/372 346/402/372 361/556/372
f 355/409/373 339/396/373 354/405/373
f 363/411/374 347/399/374 362/408/374
f 356/412/375 340/410/375 355/409/375
f 349/413/376 363/411/376 364/557/376
f 357/414/377 341/401/377 356/412/377
f 365/415/378 349/413/378 364/557/378
f 343/416/379 357/414/379 358/558/379
f 351/417/380 365/415/380 366/559/380
f 359/418/381 343/416/381 358/558/381
f 367/419/382 351/417/382 366/559/382
f 345/394/383 359/418/383 360/403/383
f 368/407/384 352/391/384 367/419/384
f 380/420/385 364/422/385 379/454/385
f 358/423/386 372/425/386 373/457/386
f 366/426/387 380/420/387 381/458/387
f 374/427/388 358/423/388 373/457/388
f 382/429/389 366/426/389 381/458/389
f 360/431/390 374/427/390 375/435/390
f 383/432/391 367/430/391 382/429/391
f 361/434/392 375/435/392 376/450/392
f 377/440/395 361/434/395 376/450/395
f 355/442/396 369/438/396 370/446/396
f 378/443/397 362/441/397 377/440/397
f 356/445/398 370/446/398 371/453/398
f 364/422/399 378/443/399 379/454/399
f 372/425/400 356/445/400 371/453/400
f 392/449/402 376/450/402 391/470/402
f 385/451/403 369/438/403 384/463/403
f 393/452/404 377/440/404 392/449/404
f 371/453/405 385/451/405 386/478/405
f 379/454/406 393/452/406 394/479/406
f 387/455/407 371/453/407 386/478/407
f 395/456/408 379/454/408 394/479/408
f 373/457/409 387/455/409 388/467/409
f 381/458/410 395/456/410 396/464/410
f 389/459/411 373/457/411 388/467/411
f 397/460/412 381/458/412 396/464/412
f 375/435/413 389/459/413 390/461/413
f 398/448/414 382/429/414 397/460/414
f 376/450/415 390/461/415 391/470/415
f 396/464/417 410/465/417 411/468/417
f 404/466/418 388/467/418 403/487/418
f 397/460/525 411/468/525 412/490/525
f 390/461/420 404/466/420 405/471/420
f 413/469/421 397/460/421 412/490/421
f 391/470/422 405/471/422 406/491/422
f 407/475/425 391/470/425 406/491/425
f 385/451/426 399/473/426 400/482/426
f 408/476/427 392/449/427 407/475/427
f 401/477/428 385/451/428 400/482/428
f 394/479/429 408/476/429 409/484/429
f 402/480/430 386/478/430 401/477/430
f 410/465/431 394/479/431 409/484/431
f 388/467/432 402/480/432 403/487/432
f 415/481/433 399/473/433 414/494/433
f 423/483/434 407/475/434 422/497/434
f 401/477/435 415/481/435 416/511/435
f 409/484/436 423/483/436 424/512/436
f 417/485/437 401/477/437 416/511/437
f 425/486/438 409/484/438 424/512/438
f 403/487/439 417/485/439 418/499/439
f 411/468/440 425/486/440 426/501/440
f 419/488/441 403/487/441 418/499/441
f 427/489/442 411/468/442 426/501/442
f 405/471/443 419/488/443 420/492/443
f 413/469/444 427/489/444 428/496/444
f 406/491/445 420/492/445 421/503/445
f 422/497/448 406/491/448 421/503/448
f 434/498/449 418/499/449 433/521/449
f 442/500/450 426/501/450 441/522/450
f 420/492/451 434/498/451 435/504/451
f 443/502/452 427/489/452 442/500/452
f 421/503/453 435/504/453 436/526/453
f 437/508/456 421/503/456 436/526/456
f 430/509/457 414/494/457 429/506/457
f 438/510/458 422/497/458 437/508/458
f 416/511/459 430/509/459 431/516/459
f 424/512/460 438/510/460 439/518/460
f 432/513/461 416/511/461 431/516/461
f 440/514/462 424/512/462 439/518/462
f 418/499/463 432/513/463 433/521/463
f 426/501/464 440/514/464 441/522/464
f 453/515/465 437/508/465 452/531/465
f 431/516/526 445/517/526 446/544/526
f 439/518/467 453/515/467 454/545/467
f 447/519/468 431/516/468 446/544/468
f 455/520/469 439/518/469 454/545/469
f 433/521/470 447/519/470 448/548/470
f 441/522/471 455/520/471 456/533/471
f 449/523/472 433/521/472 448/548/472
f 457/524/527 441/522/527 456/533/527
f 435/504/474 449/523/474 450/527/474
f 458/525/475 442/500/475 457/524/475
f 436/526/476 450/527/476 451/536/476
f 452/531/479 436/526/479 451/536/479
f 445/517/480 429/506/480 444/529/480
f 472/532/481 456/533/481 471/552/481
f 450/527/482 464/534/482 465/537/482
f 473/535/483 457/524/483 472/532/483
f 451/536/484 465/537/484 466/553/484
f 467/541/487 451/536/487 466/553/487
f 460/542/488 444/529/488 459/539/488
f 468/543/489 452/531/489 467/541/489
f 446/544/490 460/542/490 461/549/490
f 454/545/491 468/543/491 469/550/491
f 462/546/492 446/544/492 461/549/492
f 470/547/493 454/545/493 469/550/493
f 448/548/494 462/546/494 463/551/494
f 456/533/495 470/547/495 471/552/495
f 464/534/496 448/548/496 463/551/496
f 461/549/497 475/5/497 1/4/497
f 6/8/498 468/543/498 478/2/498
f 462/546/499 1/4/499 476/9/499
f 479/12/500 469/550/500 6/8/500
f 463/551/501 476/9/501 2/14/501
f 471/552/502 479/12/502 480/16/502
f 464/534/503 2/14/503 477/17/503
f 481/19/504 471/552/504 480/16/504
f 465/537/505 477/17/505 3/20/505
f 482/23/506 472/532/506 481/19/506
f 466/553/507 3/20/507 4/25/507
f 5/3/510 466/553/510 4/25/510
f 460/542/511 474/26/511 475/5/511
f 478/2/512 467/541/512 5/3/512
